<?xml version="1.0" encoding="utf-8"?>
<!-- Generator: Adobe Illustrator 21.0.0, SVG Export Plug-In . SVG Version: 6.00 Build 0)  -->
<svg version="1.1" id="Layer_1" xmlns="http://www.w3.org/2000/svg" xmlns:xlink="http://www.w3.org/1999/xlink" x="0px" y="0px"
	 viewBox="0 0 512 512" style="enable-background:new 0 0 512 512;" fill="#87ffc5" xml:space="preserve">
<path d="M503.1,239.1l-32.1-5.2c-4.3-0.7-7.5-4.1-8.1-8.4c-0.6-3.9-1.2-7.9-2.1-11.7c-0.9-4.2,1.1-8.5,4.8-10.6l28.4-15.8
	c4.5-2.3,6.5-7.5,4.8-12.2l-4.9-13.5c-1.7-4.7-6.7-7.4-11.6-6.2l-31.9,6.2c-4.3,0.8-8.5-1.2-10.6-5.1c-1.8-3.4-3.8-6.9-5.9-10.4
	c-2.3-3.7-1.9-8.4,0.9-11.7l21.3-24.5c3.4-3.6,3.6-9.3,0.4-13.1l-9.2-11.1c-3.2-3.9-8.8-4.7-12.9-1.9l-27.9,16.8
	c-3.7,2.2-8.4,1.7-11.6-1.1c-3-2.6-6-5.2-9.1-7.7c-3.4-2.7-4.6-7.2-3.1-11.2l11.6-30.5c2-4.6,0.3-10-4-12.5l-12.6-7.3
	c-4.3-2.5-9.8-1.3-12.8,2.7L344.4,59c-2.4,3.3-6.7,4.6-10.5,3.1c0,0-6.9-2.8-12.1-4.6c-4.1-1.4-6.8-5.2-6.7-9.5l0.5-32.6
	c0.3-5-3.2-9.5-8.1-10.4l-14.3-2.5c-4.9-0.9-9.7,2.1-11.2,6.9l-10.6,30.8c-1.4,4.1-5.3,6.8-9.6,6.7h-12.1c-4.3,0.1-8.2-2.6-9.6-6.7
	L229.6,9.5c-1.5-4.8-6.3-7.8-11.2-6.9l-14.3,2.5c-4.9,0.9-8.4,5.4-8.1,10.4l0.5,32.6c0.1,4.3-2.7,8.1-6.8,9.5
	c-2.8,1.1-9,3.5-11.9,4.6c-3.4,1.2-7.5,0.2-10.8-3.6l-20.3-25c-3-4-8.5-5.1-12.8-2.7L121.3,38c-4.3,2.5-6.1,7.8-4.1,12.4l11.6,30.5
	c1.5,4,0.3,8.5-3.1,11.2c-3.1,2.5-6.2,5.1-9.1,7.7c-3.2,2.8-7.9,3.3-11.6,1.1l-27.5-17c-4.2-2.7-9.7-1.9-12.9,1.9l-9.2,11.1
	c-3.2,3.8-3,9.4,0.4,13.1l21.3,24.5c2.8,3.3,3.2,8,0.9,11.7c-2.1,3.3-4.1,6.7-5.9,10.4c-2.1,3.8-6.3,5.8-10.6,5.1l-31.9-6.2
	c-4.9-1.2-9.8,1.5-11.6,6.2l-4.9,13.5c-1.7,4.7,0.3,9.9,4.8,12.2l28.4,15.8c3.8,2.1,5.7,6.4,4.8,10.6c-0.7,3.9-1.5,7.8-2.1,11.7
	c-0.6,4.3-3.9,7.6-8.1,8.4L8.7,239c-4.9,0.6-8.7,4.8-8.7,9.7v14.4c-0.1,5,3.7,9.3,8.7,9.7l32.1,5.2c4.3,0.7,7.5,4.1,8.1,8.4
	c0.6,3.9,1.2,7.9,2.1,11.7c0.9,4.2-1.1,8.5-4.8,10.6l-28.4,15.8c-4.5,2.3-6.5,7.5-4.8,12.2l4.9,13.5c1.7,4.7,6.7,7.4,11.6,6.2
	l31.9-6.2c4.3-0.8,8.5,1.2,10.6,5.1c1.8,3.4,3.8,6.9,5.9,10.4c2.3,3.7,1.9,8.4-0.9,11.7L55.7,402c-3.4,3.6-3.6,9.2-0.4,13.1
	l9.2,11.1c3.2,3.9,8.8,4.7,12.9,1.9l27.9-16.8c3.7-2.2,8.4-1.7,11.6,1.1c3,2.6,6,5.2,9.1,7.7c3.4,2.7,4.6,7.2,3.1,11.2l-11.6,30.5
	c-2,4.6-0.3,9.9,4.1,12.5l12.6,7.3c4.3,2.5,9.8,1.3,12.8-2.7l20.7-25.4c2.6-3.2,6.8-4.6,10.1-3.2c4.2,1.7,7,2.7,12.2,4.4
	c4.1,1.3,6.8,5.2,6.8,9.5l-0.5,32.6c-0.3,5,3.2,9.5,8.1,10.4l14.3,2.5c4.9,0.9,9.7-2.1,11.2-6.9l10.6-30.8c1.4-4.1,5.3-6.8,9.6-6.7
	h12.1c4.3-0.1,8.2,2.6,9.6,6.7l10.6,30.8c1.5,4.8,6.3,7.8,11.2,6.9l14.3-2.5c4.9-0.9,8.4-5.4,8.1-10.4l-0.5-32.6
	c-0.1-4.3,2.7-8.1,6.8-9.5c5.2-1.7,8.6-3.1,11.8-4.3c3.2-1.2,7.1-1.2,10.2,2.6l20.9,25.8c3,4,8.5,5.2,12.8,2.7l12.6-7.3
	c4.4-2.5,6.1-7.9,4.1-12.5l-11.6-30.5c-1.5-4-0.3-8.5,3.1-11.2c3.1-2.5,6.2-5,9.1-7.6c3.2-2.8,7.9-3.3,11.6-1.1l27.8,16.8
	c4.2,2.7,9.7,1.9,12.9-1.9l9.2-11.1c3.2-3.8,3-9.4-0.4-13.1L435,377.4c-2.8-3.3-3.2-8-0.9-11.7c2.1-3.3,4.1-6.8,5.9-10.4
	c2.1-3.8,6.3-5.8,10.6-5.1l31.9,6.2c4.9,1.2,9.8-1.5,11.6-6.2l4.9-13.5c1.7-4.7-0.3-9.9-4.8-12.2l-28.4-15.8
	c-3.8-2.1-5.7-6.4-4.8-10.6c0.7-3.9,1.5-7.8,2.1-11.7c0.6-4.3,3.9-7.6,8.1-8.4l32.1-5.2c4.9-0.6,8.7-4.8,8.7-9.7v-14.4
	C511.7,243.7,507.9,239.7,503.1,239.1z M205.1,86.6c1.5-0.8,3.1-1.5,4.7-1.9c15.1-4,30.6-6,46.2-5.9c80.9,0,151.5,54.7,171.6,133.1
	c2.6,10.6-3.8,21.2-14.3,23.9c-1.6,0.4-3.2,0.6-4.8,0.6H278.9c-7.1,0-13.6-3.8-17.1-10l-64.1-112.9C192.3,104,195.6,92,205.1,86.6z
	 M163,378.6c-5.4,9.4-17.5,12.7-26.9,7.3c-1.5-0.9-2.9-1.9-4.1-3.1C97.9,349.3,78.7,303.7,78.8,256c0-47.9,19.3-93.9,53.7-127.3
	c7.7-7.7,20.2-7.6,27.9,0.1c1.2,1.2,2.3,2.6,3.1,4.1l64.3,113.2c3.5,6.1,3.5,13.5,0,19.5L163,378.6z M427.6,300.2
	c-20.1,78.4-90.7,133.1-171.6,133c-15.9,0-31.7-2-47-6.1c-10.5-2.8-16.8-13.6-14-24.1c0.4-1.7,1.1-3.3,2-4.8l64.7-112.7
	c3.5-6.1,10-9.9,17.1-9.8h129.7c10.9,0,19.7,8.8,19.7,19.7C428.2,297,428,298.6,427.6,300.2z"/>
</svg>
