<svg xmlns="http://www.w3.org/2000/svg" viewBox="0 0 1000 1000" xml:space="preserve"><path fill="#00C130" d="M759.96 27.01c-2.3 2.1-8.61 16.08-14.93 33.11-5.93 16.27-11.67 30.81-12.63 31.96-1.15 1.34-5.55 2.49-10.14 2.49-4.4 0-16.84 2.3-27.75 4.98l-19.71 4.98-23.73-25.07C633.08 60.51 626 54.39 622.56 54.39c-4.4 0-38.28 21.05-41.34 25.64-3.06 4.59-.96 11.48 11.87 39.62 7.46 16.08 13.4 29.86 13.4 30.62 0 .77-4.21 7.08-9.57 14.16-5.17 6.89-12.25 17.8-15.69 24.11l-6.31 11.67-34.45-1.15c-27.56-.96-35.21-.77-38.08 1.34-4.98 3.64-13.01 45.16-9.95 51.48 1.72 3.44 9.76 7.27 34.83 16.65L560 280.59l1.15 13.21c.57 7.08 3.06 20.09 5.36 28.71l4.21 15.88-25.1 24.11c-17.8 16.84-25.26 25.45-25.26 28.32 0 4.21 21.24 38.08 25.65 40.96 4.78 3.25 13.59.76 41.15-11.87 15.88-7.46 29.47-13.4 29.85-13.4.57 0 5.74 3.83 11.67 8.61 5.74 4.78 16.46 11.87 23.92 15.88l13.4 7.08-.57 35.98c-.57 32.92-.19 36.36 2.87 38.66 1.91 1.34 13.4 4.4 25.65 6.7l22.2 4.21 4.21-4.59c2.3-2.3 9.19-17.99 15.12-34.45 6.12-16.84 12.25-30.43 13.97-31 1.53-.58 6.13-1.15 10.14-1.15 3.83 0 15.69-2.11 26.03-4.98l18.95-4.78 23.92 25.07c18.18 18.95 25.07 24.88 28.71 24.88 6.12 0 41.34-23.54 43.06-28.71.77-2.68-3.44-13.97-13.21-35.79l-14.54-31.77 9.38-12.06c5.17-6.7 12.25-17.8 15.69-24.88l6.51-12.63 34.06 1.34c43.83 1.53 41.53 3.06 47.46-27.75l4.4-22.97-3.83-4.02c-2.3-2.11-17.61-8.8-34.45-15.12l-30.43-11.1-1.53-9.19c-.77-5.17-3.64-18.37-6.12-29.47l-4.78-20.09 24.88-23.54c19.71-18.76 24.88-24.69 24.88-28.71 0-3.25-4.78-12.44-12.44-23.92-11.29-16.65-13.01-18.56-18.37-18.56-3.25 0-18.95 6.12-35.21 13.59l-29.47 13.59-13.01-9.76c-7.08-5.36-18.37-12.63-25.07-16.08l-11.87-6.12 1.15-34.64c1.53-42.49 2.87-40.38-27.17-46.31-24.91-4.97-22.42-4.97-27.21-.95zm15.12 144.49c18.18 6.7 29.28 13.78 41.72 26.41 19.71 20.09 30.81 47.27 30.81 75.98 0 59.52-48.23 107.55-108.13 107.75-29.09 0-54.16-10.72-75.59-32.34-33.87-34.07-41.72-81.14-20.67-124.2 7.65-15.5 30.24-39.04 44.97-46.89 25.46-13.6 60.68-16.28 86.89-6.71z"/><path fill="#C11800" d="M325.16 291.88c-17.03 1.34-20.67 2.3-23.35 5.74-1.91 2.3-3.44 5.93-3.64 8.23 0 2.1-1.53 18.95-3.25 37.13l-3.25 33.3-22.01 7.46c-31.39 10.91-29.09 10.72-36.36 2.3-21.05-24.3-46.12-48.42-50.14-48.42-6.7 0-41.34 23.92-42.87 29.47-.77 3.25 3.25 13.97 14.35 38.08 8.61 18.56 15.5 34.64 15.5 35.98 0 1.34-5.36 8.04-12.06 14.93-6.51 6.89-13.97 15.5-16.65 19.14l-4.78 6.32-36.94-10.92c-22.77-6.7-38.28-10.33-40.76-9.57-2.68.96-7.27 8.23-14.54 23.16-10.15 20.86-10.53 21.82-7.66 26.41 1.72 2.49 16.46 13.97 32.92 25.45 23.92 16.65 29.47 21.43 28.9 24.5-5.74 28.71-7.46 37.32-8.42 42.87l-1.34 6.7-30.62 7.08c-41.34 9.76-44.59 10.91-46.89 15.31-1.34 2.49-1.72 11.1-.77 25.07 1.91 29.09 1.53 28.9 35.21 31.96 14.16 1.15 31.19 2.68 37.7 3.45l11.87 1.15 4.02 13.59c2.3 7.46 6.31 18.76 8.8 25.07l4.78 11.48-29.09 27.75c-26.22 25.26-28.9 28.32-27.56 32.72 2.87 8.8 24.11 38.28 28.9 40 4.02 1.53 10.33-.57 39.61-14.16l34.83-15.88 14.35 12.63c8.04 6.89 17.22 14.73 20.48 17.42l6.12 4.78L190.04 884c-5.74 18.95-10.14 36.94-9.95 40.19.57 5.17 2.49 6.7 19.71 15.69 19.52 10.33 26.6 11.87 31.96 7.66 1.53-1.15 12.25-15.5 23.73-31.58 17.03-24.31 21.24-29.28 24.5-28.52 2.3.38 12.25 2.3 22.2 4.21 9.95 1.72 20.09 3.64 22.39 4.02 3.64.58 4.98 4.98 13.01 38.08 7.27 30.62 9.76 37.89 13.21 40.19 3.25 2.3 8.04 2.49 25.07.96 11.67-.96 22.58-2.3 24.31-2.87 4.59-1.91 6.51-10.72 8.99-42.1 3.45-41.72 3.06-40.57 11.29-42.1 3.83-.77 15.31-4.4 25.07-8.04l18.18-6.7 8.61 9.19c31.39 34.07 44.59 46.7 49.18 46.7 4.59 0 29.28-15.12 38.66-23.54 2.3-2.11 4.21-5.74 4.21-7.85 0-2.29-7.08-19.33-15.5-37.89l-15.69-34.06 9.38-9.95c7.46-8.04 22.78-26.41 24.88-29.85.19-.38 16.46 4.02 35.98 9.95 19.52 5.93 37.13 10.72 39.23 10.72 4.97 0 8.99-5.55 19.14-26.22 5.93-12.06 8.04-18.75 7.27-21.82-.77-3.25-10.53-11.29-31.77-26.22-16.84-11.87-31-22.2-31.58-22.97-.38-.77.77-7.46 2.87-15.12 1.91-7.66 4.02-19.14 4.79-25.45.96-9.57 1.91-11.67 5.36-12.44 45.74-10.72 69.85-17.22 72.72-19.71 3.25-3.06 3.45-5.17 2.29-26.22-1.15-19.14-1.91-23.54-4.97-26.6-3.06-3.25-9.38-4.4-38.66-7.08-19.33-1.91-36.36-3.44-38.28-3.63-2.1 0-3.83-2.87-5.17-9.19-1.34-4.98-5.17-16.27-8.8-25.07l-6.31-16.08 20.29-19.33c34.06-32.16 36.74-35.03 36.74-39.05 0-2.1-4.02-9.76-8.8-16.84-16.27-23.92-17.8-25.64-23.54-25.64-3.06 0-20.29 6.89-38.47 15.31l-32.92 15.31-11.87-10.72c-6.32-5.74-15.31-13.4-19.71-16.65-4.4-3.45-8.23-7.27-8.23-8.61 0-1.34 4.78-18.37 10.53-37.7 8.61-28.32 10.33-36.17 8.61-39.23-2.49-4.59-38.08-22.97-44.78-22.97-5.55 0-8.04 2.87-32.53 37.7l-18.95 26.98-9.38-2.68c-4.98-1.53-16.65-4.02-25.84-5.17l-16.65-2.49-9-37.13c-7.08-29.47-9.76-37.89-13.21-40.57-2.3-1.91-5.17-3.25-6.51-3.25-1.12.2-11.08 1.15-22.17 1.92zm61.62 165.16c67.94 13.4 121.14 63.35 139.71 131.48 6.13 22.77 6.13 67.94 0 90.71-11.1 40.19-38.66 79.42-71.96 102.39-78.46 53.97-187.17 36.74-244.77-38.66-26.41-34.64-40-79.04-36.94-120.18 5.93-81.72 63.15-148.32 142-165.35 17.22-3.65 54.16-3.84 71.96-.39z"/></svg>
