<svg xmlns="http://www.w3.org/2000/svg" width="48" height="48" fill-rule="evenodd" class="vector-svg"><path fill="gray" stroke="gray" stroke-width="0px" stroke-linecap="round" shape-rendering="geometricPrecision" d="M 24 4 C 12.95 4 4 12.95 4 24 C 4 35.05 12.95 44 24 44 C 35.05 44 44 35.05 44 24 C 44 12.95 35.05 4 24 4 L 24 4 Z M 32.51 36.76 L 32.51 32.89 C 32.51 31.8 31.4 30.67 30.32 30.67 C 30.32 29.58 29.21 28.44 28.14 28.44 L 23.76 28.44 C 23.22 28.44 22.68 28.73 22.26 29.15 L 19.38 26.22 L 19.38 25.11 C 19.38 24.5 19.87 24 20.48 24 L 21.57 24 C 22.78 24 23.76 23 23.76 21.78 L 23.76 15.11 C 24.97 15.11 25.95 14.12 25.95 12.89 C 25.95 11.66 24.97 10.67 23.76 10.67 C 16.51 10.67 10.63 16.64 10.63 24 C 10.63 25.23 11.61 26.22 12.82 26.22 L 15.01 26.22 L 21.57 32.89 L 21.57 36.22 C 21.57 36.84 22.06 37.33 22.67 37.33 L 23.76 37.33 L 23.76 39.56 C 15.3 39.56 8.44 32.59 8.44 24 C 8.44 15.41 15.3 8.44 23.76 8.44 C 28.96 8.44 33.55 11.08 36.32 15.11 L 34.7 15.11 C 33.49 15.11 32.51 16.11 32.51 17.33 L 32.51 19.56 C 32.51 20.78 33.49 21.78 34.7 21.78 L 34.82 21.78 C 34.75 22.02 34.7 22.26 34.7 22.52 L 34.7 25.48 C 34.7 27.12 36.17 28.44 37.98 28.44 C 38.14 28.44 38.29 28.42 38.44 28.4 C 37.45 31.83 35.33 34.76 32.51 36.76 L 32.51 36.76 Z"/></svg>