<svg xmlns="http://www.w3.org/2000/svg" width="248.571" height="248.571"><path d="M534.286 489.505a124.286 124.286 0 1 1-248.572 0 124.286 124.286 0 1 1 248.572 0z" style="fill:#1967d2;fill-opacity:1;stroke:none" transform="translate(-285.714 -365.22)"/><path d="M410.951 366.726c-2.583 27.364-8.65 40.05-11.058 50.922-1.204 5.436-1.468 10.432.094 16.466 1.562 6.034 4.942 13.107 11.027 22.808l.845-.518c-6.057-9.659-9.378-16.649-10.901-22.534-1.524-5.885-1.247-10.662-.063-16.009 2.369-10.693 8.465-23.569 11.058-51.044l-1.002-.091z" style="font-size:medium;font-style:normal;font-variant:normal;font-weight:400;font-stretch:normal;text-indent:0;text-align:start;text-decoration:none;line-height:normal;letter-spacing:normal;word-spacing:normal;text-transform:none;direction:ltr;block-progression:tb;writing-mode:lr-tb;text-anchor:start;baseline-shift:baseline;color:#000;fill:#000;fill-opacity:1;stroke:#000;stroke-width:2.86813521;stroke-miterlimit:4;stroke-opacity:1;stroke-dasharray:none;marker:none;visibility:visible;display:inline;overflow:visible;enable-background:accumulate;font-family:Sans;-inkscape-font-specification:Sans" transform="translate(-285.714 -365.22)"/><path d="M385.714 486.648a22.857 22.857 0 1 1-45.714 0 22.857 22.857 0 1 1 45.714 0z" transform="matrix(1.75 0 0 1.75 -561.116 -720.58)" style="fill:#fff;fill-opacity:1;stroke:none"/><path d="M385.714 486.648a22.857 22.857 0 1 1-45.714 0 22.857 22.857 0 1 1 45.714 0z" transform="matrix(1.75 0 0 1.75 -459.116 -720.58)" style="fill:#fff;fill-opacity:1;stroke:none"/><path style="fill:#fff;fill-opacity:1;stroke:none" d="M356.384 456.273h105.714v60H356.384z" transform="translate(-285.714 -365.22)"/><path style="fill:#000;fill-opacity:1;stroke:none" d="M339.3 488.7h36.365v10.102H339.3z" transform="translate(-285.714 -365.22)"/><path transform="rotate(-90 -325.467 -39.753)" style="fill:#000;fill-opacity:1;stroke:none" d="M-511.934 352.937h36.365v10.102h-36.365z"/><path d="M473.762 476.575a7.071 7.071 0 1 1-14.143 0 7.071 7.071 0 1 1 14.143 0z" transform="translate(-287.26 -362.165)" style="fill:#000;fill-opacity:1;stroke:none"/><path d="M473.762 476.575a7.071 7.071 0 1 1-14.143 0 7.071 7.071 0 1 1 14.143 0z" transform="translate(-287.147 -330.115)" style="fill:#000;fill-opacity:1;stroke:none"/><path d="M473.762 476.575a7.071 7.071 0 1 1-14.143 0 7.071 7.071 0 1 1 14.143 0z" transform="translate(-271.255 -346.033)" style="fill:#000;fill-opacity:1;stroke:none"/><path d="M473.762 476.575a7.071 7.071 0 1 1-14.143 0 7.071 7.071 0 1 1 14.143 0z" transform="translate(-303.204 -346.049)" style="fill:#000;fill-opacity:1;stroke:none"/><path style="fill:#000;fill-opacity:1;stroke:#000;stroke-width:0;stroke-miterlimit:4;stroke-opacity:1;stroke-dasharray:none" d="M392.949 488.192h9.596v3.03h-9.596zM419.202 488.192h9.596v3.03h-9.596z" transform="translate(-285.714 -365.22)"/></svg>
