<svg xmlns="http://www.w3.org/2000/svg" height="48" viewBox="0 96 960 960" width="48"><path fill="#1967D2" d="M482.799 812.087q17.777 0 30.989-12.995T527 768.038q0-18.058-13.142-30.853-13.142-12.794-31.201-12.794t-30.988 12.679q-12.93 12.679-12.93 31.11 0 17.776 12.933 30.841 12.932 13.066 31.127 13.066Zm-41.495-147.913h71.566q0-25.355 6.282-47.134 6.283-21.779 39.326-49.953 30.435-23.304 43.087-49.028 12.652-25.724 12.652-57.517 0-56.045-33.984-89.119-33.983-33.075-92.451-33.075-53.521 0-93.304 27.348-39.782 27.348-57.913 73.866l65.261 24.482q10.131-27.565 31.34-43.717 21.21-16.153 48.704-16.153 27.76 0 46.64 16.032 18.881 16.031 18.881 42.268 0 19.917-12.301 38.852-12.302 18.935-34.047 37.109-30.173 25.174-44.956 52.909-14.783 27.735-14.783 72.83Zm38.316 330.652q-85.825 0-162.506-32.784-76.681-32.785-133.526-89.63-56.845-56.845-89.63-133.579-32.784-76.734-32.784-162.755 0-86.915 32.843-163.351 32.844-76.435 89.978-133.567 57.135-57.132 133.457-89.842 76.323-32.709 161.98-32.709 87.02 0 163.853 32.656 76.834 32.656 133.689 89.71 56.856 57.054 89.637 133.703 32.78 76.648 32.78 163.864 0 86.179-32.709 162.258-32.71 76.079-89.842 133.209-57.132 57.13-133.636 89.974-76.503 32.843-163.584 32.843Zm.251-83.174q139.25 0 237.515-98.281 98.266-98.281 98.266-237.241 0-139.251-98.136-237.516-98.136-98.266-237.669-98.266-138.533 0-237.016 98.136t-98.483 237.669q0 138.533 98.281 237.016t237.242 98.483ZM480 576Z"/></svg>
