<?xml version="1.0" encoding="UTF-8" standalone="no"?>
<!-- Created with Inkscape (http://www.inkscape.org/) -->

<svg
   xmlns:dc="http://purl.org/dc/elements/1.1/"
   xmlns:cc="http://creativecommons.org/ns#"
   xmlns:rdf="http://www.w3.org/1999/02/22-rdf-syntax-ns#"
   xmlns:svg="http://www.w3.org/2000/svg"
   xmlns="http://www.w3.org/2000/svg"
   xmlns:sodipodi="http://sodipodi.sourceforge.net/DTD/sodipodi-0.dtd"
   xmlns:inkscape="http://www.inkscape.org/namespaces/inkscape"
   width="92.445168mm"
   height="90.548866mm"
   viewBox="0 0 92.445168 90.548866"
   version="1.1"
   id="svg8"
   inkscape:version="0.92.3 (2405546, 2018-03-11)"
   sodipodi:docname="drawing.svg">
  <defs
     id="defs2" />
  <sodipodi:namedview
     id="base"
     pagecolor="#ffffff"
     bordercolor="#666666"
     borderopacity="1.0"
     inkscape:pageopacity="0.0"
     inkscape:pageshadow="2"
     inkscape:zoom="2.8"
     inkscape:cx="164.18237"
     inkscape:cy="76.615761"
     inkscape:document-units="mm"
     inkscape:current-layer="layer1"
     showgrid="false"
     inkscape:window-width="3840"
     inkscape:window-height="2050"
     inkscape:window-x="-12"
     inkscape:window-y="-12"
     inkscape:window-maximized="1"
     fit-margin-top="0"
     fit-margin-left="0"
     fit-margin-right="0"
     fit-margin-bottom="0" />
  <metadata
     id="metadata5">
    <rdf:RDF>
      <cc:Work
         rdf:about="">
        <dc:format>image/svg+xml</dc:format>
        <dc:type
           rdf:resource="http://purl.org/dc/dcmitype/StillImage" />
        <dc:title></dc:title>
      </cc:Work>
    </rdf:RDF>
  </metadata>
  <g
     inkscape:label="Layer 1"
     inkscape:groupmode="layer"
     id="layer1"
     transform="translate(-33.162004,-80.570182)">
    <g
       id="svgg"
       transform="matrix(0.26458333,0,0,0.26458333,26.925361,70.237792)">
      <path
         style="fill:#eaafb7;fill-rule:evenodd;stroke:none"
         d="m 200,39.055 c -8.54394,-0.145947 -34.42363,4.398405 -11.5746,3.045469 27.07906,-0.09656 53.57004,8.717871 80.74789,6.070197 23.95906,1.196639 47.5122,6.144414 71.36591,8.382483 1.29653,15.946946 -28.17743,3.910299 -38.10724,11.824325 -26.85773,5.88887 -54.14134,9.213126 -81.15965,14.037274 -15.83936,7.244818 -36.43538,1.360738 -53.13057,2.564495 -74.840821,-13.592725 50.79483,63.529247 53.46044,111.051527 -8.91876,35.9152 2.5401,109.69724 6.88082,144.17401 -3.82676,6.49004 -31.33175,39.10151 -10.94296,25.58127 C 259.72377,335.966 301.55087,305.64641 343.573,275.6 c 8.74452,-27.01124 6.43965,-55.96452 12.61468,-83.50356 C 361.6651,150.86642 368.2285,109.77446 372.65207,68.40916 367.17605,51.086728 345.95414,53.655528 331.58456,53.880817 312.4685,52.579564 293.71619,47.85498 274.41969,46.909709 249.61022,44.31975 224.78019,41.918354 200,39.055 Z m -34.033,3.492 C 128.07773,45.014439 90.056468,48.724419 52.412025,52.268644 42.938019,48.953397 24.23539,57.964608 25.666182,61.813476 42.953076,46.063023 67.876315,56.446732 88.209296,49.954655 114.36277,47.213877 141.84453,49.611308 166.97306,44.239638 167.66912,43.619045 167.20051,41.86608 165.967,42.547 Z M 204.4,45.2 c 1.21635,2.229062 1.21635,-2.229062 0,0 z m 24.624,7.787 c -16.95698,8.778682 20.39066,22.225196 6.32375,5.166247 C 233.75455,55.955203 231.9079,53.467151 229.024,52.987 Z M 180,110.525 c 2.18101,2.04658 3.69228,3.4647 0,0 z m 17.273,268.721 c -7.11511,6.44568 7.18896,-4.90769 0,0 z"
         id="path4"
         inkscape:connector-curvature="0"
         sodipodi:nodetypes="ccccccccccccccccccccccccccccccc" />
      <path
         style="fill:#ea6494;fill-rule:evenodd;stroke:none"
         d="m 317,70.066 c -15.90334,6.624121 -36.48741,-1.843506 -49.84022,11.038897 -5.21709,12.793545 11.15431,23.871783 14.08176,36.650743 10.95997,25.38006 8.57965,54.06526 6.57626,80.96797 -3.46683,34.95344 -10.69262,70.22362 -5.24388,105.37309 18.70247,9.40571 40.46733,-15.39161 40.47263,-33.17477 -1.6913,-18.66846 -3.29415,-37.34559 0.3268,-55.90759 5.40262,-44.92138 16.28712,-90.52295 8.54523,-135.769037 C 330.4399,72.586936 323.94399,67.186645 317,70.066 Z"
         id="path0"
         inkscape:connector-curvature="0" />
      <path
         style="fill:#e49495;fill-rule:evenodd;stroke:none"
         d="m 196.905,39.087 c 2.61017,-0.0108 2.75715,-0.0114 0,0 z m -8.338,0.813 c 2.29388,2.509493 2.0406,-2.194192 0,0 z M 207,40 c 1.49594,2.928913 1.99964,-2.301497 0,0 z m 5.705,0.683 c 1.8293,-0.01561 1.23834,-0.01057 0,0 z m 6.4,0.4 c 1.8293,-0.01561 1.23834,-0.01057 0,0 z m 6.2,0.804 c 2.61017,-0.0108 2.75715,-0.0114 0,0 z m 17.82,1.798 c 3.97203,2.668506 2.53087,-1.819916 0,0 z m 13.375,1.391 c 1.78806,-0.01009 1.07503,-0.0061 0,0 z m 6.1,0.514 c 7.39879,2.870343 2.34486,-0.879137 0,0 z m 11.1,1.486 c 1.78806,-0.01009 1.07503,-0.0061 0,0 z m 4.909,0.633 c 2.30238,2.822679 1.61791,-2.293762 0,0 z m 38.991,4.275 c 2.17768,2.464001 1.91017,-2.478818 0,0 z m 28,12.827 c -24.14504,2.980611 -48.26815,6.315113 -72.1308,11.098309 18.20918,2.439533 37.33508,-13.024808 54.31003,-1.837683 11.67401,16.157249 4.37175,38.698754 6.13404,57.499214 -2.86378,49.21136 -18.19241,98.06228 -10.87929,147.49038 11.29253,12.91299 25.73805,-18.8198 21.72699,-30.35242 -3.79521,-27.73076 -0.34653,-55.66723 5.67994,-82.83117 4.26834,-21.00647 5.0712,-42.53309 12.26299,-62.90516 3.60466,-14.474082 12.17928,-45.214746 -13.26729,-37.966279 z m 26.833,6.789 c -3.98641,3.235934 2.34547,2.487171 0,0 z M 257.71,78.559 c -22.96623,2.825805 -45.0561,11.533727 -68.38612,11.546401 -18.05256,-8.779354 -27.85034,12.220659 -9.07248,20.509789 19.73138,18.31197 46.83559,32.42325 53.69105,60.69296 11.73754,37.93846 -1.27053,77.21546 -2.56006,115.6628 -1.91045,21.4739 -3.23916,43.02988 -2.89939,64.59805 19.1922,-11.29523 39.12508,-22.48545 54.04373,-39.37642 1.09297,-19.84423 -4.92712,-39.60664 -0.83504,-59.39994 3.94947,-45.2148 16.16644,-92.74828 -1.2634,-136.6922 C 273.97927,102.97488 267.64168,89.488161 257.71,78.559 Z M 364,130.6 c 0.87582,2.46751 0.87582,-2.46751 0,0 z m -7.946,61.867 c -2.46297,1.36978 1.76606,1.87019 0,0 z M 348.901,249 c 0.94536,2.03367 -0.555,-4.17559 0,0 z M 74.4,288.525 c 2.181006,2.04658 3.692282,3.46471 0,0 z m 239.63,3.669 c -10.99299,8.32039 10.68738,-7.46556 0,0 z m -7.126,5.129 c -8.47401,6.35219 9.44335,-5.46289 0,0 z m -5.104,3.683 c -3.59955,3.16674 4.97411,-3.58081 0,0 z m -8.024,5.623 c -9.91514,6.94308 6.23711,-3.47569 0,0 z m -5.832,4.194 c -0.59797,2.16928 4.32915,-5.09039 0,0 z"
         id="path3"
         inkscape:connector-curvature="0" />
      <path
         style="fill:#efd299;fill-rule:evenodd;stroke:none"
         d="m 53,53.2 c 1.804786,2.537599 1.747415,-2.806715 0,0 z m -16.4,2.054 c -20.190835,4.173186 -11.675615,27.847795 -8.627728,41.696554 6.976543,54.458366 13.04777,109.146206 20.351769,163.608996 11.787156,22.39625 36.30799,33.09001 52.942039,51.20091 24.28095,21.98403 50.58511,41.88323 74.01739,64.66423 17.98749,11.22138 40.45273,-3.86387 49.4293,-19.98104 9.33663,-21.04609 1.21207,-44.57995 6.22805,-66.46215 2.04666,-35.58817 11.38818,-71.30753 6.20372,-106.96227 -4.98726,-26.62939 -23.04082,-49.75157 -47.06261,-61.89884 C 174.89572,108.11555 167.39759,81.937835 143.97147,82.001777 115.57912,76.532804 87.377363,70.029482 59.123702,63.947036 51.32903,61.908956 43.560776,59.392462 36.6,55.254 Z"
         id="path1"
         inkscape:connector-curvature="0"
         sodipodi:nodetypes="cccccccccccccc" />
      <path
         style="fill:#f2d1ce;fill-rule:evenodd;stroke:none"
         d="m 169.483,41.85 c -21.28826,8.179572 -44.61828,2.520602 -66.631,6.87131 -25.884894,2.652612 -67.247698,2.363173 -67.009614,7.795381 18.63147,15.651294 48.72877,11.085585 70.470934,18.8673 34.6447,6.473885 72.90694,20.117992 108.23741,10.03477 36.69716,-7.338888 68.78033,-11.797586 105.48452,-19.098938 8.39544,4.272811 35.80491,-8.874883 15.03395,-11.326557 -29.66803,-0.637608 -54.03512,-9.877356 -89.78606,-7.968451 -23.15418,-4.638624 -45.95902,-6.268618 -69.63689,-4.445683 l -3.09146,-0.276996 z M 205.6,45.2 c -1.21635,2.229062 -1.21635,-2.229062 0,0 z m 165.701,36.2 c 0.94536,2.03368 -0.555,-4.175567 0,0 z M 176.985,257.044 c -16.17022,18.98798 -39.77626,36.09741 -41.9422,62.8771 39.78992,53.27289 35.16904,32.95787 47.71351,14.3245 7.90524,-21.25547 1.60532,-44.72119 3.85355,-66.71364 -0.47126,-4.29604 -2.95252,-17.45749 -9.62486,-10.48796 z m -69.614,59.308 c 1.44736,3.80595 2.11937,-4.0587 0,0 z M 148,351.751 c 0.80021,4.70587 8.11023,1.43087 0,0 z"
         id="path2"
         inkscape:connector-curvature="0"
         sodipodi:nodetypes="cccccccccccccccccccccccc" />
    </g>
  </g>
</svg>
