<?xml version="1.0" standalone="no"?>
<!DOCTYPE svg PUBLIC "-//W3C//DTD SVG 1.1//EN" "http://www.w3.org/Graphics/SVG/1.1/DTD/svg11.dtd" >
<svg xmlns="http://www.w3.org/2000/svg" xmlns:xlink="http://www.w3.org/1999/xlink" version="1.1">
<metadata></metadata>
<defs>
<font id="fabrikregular" horiz-adv-x="1163" >
<font-face units-per-em="2048" ascent="1638" descent="-410" />
<missing-glyph horiz-adv-x="512" />
<glyph horiz-adv-x="0" />
<glyph horiz-adv-x="682" />
<glyph unicode=" "  horiz-adv-x="512" />
<glyph unicode="&#x09;" horiz-adv-x="512" />
<glyph unicode="&#xa0;" horiz-adv-x="512" />
<glyph unicode="!" horiz-adv-x="645" d="M424 1434h-203l37 -1031h129zM322 -20q-58 0 -98 40t-40 99q0 57 40 97t98 40q57 0 98 -40t41 -97q0 -58 -41 -98.5t-98 -40.5z" />
<glyph unicode="&#x22;" horiz-adv-x="710" d="M236 883h-82q-48 284 -68 397q-14 80 19.5 123t89.5 43t89 -43t19 -123zM557 883h-82q-47 284 -67 397q-14 80 19 123t89 43t89.5 -43t19.5 -123z" />
<glyph unicode="#" horiz-adv-x="1290" d="M993 758l-71 -328h184v-143h-215l-62 -287h-163l61 287h-299l-61 -287h-162l61 287h-164v143h195l72 328h-185v143h215l62 287h162l-62 -287h299l62 287h163l-61 -287h164v-143h-195zM827 758h-299l-69 -328h299z" />
<glyph unicode="$" horiz-adv-x="1146" d="M1044 389q0 -168 -95.5 -279t-276.5 -135v-149h-144v145q-70 7 -135.5 34t-110.5 62t-84.5 78.5t-60.5 76t-35 61.5l150 69q58 -97 123 -153t153 -72l2 575l-84 48q-107 59 -176 139.5t-69 175.5q0 123 89 220t240 114l-2 147h144l-2 -151q51 -11 96 -35t73 -50.5 t49 -51.5t30 -42l8 -16l-140 -76q-3 9 -10.5 23t-37.5 45t-68 47v-436l84 -47q290 -161 290 -367zM530 883v368q-72 -11 -118.5 -56t-46.5 -118q0 -47 26 -85.5t49 -54.5t72 -44q7 -4 10 -6zM670 625v-500q87 21 147 83t60 159q0 40 -12 75t-28.5 58.5t-47 48t-52.5 38 t-59 34.5z" />
<glyph unicode="%" horiz-adv-x="1679" d="M1427 1434l-972 -1434h-185l973 1434h184zM430 727q-135 0 -226 90t-91 227t91.5 227.5t225.5 90.5q135 0 226.5 -90.5t91.5 -227.5t-91.5 -227t-226.5 -90zM430 885q69 0 113.5 45t44.5 114t-44.5 113.5t-113.5 44.5t-114.5 -44.5t-45.5 -113.5t45.5 -114t114.5 -45z M1270 72q-135 0 -226.5 90t-91.5 227t91.5 227.5t226.5 90.5q134 0 225.5 -90.5t91.5 -227.5t-91 -227t-226 -90zM1270 229q69 0 113 45.5t44 114.5t-44 113.5t-113 44.5t-114.5 -44.5t-45.5 -113.5t45.5 -114.5t114.5 -45.5z" />
<glyph unicode="&#x26;" horiz-adv-x="1286" d="M1122 608l144 -76q-72 -141 -193 -282l193 -250h-199l-106 137q-191 -162 -383 -162q-63 0 -121.5 14t-101 36t-79 48.5t-60.5 53t-41 48.5t-25 36l-7 14v287q49 74 116 127t184 127q13 8 20 12l-103 133q-39 50 -59.5 110.5t-21.5 121.5t20.5 119t62 102t108 71 t153.5 27q104 0 182.5 -27t122.5 -72t65 -97t21 -109q0 -123 -73.5 -217.5t-242.5 -204.5l275 -354q41 51 78 108t54 88zM631 1319q-78 0 -131.5 -48.5t-56.5 -120t55 -153.5l100 -131q135 89 185.5 145t50.5 142q0 66 -49 116t-154 50zM584 131q135 0 280 131l-303 389 l-51 -30q-88 -51 -195 -154v-223q105 -113 269 -113z" />
<glyph unicode="'" horiz-adv-x="389" d="M236 883h-82q-48 284 -68 397q-14 80 19.5 123t89.5 43t89 -43t19 -123z" />
<glyph unicode="(" horiz-adv-x="610" d="M610 -254l-108 -104l-22.5 22.5t-56 66.5t-79.5 109.5t-84 150.5t-79 191t-56 228.5t-23 265.5q0 136 22 265t57.5 227t78 185t85 147.5t78 104t57.5 64.5l22 21l108 -105q-7 -6 -19 -18.5t-46 -56t-65 -92.5t-69 -129.5t-65.5 -167t-46 -204t-18.5 -241.5 q0 -120 18 -235.5t47 -205.5t64.5 -170.5t70.5 -137.5t64 -98.5t47 -62.5z" />
<glyph unicode=")" horiz-adv-x="610" d="M109 -358l-109 104q7 7 19 20.5t46 61t65.5 100t69.5 136.5t65 171.5t46 204t19 236.5q0 124 -18 241t-47.5 205t-64.5 165.5t-70 131t-64.5 92t-47.5 56.5l-18 18l109 105q8 -7 22.5 -21t56 -63.5t79 -105.5t83.5 -146t79.5 -186.5t56 -226t22.5 -265.5q0 -135 -22 -265 t-57 -230t-77.5 -189.5t-85.5 -151.5t-78 -108t-57 -68z" />
<glyph unicode="*" horiz-adv-x="872" d="M547 1038l162 -207l-127 -92l-146 219l-147 -219l-127 95l164 206l-254 72l49 150l246 -91l-9 263h156l-8 -265l246 91l49 -150z" />
<glyph unicode="+" horiz-adv-x="1249" d="M1137 594h-430v-414h-164v414h-430v154h430v413h164v-413h430v-154z" />
<glyph unicode="," horiz-adv-x="565" d="M422 121q0 -138 -77 -217.5t-198 -79.5v67q64 0 113 41t49 91q-80 -14 -123 31t-43 106q0 54 41 91.5t88 37.5q65 0 107 -41t43 -127z" />
<glyph unicode="-" horiz-adv-x="921" d="M829 758v-174h-737v174h737z" />
<glyph unicode="." horiz-adv-x="563" d="M281 -20q-58 0 -98 40t-40 99q0 57 40 97t98 40q57 0 98 -40t41 -97q0 -58 -41 -98.5t-98 -40.5z" />
<glyph unicode="/" horiz-adv-x="886" d="M887 1485l-717 -1536h-170l717 1536h170z" />
<glyph unicode="0" horiz-adv-x="1189" d="M594 -31q-140 0 -253 82t-176 225t-63 318q0 176 63 319t176 224.5t253 81.5q141 0 253.5 -81.5t175 -224.5t62.5 -319q0 -175 -62.5 -318t-175 -225t-253.5 -82zM594 141q139 0 222 128t83 325t-83 325t-222 128q-138 0 -220.5 -127.5t-82.5 -325.5t82.5 -325.5 t220.5 -127.5z" />
<glyph unicode="1" horiz-adv-x="843" d="M829 160v-160h-737v160h291v680h-291v129q56 0 98 4t86.5 17t72.5 36.5t46.5 64t18.5 97.5h147v-1028h268z" />
<glyph unicode="2" horiz-adv-x="1056" d="M975 160v-160h-881v170l697 504v252q-77 118 -256 118q-59 0 -112 -21t-87 -51t-60 -60t-38 -51l-11 -21l-155 90q3 6 8 16.5t25.5 40.5t45.5 57t67 60.5t89.5 57.5t115.5 40.5t142 16.5q81 0 153 -24t117 -58t77.5 -68t46.5 -58l14 -24v-405l-602 -422h604z" />
<glyph unicode="3" horiz-adv-x="1069" d="M952 1026l-395 -377q48 11 98 3.5t97 -25t89 -53.5t73.5 -81.5t50 -110t18.5 -138.5q0 -129 -62.5 -234.5t-166.5 -164t-224 -58.5q-89 0 -169 30.5t-130.5 74t-88.5 87.5t-54 75l-16 30l129 100q4 -9 13 -24t39 -54t63.5 -68.5t88 -54t111.5 -24.5q121 0 205 84.5 t84 206.5q0 105 -70 188.5t-188 83.5q-55 0 -99.5 -14t-61.5 -28l-17 -13l-97 125l439 434h-557v162h798v-162z" />
<glyph unicode="4" horiz-adv-x="1140" d="M1102 160v-160h-215v-287h-178v287h-637v184l571 1004h244v-1028h215zM709 160v807l-457 -807h457z" />
<glyph unicode="5" horiz-adv-x="1058" d="M575 754q168 0 288 -132t120 -325q0 -222 -129.5 -366t-329.5 -144q-67 0 -127.5 16t-105 41t-82 55.5t-62.5 61.5t-42.5 56t-24.5 41l-8 16l149 88l11 -22t33.5 -49t58 -61.5t85.5 -48.5t115 -22q130 0 204.5 90.5t74.5 239.5q0 78 -21 137.5t-58 93t-82 50t-97 16.5 q-55 0 -102.5 -18t-76.5 -43t-52.5 -58.5t-34 -56.5t-17.5 -45l-6 -21h-133l61 844h697v-162h-533l-31 -377q97 105 258 105z" />
<glyph unicode="6" horiz-adv-x="1118" d="M901 1219h-149q-103 0 -194.5 -50t-153 -128t-97 -172t-35.5 -183l6 12q7 11 19 29t30.5 39.5t46.5 43.5t61.5 40t80.5 29.5t100 11.5q85 0 161.5 -30t136 -85t95 -142.5t35.5 -193.5q0 -92 -29.5 -175.5t-85.5 -150t-146 -106t-201 -39.5q-234 0 -357 185.5t-123 515.5 q0 107 28 209.5t85 192.5t136 158.5t187.5 108t233.5 39.5h129v-159zM584 141q122 0 200 84t78 205q0 131 -76 206t-194 75q-119 0 -196 -81t-77 -202q0 -122 72.5 -204.5t192.5 -82.5z" />
<glyph unicode="7" horiz-adv-x="860" d="M850 1188v-160q-432 -343 -496 -1028h-178q9 162 45 312.5t82 257.5t106 204t106 152t93 102h-598v160h840z" />
<glyph unicode="8" horiz-adv-x="1128" d="M803 791q9 -4 24.5 -13t54.5 -41t69 -69t54.5 -98.5t24.5 -129.5q0 -110 -40 -201t-106.5 -149t-149.5 -89.5t-173 -31.5t-173 31.5t-149.5 89.5t-106.5 149t-40 201q0 49 12.5 95t32.5 80.5t44.5 64t48.5 49.5t44 34.5t32 20.5l13 7q-6 4 -15.5 11t-34.5 32t-44.5 53.5 t-35 75.5t-15.5 98q0 141 107.5 241.5t279.5 100.5t279.5 -100.5t107.5 -241.5q0 -51 -15 -97.5t-36 -76.5t-42.5 -53t-36.5 -33zM561 868q96 0 158.5 54.5t62.5 138.5q0 79 -62.5 131.5t-158.5 52.5q-99 0 -162 -52.5t-63 -131.5q0 -84 63 -138.5t162 -54.5zM561 139 q131 0 211 80.5t80 210.5q0 67 -36.5 132.5t-105 110t-149.5 44.5t-149.5 -44.5t-105 -110t-36.5 -132.5q0 -130 80 -210.5t211 -80.5z" />
<glyph unicode="9" horiz-adv-x="1132" d="M266 -31h109q136 0 248.5 79.5t171.5 196t59 236.5l-6 -10q-7 -10 -19 -26.5t-30.5 -36t-46.5 -39t-61.5 -36t-80.5 -26.5t-100 -10q-85 0 -161.5 30t-136 85t-95 142.5t-35.5 193.5q0 92 30 175.5t86 150t146 106t201 39.5q155 0 264 -90t162 -246t53 -365 q0 -149 -45 -277.5t-128.5 -224.5t-211.5 -151t-285 -55h-88v159zM543 1047q-122 0 -200.5 -84t-78.5 -205q0 -131 76.5 -206t194.5 -75q119 0 195.5 81t76.5 202q0 122 -72 204.5t-192 82.5z" />
<glyph unicode=":" horiz-adv-x="583" d="M291 768q-58 0 -97.5 40t-39.5 99q0 57 39.5 97t97.5 40q57 0 98 -40t41 -97q0 -58 -41 -98.5t-98 -40.5zM291 -20q-58 0 -97.5 40t-39.5 99q0 57 39.5 97t97.5 40q57 0 98 -40t41 -97q0 -58 -41 -98.5t-98 -40.5z" />
<glyph unicode=";" horiz-adv-x="593" d="M291 768q-58 0 -97.5 40t-39.5 99q0 57 39.5 97t97.5 40q57 0 98 -40t41 -97q0 -58 -41 -98.5t-98 -40.5zM440 121q0 -138 -76.5 -217.5t-197.5 -79.5v67q64 0 113 41t49 91q-80 -14 -123 31t-43 106q0 54 41 91.5t88 37.5q65 0 106.5 -41t42.5 -127z" />
<glyph unicode="&#x3c;" horiz-adv-x="1126" d="M72 637l983 403v-190l-830 -320l830 -319v-191l-983 404v213z" />
<glyph unicode="=" horiz-adv-x="1249" d="M1116 954v-153h-983v153h983zM1116 545v-154h-983v154h983z" />
<glyph unicode="&#x3e;" horiz-adv-x="1126" d="M72 20v191l829 319l-829 320v190l983 -403v-213z" />
<glyph unicode="?" horiz-adv-x="923" d="M463 1464q162 0 275.5 -104t113.5 -254q0 -63 -15 -114.5t-40.5 -86.5t-56.5 -64t-65.5 -53t-65 -46t-58 -50.5t-41.5 -60.5v-230h-160v322q24 53 67 94t84.5 66t80 51.5t62.5 66t24 93.5q0 85 -52 140.5t-151 55.5q-44 0 -84 -20.5t-66.5 -50t-47 -59t-29.5 -50.5 l-9 -20l-157 86q64 134 164.5 211t226.5 77zM428 -20q-58 0 -97.5 40t-39.5 99q0 57 39.5 97t97.5 40q57 0 98 -40t41 -97q0 -58 -41 -98.5t-98 -40.5z" />
<glyph unicode="@" horiz-adv-x="1720" d="M1262 1053l-91 -627h265q49 106 49 262q0 271 -173 447t-440 176q-177 0 -317.5 -80t-219.5 -222t-79 -321q0 -181 79 -324.5t219.5 -223t317.5 -79.5q157 0 312 89l90 -140q-178 -102 -402 -102q-223 0 -401 100t-278.5 278.5t-100.5 401.5q0 166 59 310.5t161.5 246.5 t247.5 160.5t312 58.5q166 0 310.5 -58.5t247 -160.5t161 -246.5t58.5 -310.5q0 -204 -105 -399h-512l-24 63q-82 -69 -217 -69q-123 0 -224.5 106t-101.5 256q0 105 31 193t82.5 143.5t116 86t132.5 30.5q194 0 273 -125l10 80h152zM848 432q92 0 150.5 73t58.5 202 q0 36 -6 68.5t-20 63.5t-35.5 53.5t-54 36t-73.5 13.5q-97 0 -163 -74t-66 -202q0 -102 57 -168t152 -66z" />
<glyph unicode="A" horiz-adv-x="1294" d="M934 408h-574l-139 -408h-201l504 1434h246l504 -1434h-201zM874 582l-227 665l-227 -665h454z" />
<glyph unicode="B" horiz-adv-x="1239" d="M893 803q92 -28 151 -86t81 -123.5t22 -144.5q0 -156 -72 -268.5t-198 -180.5h-693v1434h523q160 0 269 -101.5t109 -257.5q0 -80 -49 -155t-143 -117zM369 1260v-377h338q63 0 123.5 44.5t60.5 127.5q0 93 -47.5 149t-136.5 56h-338zM369 174h440q57 31 100 101t43 159 q0 129 -85 206t-220 77h-278v-543z" />
<glyph unicode="C" horiz-adv-x="1402" d="M1157 455l164 -90q-3 -8 -10 -22.5t-32 -55.5t-54.5 -78.5t-79 -83t-105 -78.5t-133.5 -55.5t-162 -22.5q-177 0 -327.5 99.5t-238 272t-87.5 376.5q0 154 52 292.5t139.5 238t208 158t253.5 58.5q84 0 161 -22t132.5 -56.5t103.5 -77t79 -84.5t53 -76.5t32 -56.5l9 -22 l-164 -88q-2 6 -7 17t-23 42t-39 59t-56.5 62.5t-74.5 59.5t-93 42t-113 17q-140 0 -246.5 -81.5t-159 -208t-52.5 -273.5t52.5 -273.5t159 -208t246.5 -81.5q80 0 152 31t117.5 75t79.5 88.5t48 75.5z" />
<glyph unicode="D" horiz-adv-x="1366" d="M184 1434h389q143 0 271 -56.5t222 -154.5t149 -239t55 -302q0 -232 -108.5 -413t-289.5 -269h-688v1434zM369 174h434q45 24 87.5 62t86.5 98t71 151t27 197q0 116 -41.5 223.5t-110 185t-161 123.5t-189.5 46h-204v-1086z" />
<glyph unicode="E" horiz-adv-x="1212" d="M1085 174v-174h-901v1434h881v-174h-696v-445h594v-174h-594v-467h716z" />
<glyph unicode="F" horiz-adv-x="1107" d="M369 1260v-445h553v-174h-553v-641h-185v1434h860v-174h-675z" />
<glyph unicode="G" horiz-adv-x="1419" d="M680 733h614v-733h-137l-22 186q-63 -100 -170.5 -158.5t-227.5 -58.5q-142 0 -263.5 58.5t-204.5 159.5t-130 238t-47 292q0 208 79.5 378t228 269.5t337.5 99.5q86 0 163.5 -22t133 -56.5t103 -77t77.5 -84.5t51.5 -76.5t30.5 -56.5l9 -22l-164 -88q-2 6 -6 17t-20 42 t-35.5 59t-54 62.5t-73.5 59.5t-95.5 42t-119.5 17q-122 0 -226.5 -78t-164 -207.5t-59.5 -277.5t59.5 -277.5t164 -207.5t226.5 -78q121 0 213.5 57t139.5 148.5t47 199.5h-457v174z" />
<glyph unicode="H" horiz-adv-x="1454" d="M1270 1434v-1434h-185v641h-716v-641h-185v1434h185v-619h716v619h185z" />
<glyph unicode="I" horiz-adv-x="555" d="M371 1434v-1434h-187v1434h187z" />
<glyph unicode="J" horiz-adv-x="1142" d="M979 1434v-930q0 -146 -62.5 -268t-178 -194.5t-259.5 -72.5q-130 0 -247.5 67t-190.5 179v379h184v-291q32 -57 103 -103t170 -46q86 0 155 51t105.5 130.5t36.5 168.5v758h-488v172h672z" />
<glyph unicode="K" horiz-adv-x="1288" d="M1049 0l-387 606q-137 -96 -295 -172v-434h-183v1434h183v-795q387 214 553 463v332h184v-410q-136 -172 -295 -303l448 -721h-208z" />
<glyph unicode="L" horiz-adv-x="1136" d="M1085 174v-174h-901v1434h185v-1260h716z" />
<glyph unicode="M" horiz-adv-x="1609" d="M1485 1434v-1434h-182v1118l-394 -1118h-211l-393 1118v-1118h-182v1434h242l438 -1241l420 1241h262z" />
<glyph unicode="N" horiz-adv-x="1318" d="M1188 1434v-1434h-184l-697 1110v-1110h-184v1434h184l697 -1110v1110h184z" />
<glyph unicode="O" horiz-adv-x="1495" d="M748 -31q-180 0 -331 99.5t-238 271.5t-87 377q0 206 87 377.5t237.5 270.5t331.5 99q136 0 257.5 -58.5t208.5 -158t138 -238t51 -292.5t-51 -292t-138 -238t-208.5 -159t-257.5 -59zM748 154q102 0 190 48.5t146 128.5t91 180.5t33 205.5t-33 205.5t-91 180.5 t-146 128.5t-190 48.5t-190 -48.5t-146.5 -128.5t-91.5 -180.5t-33 -205.5t33 -205.5t91.5 -180.5t146.5 -128.5t190 -48.5z" />
<glyph unicode="P" horiz-adv-x="1210" d="M184 1434h451q140 0 258 -68.5t186 -186.5t68 -257q0 -156 -85.5 -284t-225.5 -187h-467v-451h-185v1434zM369 625h403q77 40 128.5 113.5t51.5 185.5q0 85 -34.5 160.5t-104 125.5t-158.5 50h-286v-635z" />
<glyph unicode="Q" horiz-adv-x="1503" d="M1161 133q30 -45 160 -45h43v-174h-84q-199 0 -268 117q-127 -62 -264 -62q-180 0 -331 99.5t-238 271.5t-87 377q0 206 87 377.5t237.5 270.5t331.5 99q136 0 257.5 -58.5t208.5 -158t138 -238t51 -292.5q0 -175 -64.5 -327t-177.5 -257zM287 717q0 -105 33 -205.5 t91.5 -180.5t146.5 -128.5t190 -48.5t190 48.5t146 128.5t91 180.5t33 205.5t-33 205.5t-91 180.5t-146 128.5t-190 48.5t-190 -48.5t-146.5 -128.5t-91.5 -180.5t-33 -205.5z" />
<glyph unicode="R" horiz-adv-x="1259" d="M711 498h-342v-498h-185v1434h451q141 0 258 -63.5t185.5 -176.5t68.5 -252q0 -117 -70 -233t-186 -174l274 -535h-202zM369 672h379q81 14 142.5 91t61.5 173q0 92 -49.5 168.5t-121.5 116t-146 39.5h-266v-588z" />
<glyph unicode="S" horiz-adv-x="1169" d="M952 1253l-164 -88q-3 5 -8 13t-24 28.5t-41 36t-58.5 28.5t-76.5 13q-87 0 -145 -44.5t-58 -115.5q0 -109 147 -192l242 -135q155 -85 232 -175.5t77 -213.5q0 -92 -33 -171t-94.5 -139t-158 -94.5t-216.5 -34.5q-88 0 -166.5 26.5t-131 63t-97.5 86t-67 84t-39 68.5 l164 88q85 -127 169 -179t205 -52q66 0 126.5 24t103.5 78t43 127q0 40 -11.5 74.5t-27.5 57t-45 46t-51 36.5t-59 34q-7 4 -11 6l-242 135q-262 148 -262 340q0 66 29.5 129t81.5 113t131.5 80t171.5 30q56 0 106.5 -11.5t86.5 -30t66 -41.5t49 -45.5t32 -41t18 -30.5z" />
<glyph unicode="T" horiz-adv-x="1105" d="M1081 1260h-438v-1260h-184v1260h-439v174h1061v-174z" />
<glyph unicode="U" horiz-adv-x="1392" d="M1229 1434v-850q0 -296 -142.5 -455.5t-390.5 -159.5t-390 159.5t-142 455.5v850h184v-850q0 -109 29.5 -194t79.5 -135t110.5 -75.5t128.5 -25.5t128.5 25.5t110.5 75.5t79.5 135t29.5 194v850h185z" />
<glyph unicode="V" horiz-adv-x="1208" d="M727 0h-246l-461 1434h209l375 -1223l373 1223h211z" />
<glyph unicode="W" horiz-adv-x="1781" d="M1368 0h-231l-246 1182l-246 -1182h-231l-383 1434h209l284 -1201l250 1201h234l249 -1201l285 1201h209z" />
<glyph unicode="X" horiz-adv-x="1239" d="M616 590l-366 -590h-230l488 754l-436 680h219l325 -521l326 521h219l-436 -680l487 -754h-229z" />
<glyph unicode="Y" horiz-adv-x="1150" d="M926 1434h196q-96 -456 -460 -824v-610h-185v614q-362 365 -457 820h197q33 -176 126 -343.5t228 -308.5q135 143 229 310t126 342z" />
<glyph unicode="Z" horiz-adv-x="1118" d="M1034 174v-174h-942v184l711 1076h-690v174h911v-185l-713 -1075h723z" />
<glyph unicode="[" horiz-adv-x="612" d="M338 1485v-1659h264v-133h-428v1925h428v-133h-264z" />
<glyph unicode="\" horiz-adv-x="886" d="M887 -51h-170l-717 1536h170z" />
<glyph unicode="]" horiz-adv-x="612" d="M438 1618v-1925h-428v133h264v1659h-264v133h428z" />
<glyph unicode="^" horiz-adv-x="1060" d="M645 1434l365 -697h-191l-289 543l-288 -543h-191l365 697h229z" />
<glyph unicode="_" horiz-adv-x="1085" d="M1055 0v-164h-1024v164h1024z" />
<glyph unicode="`" horiz-adv-x="507" d="M295 1393l141 -267h-129l-235 267h223z" />
<glyph unicode="a" horiz-adv-x="1099" d="M1028 154v-154h-61q-125 0 -183 104q-53 -62 -128 -98.5t-160 -36.5q-122 0 -206 42t-165 128v340q28 38 94.5 67t111 39t124.5 25q171 28 230.5 52t59.5 75q0 53 -63 100.5t-168 47.5q-52 0 -97 -16.5t-73 -39.5t-48.5 -46t-29.5 -39l-8 -17l-156 90q62 107 168 172.5 t230 65.5q190 0 302.5 -94t112.5 -261v-444q0 -43 30 -72.5t73 -29.5h10zM496 139q123 0 186 67t63 179v143q-38 -29 -108 -47.5t-133 -26.5t-126 -25t-91 -44v-154q52 -92 209 -92z" />
<glyph unicode="b" horiz-adv-x="1159" d="M629 1055q130 0 233 -72.5t159 -196t56 -274.5q0 -150 -56 -273.5t-159 -196.5t-233 -73q-180 0 -293 150l-21 -119h-151v1464h172v-551q113 142 293 142zM608 143q129 0 207 105.5t78 263.5q0 159 -78.5 264t-206.5 105t-200 -99t-72 -270q0 -186 66.5 -277.5 t205.5 -91.5z" />
<glyph unicode="c" horiz-adv-x="1034" d="M809 344l156 -90q-5 -12 -14.5 -31t-46 -68t-80 -86.5t-117 -68.5t-156.5 -31q-128 0 -236 72.5t-170.5 197.5t-62.5 273q0 149 62.5 274t170.5 197t236 72q60 0 115.5 -16t96 -41.5t75.5 -56.5t58 -61.5t39.5 -56t24.5 -41.5l7 -16l-156 -88q-3 8 -9.5 22t-29.5 49 t-50.5 61.5t-73.5 48.5t-97 22q-120 0 -202.5 -107t-82.5 -262q0 -154 82.5 -261.5t202.5 -107.5q50 0 95.5 20.5t73.5 50.5t49.5 59.5t30.5 50.5z" />
<glyph unicode="d" horiz-adv-x="1148" d="M995 1464v-1464h-151l-21 119q-113 -150 -293 -150q-130 0 -233 73t-159 196.5t-56 273.5q0 151 56 274.5t159 196t233 72.5q180 0 293 -142v551h172zM551 143q139 0 205.5 91.5t66.5 277.5q0 171 -72 270t-200 99t-206.5 -105t-78.5 -264q0 -158 78 -263.5t207 -105.5z " />
<glyph unicode="e" horiz-adv-x="1048" d="M813 238l133 -121q-5 -6 -14.5 -16t-42 -35.5t-69.5 -45t-96.5 -35.5t-123.5 -16q-141 0 -260.5 73t-188.5 198t-69 272q0 148 69 273t188.5 197.5t260.5 72.5q187 0 342 -142v-475h-676q23 -128 114 -214.5t220 -86.5q41 0 78 10.5t60.5 25.5t41.5 29.5t26 25.5z M600 887q-130 0 -220.5 -87.5t-113.5 -217.5h506v252q-53 53 -172 53z" />
<glyph unicode="f" horiz-adv-x="589" d="M547 1024v-164h-219v-860h-174v860h-113v164h113v123q0 59 13.5 111.5t42 97.5t79.5 71.5t119 26.5h98v-164h-51q-31 0 -53.5 -7.5t-36 -23t-21.5 -29.5t-11.5 -38.5t-4 -38t-0.5 -37.5v-92h219z" />
<glyph unicode="g" horiz-adv-x="1071" d="M979 870h-109q39 -76 39 -176q0 -174 -110.5 -266t-288.5 -92q-76 0 -133 14q-22 -23 -25.5 -47.5t10.5 -45t51 -33.5t91 -13h53q156 0 255.5 -31t160.5 -108v-351q-136 -161 -453 -161q-184 0 -306 99t-122 243q0 45 15.5 86t37.5 66.5t44 44.5t37 27l16 9 q-44 39 -54.5 90t8.5 97t60 81q-143 93 -143 291q0 175 109.5 268t287.5 93q100 0 182 -31h287v-154zM510 485q101 0 169.5 57.5t68.5 151.5q0 96 -68.5 153.5t-169.5 57.5q-100 0 -168 -57.5t-68 -153.5q0 -94 68 -151.5t168 -57.5zM360 74q-4 -1 -10.5 -4t-23.5 -14 t-30 -25t-23.5 -38.5t-10.5 -53.5q0 -28 6 -54.5t25 -58.5t50 -55t87.5 -38.5t130.5 -15.5q149 0 244 76v215q-97 51 -248 51q-78 0 -127.5 3.5t-59.5 7.5z" />
<glyph unicode="h" horiz-adv-x="1126" d="M643 1055q216 0 340 -183v-872h-174v799q-63 82 -205 82q-57 0 -103 -20.5t-76 -52.5t-50 -74.5t-28.5 -85t-8.5 -85.5v-563h-174v1464h174v-567q96 158 305 158z" />
<glyph unicode="i" horiz-adv-x="522" d="M262 1208q-58 0 -98.5 40.5t-40.5 99.5q0 57 40.5 97t98.5 40q57 0 97 -40t40 -97q0 -58 -40 -99t-97 -41zM348 1024h-174v-1024h174v1024z" />
<glyph unicode="j" horiz-adv-x="495" d="M233 1485q57 0 98.5 -40t41.5 -97q0 -58 -41.5 -99t-98.5 -41q-58 0 -97.5 40.5t-39.5 99.5q0 57 39.5 97t97.5 40zM147 1024h175v-1126q0 -59 -13.5 -111.5t-42 -98t-79.5 -72t-119 -26.5h-99v164h51q31 0 53.5 7.5t36 23t21.5 29.5t11.5 38.5t4 38t0.5 37.5v1096z" />
<glyph unicode="k" horiz-adv-x="1046" d="M844 0l-256 438q-115 -59 -252 -90v-348h-172v1464h172v-950q234 56 385 236v274h170v-348q-68 -77 -154 -144l289 -532h-182z" />
<glyph unicode="l" horiz-adv-x="645" d="M516 164v-164h-98q-68 0 -119 26.5t-79.5 71.5t-42 97.5t-13.5 111.5v1157h174v-1126q0 -24 0.5 -37.5t4 -38t11.5 -38.5t21.5 -29.5t36 -23t53.5 -7.5h51z" />
<glyph unicode="m" horiz-adv-x="1605" d="M1155 1055q100 0 179.5 -49.5t125.5 -133.5v-872h-170v788q-54 93 -176 93q-111 0 -164 -74t-53 -193v-614h-174v801q-56 80 -174 80q-96 0 -155.5 -80t-59.5 -228v-573h-170v1024h149l21 -109q95 140 276 140q78 0 145.5 -34.5t112.5 -94.5q100 129 287 129z" />
<glyph unicode="n" horiz-adv-x="1128" d="M643 1055q216 0 340 -183v-872h-174v799q-63 82 -205 82q-57 0 -103 -20.5t-76 -52.5t-50 -74.5t-28.5 -85t-8.5 -85.5v-563h-174v1024h153l21 -127q96 158 305 158z" />
<glyph unicode="o" d="M582 -31q-96 0 -187.5 43t-160 115t-110.5 173.5t-42 211.5q0 111 42 212.5t110.5 173.5t160 114.5t187.5 42.5t187.5 -42.5t160 -114.5t110 -173.5t41.5 -212.5q0 -110 -41.5 -211.5t-110 -173.5t-160 -115t-187.5 -43zM582 143q126 0 220.5 108.5t94.5 260.5 q0 153 -94.5 261t-220.5 108t-221 -108t-95 -261q0 -152 95 -260.5t221 -108.5z" />
<glyph unicode="p" horiz-adv-x="1159" d="M629 1055q130 0 233 -73t159 -196.5t56 -273.5q0 -151 -56 -274.5t-159 -196t-233 -72.5q-180 0 -293 142v-521h-172v1434h151l21 -119q113 150 293 150zM608 143q128 0 206.5 105t78.5 264q0 158 -78 263.5t-207 105.5q-139 0 -205.5 -91.5t-66.5 -277.5q0 -171 72 -270 t200 -99z" />
<glyph unicode="q" horiz-adv-x="1138" d="M995 1024v-1434h-172v521q-113 -142 -293 -142q-130 0 -233 72.5t-159 196t-56 274.5q0 150 56 273.5t159 196.5t233 73q180 0 293 -150l21 119h151zM551 143q128 0 200 99t72 270q0 186 -66.5 277.5t-205.5 91.5q-129 0 -207 -105.5t-78 -263.5q0 -159 78.5 -264 t206.5 -105z" />
<glyph unicode="r" horiz-adv-x="741" d="M698 1024v-166h-47q-150 0 -234.5 -87t-84.5 -239v-532h-168v1024h147l21 -147q99 147 268 147h98z" />
<glyph unicode="s" horiz-adv-x="888" d="M766 834l-139 -68q-2 5 -6 13t-19.5 28.5t-34.5 36t-52 28.5t-71 13q-73 0 -112 -34t-39 -95q0 -52 28 -79t78 -46l189 -76q219 -90 219 -283q0 -146 -98 -224.5t-254 -78.5q-77 0 -144.5 24.5t-109.5 59.5t-72.5 70t-43.5 59l-13 25l149 74q3 -6 8.5 -16.5t26 -36.5 t46 -46t69 -36.5t92.5 -16.5q78 0 126 35t48 88t-30.5 91t-123.5 75l-155 61q-209 85 -209 275q0 117 86 209t233 92q71 0 130.5 -23t94.5 -55.5t59.5 -64.5t33.5 -55z" />
<glyph unicode="t" horiz-adv-x="645" d="M328 860v-522q0 -24 0.5 -37.5t4 -38t11.5 -38.5t21.5 -29.5t36 -23t53.5 -7.5h51v-164h-98q-68 0 -119 26.5t-79.5 71.5t-42 97.5t-13.5 111.5v553h-113v164h29q55 0 75.5 24t20.5 80v183h162v-287h219v-164h-219z" />
<glyph unicode="u" d="M1008 1024v-1024h-150l-20 115q-101 -146 -279 -146q-92 0 -170 31.5t-128.5 83.5t-78.5 118t-28 136v686h176v-625q0 -33 5 -64.5t21 -67.5t41.5 -62.5t71 -44t104.5 -17.5q188 0 265 154v727h170z" />
<glyph unicode="v" horiz-adv-x="1054" d="M629 0h-205l-404 1024h195l311 -827l312 827h194z" />
<glyph unicode="w" horiz-adv-x="1458" d="M1096 0h-158l-209 729l-207 -729h-157l-334 1024h182l236 -756l198 756h162l201 -756l235 756h182z" />
<glyph unicode="x" horiz-adv-x="964" d="M483 401l-256 -401h-207l355 526l-334 498h203l239 -373l238 373h203l-334 -498l354 -526h-203z" />
<glyph unicode="y" horiz-adv-x="1009" d="M801 1024h188q-53 -168 -350 -1065q-32 -97 -70.5 -166t-75 -107.5t-82.5 -60.5t-84 -28.5t-89 -6.5h-99v154h47q117 0 176 59.5t109 196.5l-451 1024h197l332 -801z" />
<glyph unicode="z" horiz-adv-x="1026" d="M942 0h-860v170l625 692h-584v162h799v-170l-625 -692h645v-162z" />
<glyph unicode="{" horiz-adv-x="622" d="M612 1495h-69q-32 0 -57.5 -6t-41.5 -16t-27.5 -24t-16.5 -30t-8.5 -33.5t-3 -35t0.5 -33.5v-17v-419q0 -175 -135 -226q135 -51 135 -225v-420q0 -78 6 -103q22 -91 148 -91h69v-123h-147q-110 0 -167.5 77.5t-57.5 209.5v419q0 82 -20 122q-34 71 -134 83v103 q37 5 65 16.5t44 30.5t26 36t13.5 42t4.5 38t1 35v6v420q0 131 57.5 209t167.5 78h147v-123z" />
<glyph unicode="|" horiz-adv-x="522" d="M338 1638v-1966h-154v1966h154z" />
<glyph unicode="}" horiz-adv-x="622" d="M383 1331v-420q0 -82 20 -122q36 -69 134 -82v-103q-44 -6 -75 -23.5t-46 -36.5t-23 -49.5t-9 -47t-1 -42.5v-6v-419q0 -132 -57.5 -209.5t-167.5 -77.5h-148v123h70q25 0 45.5 4t35 8.5t26.5 15t19.5 17.5t13 23t8 23.5t4 26.5t1.5 25.5v26.5v24v420q0 174 136 225 q-136 51 -136 226v419q0 78 -5 101q-23 93 -148 94h-70v123h148q110 0 167.5 -78t57.5 -209z" />
<glyph unicode="~" horiz-adv-x="1189" d="M176 563l-104 76q5 7 14 18.5t41 41t68 52.5t95 41.5t122 18.5q55 0 109.5 -18.5t92 -40t88 -40t97.5 -18.5q34 0 69 10t60 24t45.5 28.5t30.5 24.5l10 10l104 -78q-5 -7 -14 -18.5t-41 -41t-68 -52.5t-95 -41.5t-122 -18.5q-55 0 -109.5 18t-92 40t-88 40t-97.5 18 q-55 0 -108.5 -23.5t-80.5 -47.5z" />
<glyph unicode="&#xa1;" horiz-adv-x="583" d="M291 1454q57 0 98 -40.5t41 -98.5q0 -57 -41 -97t-98 -40q-58 0 -97.5 40t-39.5 97q0 59 39.5 99t97.5 40zM227 1030l-37 -1030h203l-37 1030h-129z" />
<glyph unicode="&#xa2;" horiz-adv-x="1075" d="M616 1067l2 -762q43 10 81.5 34.5t63 53t43 55.5t26.5 44l8 18l131 -78q-5 -10 -13.5 -26.5t-41 -59.5t-70 -78t-99 -68t-129.5 -42v-158h-143v164q-162 35 -267.5 184t-105.5 338q0 191 105.5 339t267.5 183v164h143l-2 -158q68 -9 130 -41t101.5 -71.5t69.5 -77 t43 -62.5l13 -26l-133 -76q-3 7 -8.5 19t-26 43.5t-44 57.5t-63 51.5t-82.5 35.5zM262 686q0 -128 58 -232t155 -139v742q-97 -35 -155 -139t-58 -232z" />
<glyph unicode="&#xa3;" horiz-adv-x="1161" d="M1110 338v-88q0 -81 -41.5 -139.5t-102.5 -84.5t-132 -26h-701v164q11 7 28.5 21t62 57.5t79 87.5t62.5 108.5t28 124.5q0 21 -4 53h-256v134h197q-4 7 -21.5 32.5t-23.5 36t-20 34.5t-20 41t-14 41.5t-11 50.5t-3 54q0 61 30 124t84 117t141 88t190 34q59 0 113 -13.5 t92 -35.5t70.5 -48.5t53.5 -53t35.5 -48.5t20.5 -36l6 -13l-140 -76q-2 7 -7 18t-25.5 39.5t-46 50.5t-71.5 40t-101 18q-126 0 -200.5 -61t-74.5 -164q0 -50 18 -92t55 -96t52 -82h403v-134h-362q4 -32 4 -53q0 -68 -24 -135.5t-57.5 -114.5t-67.5 -84.5t-58 -56.5l-24 -18 h479q55 0 89 10.5t49 33t19.5 43.5t4.5 54v43h143z" />
<glyph unicode="&#xa4;" horiz-adv-x="1200" d="M1085 512q0 -156 -94 -291l117 -117l-100 -102l-113 117q-135 -109 -295 -109t-295 109l-112 -117l-101 102l117 117q-94 135 -94 291q0 160 94 291l-117 117l101 102l112 -117q135 109 295 109t295 -109l113 117l100 -102l-117 -117q94 -131 94 -291zM600 160 q132 0 228 103t96 249q0 149 -96 250.5t-228 101.5t-228 -101.5t-96 -250.5q0 -146 96 -249t228 -103z" />
<glyph unicode="&#xa5;" d="M940 1372h172q-73 -349 -324 -653h236v-133h-373v-195h373v-133h-373v-258h-143v258h-373v133h373v195h-373v133h240q-251 303 -324 653h172q33 -179 128 -351t231 -312q135 141 230 313t128 350z" />
<glyph unicode="&#xa6;" horiz-adv-x="522" d="M338 1638v-819h-154v819h154zM338 492v-820h-154v820h154z" />
<glyph unicode="&#xa7;" horiz-adv-x="1251" d="M885 256q94 -60 143 -133t49 -182q0 -165 -128.5 -273t-323.5 -108q-306 0 -451 297l150 82q4 -8 12 -22t36 -49t60.5 -61.5t85 -48.5t109.5 -22q127 0 196.5 55t69.5 160q0 43 -13 76.5t-41 60t-52.5 42.5t-67.5 40l-219 123q-234 130 -234 301q0 97 57.5 156t176.5 94 l-2 2q-100 58 -166 139.5t-66 177.5q0 56 20 107t61.5 96t116 71.5t173.5 26.5q79 0 148.5 -26t111.5 -63t73 -74t44 -63l12 -26l-147 -77q-3 7 -9.5 18t-29 39.5t-47 50t-64 39.5t-80.5 18q-79 0 -136.5 -37t-57.5 -114q0 -33 13 -59.5t62 -66.5t140 -91l186 -105 q92 -50 155.5 -136.5t63.5 -180.5q0 -90 -51.5 -157t-138.5 -97zM455 596q0 -64 42.5 -105t168.5 -112l86 -47q64 20 102.5 64.5t38.5 109.5q0 34 -10 63t-24.5 49.5t-40.5 41.5t-46.5 33.5t-54.5 31.5l-80 45q-79 -20 -130.5 -66t-51.5 -108z" />
<glyph unicode="&#xa8;" horiz-adv-x="745" d="M188 1171q-50 0 -83 34t-33 85q0 48 33.5 82.5t82.5 34.5t84 -34.5t35 -82.5q0 -51 -34.5 -85t-84.5 -34zM555 1171q-50 0 -83.5 34t-33.5 85q0 48 34 82.5t83 34.5t84 -34.5t35 -82.5q0 -51 -34.5 -85t-84.5 -34z" />
<glyph unicode="&#xa9;" horiz-adv-x="1679" d="M840 -31q-209 0 -380.5 98t-269.5 269.5t-98 380.5q0 156 57.5 294.5t157 237.5t238.5 157t295 58t295 -58t238 -157t156.5 -237.5t57.5 -294.5q0 -157 -57.5 -295.5t-156.5 -238t-238 -157t-295 -57.5zM840 117q121 0 231 47.5t188.5 128.5t124.5 191.5t46 232.5 t-46 232.5t-124.5 191.5t-188.5 128.5t-231 47.5t-231 -47.5t-188.5 -128.5t-124.5 -191.5t-46 -232.5t46 -232.5t124.5 -191.5t188.5 -128.5t231 -47.5zM1044 584l136 -74q-4 -10 -11.5 -25.5t-36.5 -56t-64.5 -71t-96.5 -56t-131 -25.5q-106 0 -194 59t-138.5 160.5 t-50.5 221.5q0 185 111 312.5t272 127.5q51 0 97 -13t79 -33.5t61 -45.5t46 -49.5t31 -45t18 -33.5l6 -13l-140 -70q-2 6 -6.5 17t-21.5 38t-37.5 48t-56 38t-76.5 17q-97 0 -161.5 -85.5t-64.5 -209.5q0 -122 64.5 -206.5t161.5 -84.5q42 0 78.5 16.5t58.5 39.5t38 46 t23 40z" />
<glyph unicode="&#xab;" horiz-adv-x="974" d="M432 1075l121 -119l-289 -323l289 -324l-121 -119l-371 443zM813 1075l121 -119l-289 -323l289 -324l-121 -119l-371 443z" />
<glyph unicode="&#xac;" horiz-adv-x="1208" d="M1075 963v-625h-160v475h-823v150h983z" />
<glyph unicode="&#xad;" horiz-adv-x="921" d="M829 758v-174h-737v174h737z" />
<glyph unicode="&#xae;" horiz-adv-x="1679" d="M840 -31q-209 0 -380.5 98t-269.5 269.5t-98 380.5q0 156 57.5 294.5t157 237.5t238.5 157t295 58t295 -58t238 -157t156.5 -237.5t57.5 -294.5q0 -157 -57.5 -295.5t-156.5 -238t-238 -157t-295 -57.5zM840 117q121 0 231 47.5t188.5 128.5t124.5 191.5t46 232.5 t-46 232.5t-124.5 191.5t-188.5 128.5t-231 47.5t-231 -47.5t-188.5 -128.5t-124.5 -191.5t-46 -232.5t46 -232.5t124.5 -191.5t188.5 -128.5t231 -47.5zM731 596v-281h-141v822h262q123 0 208 -85.5t85 -207.5q0 -65 -39 -127.5t-105 -95.5l158 -306h-158l-139 281h-131z M739 735h209q28 23 42 48t14 69q0 67 -41.5 107t-102.5 40h-121v-264z" />
<glyph unicode="&#xaf;" horiz-adv-x="727" d="M655 1434v-144h-583v144h583z" />
<glyph unicode="&#xb0;" horiz-adv-x="737" d="M369 727q-135 0 -226.5 90t-91.5 227t91.5 227.5t226.5 90.5q134 0 225.5 -90.5t91.5 -227.5t-91 -227t-226 -90zM369 885q69 0 113 45t44 114t-44 113.5t-113 44.5t-114.5 -44.5t-45.5 -113.5t45.5 -114t114.5 -45z" />
<glyph unicode="&#xb1;" horiz-adv-x="1290" d="M1157 850v-154h-428v-311h-164v311h-432v154h432v311h164v-311h428zM154 246h983v-154h-983v154z" />
<glyph unicode="&#xb4;" horiz-adv-x="507" d="M201 1126h-129l141 267h223z" />
<glyph unicode="&#xb6;" horiz-adv-x="1185" d="M1135 1286h-164v-1696h-150v1696h-172v-1696h-153v1072q-82 0 -157.5 25.5t-135 73t-95.5 122.5t-36 166q0 120 62 209.5t157 132.5t205 43h639v-148z" />
<glyph unicode="&#xb7;" horiz-adv-x="563" d="M281 567q-58 0 -98 40.5t-40 99.5q0 57 40 97t98 40q57 0 98 -40t41 -97q0 -58 -41 -99t-98 -41z" />
<glyph unicode="&#xb8;" horiz-adv-x="610" d="M414 59l-123 -143q10 10 32.5 13.5t50 0t57 -16.5t53.5 -33.5t39.5 -54t15.5 -73.5q0 -82 -69 -137t-165 -55q-48 0 -90 14.5t-67 35.5t-43 42.5t-25 35.5l-8 15l102 59q23 -41 56 -63t63.5 -24t58 7t44 28t16.5 40q0 37 -30.5 59t-73.5 18t-75 -34l-110 74l123 192h168z " />
<glyph unicode="&#xba;" horiz-adv-x="1105" d="M553 358q-182 0 -306 122t-124 308t124 308.5t306 122.5q183 0 306.5 -122.5t123.5 -308.5t-123.5 -308t-306.5 -122zM553 522q113 0 184.5 77t71.5 192q0 114 -71.5 189t-184.5 75q-112 0 -184 -75.5t-72 -188.5q0 -115 72 -192t184 -77zM963 164v-164h-820v164h820z " />
<glyph unicode="&#xbb;" horiz-adv-x="974" d="M162 190l-121 119l289 324l-289 323l121 119l370 -442zM543 190l-121 119l289 324l-289 323l121 119l370 -442z" />
<glyph unicode="&#xbf;" horiz-adv-x="923" d="M465 1055q58 0 97.5 -40.5t39.5 -99.5q0 -57 -39.5 -97t-97.5 -40q-57 0 -98 40t-41 97q0 58 41 99t98 41zM430 -430q-162 0 -275.5 104t-113.5 254q0 63 15 114.5t40.5 86.5t56.5 64t65.5 53t65 46t58 50.5t41.5 60.5v230h160v-322q-21 -45 -55 -81.5t-68 -58 t-69.5 -45.5t-63 -46t-45 -57.5t-17.5 -81.5q0 -85 52 -141t151 -56q44 0 84 20.5t66.5 50t47 59.5t29.5 50l9 21l157 -86q-64 -134 -164.5 -211.5t-226.5 -77.5z" />
<glyph unicode="&#xc0;" horiz-adv-x="1294" d="M588 1577l-256 225h256l162 -225h-162zM934 408h-574l-139 -408h-201l504 1434h246l504 -1434h-201zM874 582l-227 665l-227 -665h454z" />
<glyph unicode="&#xc1;" horiz-adv-x="1294" d="M707 1577h-162l162 225h256zM934 408h-574l-139 -408h-201l504 1434h246l504 -1434h-201zM874 582l-227 665l-227 -665h454z" />
<glyph unicode="&#xc2;" horiz-adv-x="1294" d="M508 1536h-195l252 266h166l254 -266h-194l-142 156zM934 408h-574l-139 -408h-201l504 1434h246l504 -1434h-201zM874 582l-227 665l-227 -665h454z" />
<glyph unicode="&#xc3;" horiz-adv-x="1294" d="M516 1663q-40 0 -68.5 -22.5t-37.5 -44.5l-9 -23h-129q0 5 1.5 13.5t8 33.5t16 47.5t28.5 50t42.5 47.5t61 33.5t82.5 13.5q60 0 107.5 -22.5t84 -45t68.5 -22.5q41 0 69.5 22.5t36.5 45.5l9 22h129q0 -5 -1.5 -13.5t-8 -33.5t-16 -47.5t-28.5 -50t-42.5 -47.5t-61 -33.5 t-82.5 -13.5q-60 0 -107.5 22.5t-84 45t-68.5 22.5zM934 408h-574l-139 -408h-201l504 1434h246l504 -1434h-201zM874 582l-227 665l-227 -665h454z" />
<glyph unicode="&#xc4;" horiz-adv-x="1294" d="M463 1571q-50 0 -83.5 34t-33.5 85q0 48 34 82t83 34t84 -34.5t35 -81.5q0 -51 -34.5 -85t-84.5 -34zM829 1571q-50 0 -83 34t-33 85q0 48 33.5 82t82.5 34t84 -34.5t35 -81.5q0 -51 -34.5 -85t-84.5 -34zM934 408h-574l-139 -408h-201l504 1434h246l504 -1434h-201z M874 582l-227 665l-227 -665h454z" />
<glyph unicode="&#xc5;" horiz-adv-x="1294" d="M934 408h-574l-139 -408h-201l474 1343q-84 74 -84 189q0 106 70.5 176t174.5 70t175 -70t71 -176q0 -126 -96 -199l469 -1333h-201zM655 1628q-43 0 -70.5 -26.5t-27.5 -69.5t27.5 -70.5t70.5 -27.5t70 27.5t27 70.5t-27 69.5t-70 26.5zM874 582l-227 665l-227 -665h454 z" />
<glyph unicode="&#xc6;" horiz-adv-x="2041" d="M1919 174v-174h-901v408h-543l-260 -408h-205l893 1434h995v-174h-696v-445h594v-174h-594v-467h717zM1018 582v682l-432 -682h432z" />
<glyph unicode="&#xc7;" horiz-adv-x="1402" d="M1157 455l164 -90q-3 -7 -9 -20t-27.5 -50t-47.5 -71.5t-69 -78t-91 -76.5t-115.5 -60t-140.5 -36l-69 -79q16 16 55 15.5t80.5 -16.5t73.5 -59t32 -102q0 -82 -69 -137.5t-164 -55.5q-48 0 -90 15t-67 36t-43.5 42t-25.5 36l-8 15l109 61q23 -41 54 -63.5t59.5 -24.5 t53 6.5t39.5 27.5t15 40q0 37 -28 57.5t-68 15t-72 -35.5l-110 79l81 129q-241 36 -404 246.5t-163 495.5q0 154 52 292.5t139.5 238t208 158t253.5 58.5q84 0 161 -22t132.5 -56.5t103.5 -77t79 -84.5t53 -76.5t32 -56.5l9 -22l-164 -88q-2 6 -7 17t-23 42t-39 59 t-56.5 62.5t-74.5 59.5t-93 42t-113 17q-140 0 -246.5 -81.5t-159 -208t-52.5 -273.5t52.5 -273.5t159 -208t246.5 -81.5q80 0 152 31t117.5 75t79.5 88.5t48 75.5z" />
<glyph unicode="&#xc8;" horiz-adv-x="1208" d="M592 1577l-256 225h256l162 -225h-162zM1085 174v-174h-901v1434h881v-174h-696v-445h594v-174h-594v-467h716z" />
<glyph unicode="&#xc9;" horiz-adv-x="1208" d="M686 1577h-162l162 225h256zM1085 174v-174h-901v1434h881v-174h-696v-445h594v-174h-594v-467h716z" />
<glyph unicode="&#xca;" horiz-adv-x="1208" d="M483 1536h-194l252 266h166l254 -266h-195l-141 156zM1085 174v-174h-901v1434h881v-174h-696v-445h594v-174h-594v-467h716z" />
<glyph unicode="&#xcb;" horiz-adv-x="1208" d="M440 1571q-50 0 -83 34t-33 85q0 48 33.5 82t82.5 34t84 -34.5t35 -81.5q0 -51 -34.5 -85t-84.5 -34zM807 1571q-50 0 -83.5 34t-33.5 85q0 48 34 82t83 34t84 -34.5t35 -81.5q0 -51 -34.5 -85t-84.5 -34zM1085 174v-174h-901v1434h881v-174h-696v-445h594v-174h-594 v-467h716z" />
<glyph unicode="&#xcc;" horiz-adv-x="704" d="M348 1802l162 -225h-162l-256 225h256zM520 1434v-1434h-186v1434h186z" />
<glyph unicode="&#xcd;" horiz-adv-x="704" d="M356 1577h-161l161 225h256zM371 1434v-1434h-187v1434h187z" />
<glyph unicode="&#xce;" horiz-adv-x="528" d="M610 1536h-194l-142 156l-141 -156h-194l251 266h166zM369 1434v-1434h-187v1434h187z" />
<glyph unicode="&#xcf;" horiz-adv-x="604" d="M137 1571q-50 0 -83.5 34t-33.5 85q0 48 34 82t83 34t84 -34.5t35 -81.5q0 -51 -34.5 -85t-84.5 -34zM465 1571q-50 0 -83.5 34t-33.5 85q0 48 34 82t83 34t84 -34.5t35 -81.5q0 -51 -34.5 -85t-84.5 -34zM395 1434v-1434h-186v1434h186z" />
<glyph unicode="&#xd0;" horiz-adv-x="1400" d="M223 1434h389q143 0 271 -56.5t222 -154.5t149 -239t55 -302q0 -232 -108.5 -413t-289.5 -269h-688v655h-182v174h182v605zM408 174h434q45 24 87.5 62t86.5 98t71 151t27 197q0 116 -41.5 223.5t-110 185t-161 123.5t-189.5 46h-204v-431h243v-174h-243v-481z" />
<glyph unicode="&#xd1;" horiz-adv-x="1433" d="M582 1663q-40 0 -68.5 -22.5t-37.5 -44.5l-9 -23h-129q0 5 1.5 13.5t8 33.5t16 47.5t28.5 50t42.5 47.5t61 33.5t82.5 13.5q60 0 107.5 -22.5t84 -45t68.5 -22.5q26 0 47 9.5t33 22.5t20 26t11 22l3 10h129q0 -5 -1.5 -13.5t-8 -33.5t-15.5 -47.5t-28 -50t-43 -47.5 t-61 -33.5t-82 -13.5q-60 0 -107.5 22.5t-84 45t-68.5 22.5zM1249 1434v-1434h-184l-696 1110v-1110h-185v1434h185l696 -1110v1110h184z" />
<glyph unicode="&#xd2;" horiz-adv-x="1495" d="M692 1802l162 -225h-162l-256 225h256zM748 -31q-180 0 -331 99.5t-238 271.5t-87 377q0 206 87 377.5t237.5 270.5t331.5 99q136 0 257.5 -58.5t208.5 -158t138 -238t51 -292.5t-51 -292t-138 -238t-208.5 -159t-257.5 -59zM748 154q102 0 190 48.5t146 128.5t91 180.5 t33 205.5t-33 205.5t-91 180.5t-146 128.5t-190 48.5t-190 -48.5t-146.5 -128.5t-91.5 -180.5t-33 -205.5t33 -205.5t91.5 -180.5t146.5 -128.5t190 -48.5z" />
<glyph unicode="&#xd3;" horiz-adv-x="1495" d="M803 1577h-162l162 225h256zM748 -31q-180 0 -331 99.5t-238 271.5t-87 377q0 206 87 377.5t237.5 270.5t331.5 99q136 0 257.5 -58.5t208.5 -158t138 -238t51 -292.5t-51 -292t-138 -238t-208.5 -159t-257.5 -59zM748 154q102 0 190 48.5t146 128.5t91 180.5t33 205.5 t-33 205.5t-91 180.5t-146 128.5t-190 48.5t-190 -48.5t-146.5 -128.5t-91.5 -180.5t-33 -205.5t33 -205.5t91.5 -180.5t146.5 -128.5t190 -48.5z" />
<glyph unicode="&#xd4;" horiz-adv-x="1495" d="M1083 1536h-194l-141 156l-142 -156h-194l252 266h165zM748 -31q-180 0 -331 99.5t-238 271.5t-87 377q0 206 87 377.5t237.5 270.5t331.5 99q136 0 257.5 -58.5t208.5 -158t138 -238t51 -292.5t-51 -292t-138 -238t-208.5 -159t-257.5 -59zM748 154q102 0 190 48.5 t146 128.5t91 180.5t33 205.5t-33 205.5t-91 180.5t-146 128.5t-190 48.5t-190 -48.5t-146.5 -128.5t-91.5 -180.5t-33 -205.5t33 -205.5t91.5 -180.5t146.5 -128.5t190 -48.5z" />
<glyph unicode="&#xd5;" horiz-adv-x="1495" d="M485 1573h-129q0 5 1.5 13.5t8 33.5t16 47.5t28.5 50t42.5 47.5t61 33.5t82.5 13.5q60 0 107.5 -22.5t84 -45t68.5 -22.5q41 0 69.5 22.5t36.5 45.5l9 22h129q0 -5 -1.5 -13.5t-8 -33.5t-16 -47.5t-28.5 -50t-42.5 -47.5t-61 -33.5t-82.5 -13.5q-60 0 -107.5 22.5t-84 45 t-68.5 22.5q-40 0 -68.5 -22.5t-37.5 -44.5zM748 -31q-180 0 -331 99.5t-238 271.5t-87 377q0 206 87 377.5t237.5 270.5t331.5 99q136 0 257.5 -58.5t208.5 -158t138 -238t51 -292.5t-51 -292t-138 -238t-208.5 -159t-257.5 -59zM748 154q102 0 190 48.5t146 128.5 t91 180.5t33 205.5t-33 205.5t-91 180.5t-146 128.5t-190 48.5t-190 -48.5t-146.5 -128.5t-91.5 -180.5t-33 -205.5t33 -205.5t91.5 -180.5t146.5 -128.5t190 -48.5z" />
<glyph unicode="&#xd6;" horiz-adv-x="1495" d="M563 1571q-50 0 -83.5 34t-33.5 85q0 48 34 82t83 34t84 -34.5t35 -81.5q0 -51 -34.5 -85t-84.5 -34zM930 1571q-50 0 -83.5 34t-33.5 85q0 48 34 82t83 34t84 -34.5t35 -81.5q0 -51 -34.5 -85t-84.5 -34zM748 -31q-180 0 -331 99.5t-238 271.5t-87 377q0 206 87 377.5 t237.5 270.5t331.5 99q136 0 257.5 -58.5t208.5 -158t138 -238t51 -292.5t-51 -292t-138 -238t-208.5 -159t-257.5 -59zM748 154q102 0 190 48.5t146 128.5t91 180.5t33 205.5t-33 205.5t-91 180.5t-146 128.5t-190 48.5t-190 -48.5t-146.5 -128.5t-91.5 -180.5t-33 -205.5 t33 -205.5t91.5 -180.5t146.5 -128.5t190 -48.5z" />
<glyph unicode="&#xd7;" horiz-adv-x="1140" d="M678 672l381 -385l-103 -103l-385 381l-387 -381l-102 103l381 385l-381 377l117 106l372 -375l371 375l117 -106z" />
<glyph unicode="&#xd8;" horiz-adv-x="1538" d="M1446 1382l-166 -190q145 -203 145 -475q0 -154 -51 -292t-138 -238t-208.5 -159t-257.5 -59q-230 0 -412 164l-141 -164l-125 109l158 182q-135 196 -135 457q0 206 86.5 377.5t237 270.5t331.5 99q221 0 395 -147l150 174zM309 717q0 -158 74 -303l657 760 q-119 106 -270 106q-102 0 -190 -48.5t-146.5 -128.5t-91.5 -180.5t-33 -205.5zM1231 717q0 177 -84 321l-664 -764q123 -120 287 -120q102 0 190 48.5t146.5 128.5t91.5 180.5t33 205.5z" />
<glyph unicode="&#xd9;" horiz-adv-x="1392" d="M662 1802l161 -225h-161l-256 225h256zM1229 1434v-850q0 -296 -142.5 -455.5t-390.5 -159.5t-390 159.5t-142 455.5v850h184v-850q0 -109 29.5 -194t79.5 -135t110.5 -75.5t128.5 -25.5t128.5 25.5t110.5 75.5t79.5 135t29.5 194v850h185z" />
<glyph unicode="&#xda;" horiz-adv-x="1392" d="M731 1577h-162l162 225h256zM1229 1434v-850q0 -296 -142.5 -455.5t-390.5 -159.5t-390 159.5t-142 455.5v850h184v-850q0 -109 29.5 -194t79.5 -135t110.5 -75.5t128.5 -25.5t128.5 25.5t110.5 75.5t79.5 135t29.5 194v850h185z" />
<glyph unicode="&#xdb;" horiz-adv-x="1392" d="M1032 1536h-194l-142 156l-141 -156h-195l252 266h166zM1229 1434v-850q0 -296 -142.5 -455.5t-390.5 -159.5t-390 159.5t-142 455.5v850h184v-850q0 -109 29.5 -194t79.5 -135t110.5 -75.5t128.5 -25.5t128.5 25.5t110.5 75.5t79.5 135t29.5 194v850h185z" />
<glyph unicode="&#xdc;" horiz-adv-x="1392" d="M512 1571q-50 0 -83.5 34t-33.5 85q0 48 34 82t83 34t84 -34.5t35 -81.5q0 -51 -34.5 -85t-84.5 -34zM879 1571q-50 0 -83.5 34t-33.5 85q0 48 34 82t83 34t83.5 -34t34.5 -82q0 -51 -34 -85t-84 -34zM1229 1434v-850q0 -296 -142.5 -455.5t-390.5 -159.5t-390 159.5 t-142 455.5v850h184v-850q0 -109 29.5 -194t79.5 -135t110.5 -75.5t128.5 -25.5t128.5 25.5t110.5 75.5t79.5 135t29.5 194v850h185z" />
<glyph unicode="&#xdd;" horiz-adv-x="1142" d="M616 1577h-161l161 225h256zM926 1434h196q-96 -456 -460 -824v-610h-185v614q-362 365 -457 820h197q33 -176 126 -343.5t228 -308.5q135 143 229 310t126 342z" />
<glyph unicode="&#xde;" horiz-adv-x="1198" d="M369 1219h266q140 0 258 -68.5t186 -186.5t68 -257q0 -156 -85.5 -284t-225.5 -187h-467v-236h-185v1434h185v-215zM369 410h403q77 40 128.5 113.5t51.5 185.5q0 132 -82 233.5t-215 101.5h-286v-634z" />
<glyph unicode="&#xdf;" horiz-adv-x="1073" d="M938 1024l-262 -305q176 -34 256 -122.5t80 -231.5q0 -95 -33.5 -166t-95 -114t-143 -64t-183.5 -21h-90v154h90q285 0 285 215q0 48 -14 84.5t-42 59t-59 37.5t-76 21.5t-80 8.5t-84 2v182l246 260h-399v-1024h-170v1464h170v-276h604v-164z" />
<glyph unicode="&#xe0;" horiz-adv-x="1099" d="M506 1126l-236 267h224l141 -267h-129zM1028 154v-154h-61q-125 0 -183 104q-53 -62 -128 -98.5t-160 -36.5q-122 0 -206 42t-165 128v340q28 38 94.5 67t111 39t124.5 25q171 28 230.5 52t59.5 75q0 53 -63 100.5t-168 47.5q-52 0 -97 -16.5t-73 -39.5t-48.5 -46 t-29.5 -39l-8 -17l-156 90q62 107 168 172.5t230 65.5q190 0 302.5 -94t112.5 -261v-444q0 -43 30 -72.5t73 -29.5h10zM496 139q123 0 186 67t63 179v143q-38 -29 -108 -47.5t-133 -26.5t-126 -25t-91 -44v-154q52 -92 209 -92z" />
<glyph unicode="&#xe1;" horiz-adv-x="1099" d="M563 1126h-129l141 267h224zM1028 154v-154h-61q-125 0 -183 104q-53 -62 -128 -98.5t-160 -36.5q-122 0 -206 42t-165 128v340q28 38 94.5 67t111 39t124.5 25q171 28 230.5 52t59.5 75q0 53 -63 100.5t-168 47.5q-52 0 -97 -16.5t-73 -39.5t-48.5 -46t-29.5 -39l-8 -17 l-156 90q62 107 168 172.5t230 65.5q190 0 302.5 -94t112.5 -261v-444q0 -43 30 -72.5t73 -29.5h10zM496 139q123 0 186 67t63 179v143q-38 -29 -108 -47.5t-133 -26.5t-126 -25t-91 -44v-154q52 -92 209 -92z" />
<glyph unicode="&#xe2;" horiz-adv-x="1099" d="M358 1126h-184l232 267h188l231 -267h-184l-141 166zM1028 154v-154h-61q-125 0 -183 104q-53 -62 -128 -98.5t-160 -36.5q-122 0 -206 42t-165 128v340q28 38 94.5 67t111 39t124.5 25q171 28 230.5 52t59.5 75q0 53 -63 100.5t-168 47.5q-52 0 -97 -16.5t-73 -39.5 t-48.5 -46t-29.5 -39l-8 -17l-156 90q62 107 168 172.5t230 65.5q190 0 302.5 -94t112.5 -261v-444q0 -43 30 -72.5t73 -29.5h10zM496 139q123 0 186 67t63 179v143q-38 -29 -108 -47.5t-133 -26.5t-126 -25t-91 -44v-154q52 -92 209 -92z" />
<glyph unicode="&#xe3;" horiz-adv-x="1099" d="M379 1260q-26 0 -45 -11.5t-28.5 -28t-15 -33.5t-6.5 -29l-1 -11h-133q0 5 0.5 14t5 34.5t12 48.5t24.5 51.5t40 49t60 34.5t83 14q40 0 74.5 -11.5t58.5 -28.5t45.5 -33.5t44.5 -28t45 -11.5q26 0 45.5 11.5t29 28t14.5 33.5t6 29l1 11h133q0 -5 -0.5 -14t-5 -34.5 t-12 -48.5t-24.5 -51.5t-40 -49t-60 -34.5t-83 -14q-40 0 -74.5 11.5t-58.5 28.5t-45.5 33.5t-44.5 28t-45 11.5zM1028 154v-154h-61q-125 0 -183 104q-53 -62 -128 -98.5t-160 -36.5q-122 0 -206 42t-165 128v340q28 38 94.5 67t111 39t124.5 25q171 28 230.5 52t59.5 75 q0 53 -63 100.5t-168 47.5q-52 0 -97 -16.5t-73 -39.5t-48.5 -46t-29.5 -39l-8 -17l-156 90q62 107 168 172.5t230 65.5q190 0 302.5 -94t112.5 -261v-444q0 -43 30 -72.5t73 -29.5h10zM496 139q123 0 186 67t63 179v143q-38 -29 -108 -47.5t-133 -26.5t-126 -25t-91 -44 v-154q52 -92 209 -92z" />
<glyph unicode="&#xe4;" horiz-adv-x="1099" d="M326 1171q-50 0 -83.5 34t-33.5 85q0 48 34 82.5t83 34.5t83.5 -34.5t34.5 -82.5q0 -51 -34 -85t-84 -34zM692 1171q-50 0 -83.5 34t-33.5 85q0 48 34 82.5t83 34.5t84 -34.5t35 -82.5q0 -51 -34.5 -85t-84.5 -34zM1028 154v-154h-61q-125 0 -183 104q-53 -62 -128 -98.5 t-160 -36.5q-122 0 -206 42t-165 128v340q28 38 94.5 67t111 39t124.5 25q171 28 230.5 52t59.5 75q0 53 -63 100.5t-168 47.5q-52 0 -97 -16.5t-73 -39.5t-48.5 -46t-29.5 -39l-8 -17l-156 90q62 107 168 172.5t230 65.5q190 0 302.5 -94t112.5 -261v-444q0 -43 30 -72.5 t73 -29.5h10zM496 139q123 0 186 67t63 179v143q-38 -29 -108 -47.5t-133 -26.5t-126 -25t-91 -44v-154q52 -92 209 -92z" />
<glyph unicode="&#xe5;" horiz-adv-x="1099" d="M535 1128q-92 0 -154 61t-62 154t62.5 154.5t153.5 61.5t153 -61.5t62 -154.5t-62 -154t-153 -61zM535 1434q-40 0 -66.5 -25.5t-26.5 -65.5t26.5 -66t66.5 -26t65 26t25 66t-25 65.5t-65 25.5zM1028 154v-154h-61q-125 0 -183 104q-53 -62 -128 -98.5t-160 -36.5 q-122 0 -206 42t-165 128v340q28 38 94.5 67t111 39t124.5 25q171 28 230.5 52t59.5 75q0 53 -63 100.5t-168 47.5q-52 0 -97 -16.5t-73 -39.5t-48.5 -46t-29.5 -39l-8 -17l-156 90q62 107 168 172.5t230 65.5q190 0 302.5 -94t112.5 -261v-444q0 -43 30 -72.5t73 -29.5h10z M496 139q123 0 186 67t63 179v143q-38 -29 -108 -47.5t-133 -26.5t-126 -25t-91 -44v-154q52 -92 209 -92z" />
<glyph unicode="&#xe6;" horiz-adv-x="1712" d="M1477 238l133 -121q-5 -6 -14.5 -16t-42 -35.5t-69.5 -45t-96.5 -35.5t-123.5 -16q-122 0 -229 55.5t-179 151.5q-45 -89 -145 -148t-215 -59q-122 0 -206 42t-165 128v340q28 38 94.5 67t111 39t124.5 25q171 28 230.5 52t59.5 75q0 53 -63 100.5t-168 47.5 q-52 0 -97 -16.5t-73 -39.5t-48.5 -46t-29.5 -39l-8 -17l-156 90q62 107 168 172.5t230 65.5q132 0 229.5 -47.5t144.5 -135.5q73 86 174 134.5t216 48.5q187 0 342 -142v-475h-676q23 -128 114 -214.5t220 -86.5q41 0 78 10.5t60.5 25.5t41.5 29.5t26 25.5zM1264 887 q-130 0 -220.5 -87.5t-113.5 -217.5h506v252q-53 53 -172 53zM496 139q123 0 186 67t63 179v143q-38 -29 -108 -47.5t-133 -26.5t-126 -25t-91 -44v-154q52 -92 209 -92z" />
<glyph unicode="&#xe7;" horiz-adv-x="1028" d="M551 143q50 0 95.5 20.5t73.5 50.5t49.5 59.5t30.5 50.5l9 20l156 -90q-4 -10 -12.5 -27t-40.5 -62t-70 -81t-101.5 -69t-134.5 -42l-49 -57q10 10 32.5 13.5t50 0t57 -16.5t53.5 -33.5t39.5 -54t15.5 -73.5q0 -82 -69 -137t-165 -55q-48 0 -90 14.5t-67 35.5t-43 42.5 t-25 35.5l-8 15l102 59q23 -41 56 -63t63.5 -24t58 7t44 28t16.5 40q0 37 -30.5 59t-73 18t-74.5 -34l-111 74l72 113q-164 36 -271.5 185t-107.5 347q0 149 62.5 274t170.5 197t236 72q60 0 115.5 -16t96 -41.5t75.5 -56.5t58 -61.5t39.5 -56t24.5 -41.5l7 -16l-156 -88 q-3 8 -9.5 22t-29.5 49t-50.5 61.5t-73.5 48.5t-97 22q-120 0 -202.5 -107t-82.5 -262q0 -154 82.5 -261.5t202.5 -107.5z" />
<glyph unicode="&#xe8;" horiz-adv-x="1048" d="M553 1126l-236 267h224l141 -267h-129zM813 238l133 -121q-5 -6 -14.5 -16t-42 -35.5t-69.5 -45t-96.5 -35.5t-123.5 -16q-141 0 -260.5 73t-188.5 198t-69 272q0 148 69 273t188.5 197.5t260.5 72.5q187 0 342 -142v-475h-676q23 -128 114 -214.5t220 -86.5 q41 0 78 10.5t60.5 25.5t41.5 29.5t26 25.5zM600 887q-130 0 -220.5 -87.5t-113.5 -217.5h506v252q-53 53 -172 53z" />
<glyph unicode="&#xe9;" horiz-adv-x="1048" d="M600 1126h-129l141 267h224zM813 238l133 -121q-5 -6 -14.5 -16t-42 -35.5t-69.5 -45t-96.5 -35.5t-123.5 -16q-141 0 -260.5 73t-188.5 198t-69 272q0 148 69 273t188.5 197.5t260.5 72.5q187 0 342 -142v-475h-676q23 -128 114 -214.5t220 -86.5q41 0 78 10.5 t60.5 25.5t41.5 29.5t26 25.5zM600 887q-130 0 -220.5 -87.5t-113.5 -217.5h506v252q-53 53 -172 53z" />
<glyph unicode="&#xea;" horiz-adv-x="1048" d="M438 1126h-184l231 267h189l231 -267h-184l-141 166zM813 238l133 -121q-5 -6 -14.5 -16t-42 -35.5t-69.5 -45t-96.5 -35.5t-123.5 -16q-141 0 -260.5 73t-188.5 198t-69 272q0 148 69 273t188.5 197.5t260.5 72.5q187 0 342 -142v-475h-676q23 -128 114 -214.5 t220 -86.5q41 0 78 10.5t60.5 25.5t41.5 29.5t26 25.5zM600 887q-130 0 -220.5 -87.5t-113.5 -217.5h506v252q-53 53 -172 53z" />
<glyph unicode="&#xeb;" horiz-adv-x="1048" d="M385 1171q-50 0 -83.5 34t-33.5 85q0 48 34 82.5t83 34.5t84 -34.5t35 -82.5q0 -51 -34.5 -85t-84.5 -34zM752 1171q-50 0 -83.5 34t-33.5 85q0 48 34 82.5t83 34.5t83.5 -34.5t34.5 -82.5q0 -51 -34 -85t-84 -34zM813 238l133 -121q-5 -6 -14.5 -16t-42 -35.5t-69.5 -45 t-96.5 -35.5t-123.5 -16q-141 0 -260.5 73t-188.5 198t-69 272q0 148 69 273t188.5 197.5t260.5 72.5q187 0 342 -142v-475h-676q23 -128 114 -214.5t220 -86.5q41 0 78 10.5t60.5 25.5t41.5 29.5t26 25.5zM600 887q-130 0 -220.5 -87.5t-113.5 -217.5h506v252 q-53 53 -172 53z" />
<glyph unicode="&#xec;" horiz-adv-x="446" d="M182 1393l142 -267h-129l-236 267h223zM324 1024h-174v-1024h174v1024z" />
<glyph unicode="&#xed;" horiz-adv-x="446" d="M252 1126h-129l141 267h223zM297 1024h-174v-1024h174v1024z" />
<glyph unicode="&#xee;" horiz-adv-x="528" d="M590 1126h-184l-142 166l-141 -166h-184l231 267h188zM352 1024h-174v-1024h174v1024z" />
<glyph unicode="&#xef;" horiz-adv-x="542" d="M117 1171q-50 0 -83.5 34t-33.5 85q0 48 34 82.5t83 34.5t84 -34.5t35 -82.5q0 -51 -34.5 -85t-84.5 -34zM424 1171q-50 0 -83.5 34t-33.5 85q0 48 34 82.5t83 34.5t84 -34.5t35 -82.5q0 -51 -34.5 -85t-84.5 -34zM358 1024h-174v-1024h174v1024z" />
<glyph unicode="&#xf0;" horiz-adv-x="1067" d="M938 1268l-156 -72q203 -220 203 -563q0 -347 -119 -505.5t-342 -158.5q-131 0 -232.5 66.5t-155.5 178t-54 247.5q0 135 55 247.5t152.5 178t216.5 65.5q88 0 170 -44.5t139 -114.5q-28 189 -182 333l-289 -133l-57 121l223 105q-108 67 -221 98l69 147 q191 -71 316 -168l200 95zM524 135q71 0 127.5 29t89 77t49.5 104.5t17 115.5q0 140 -77 231.5t-218 91.5q-82 0 -142.5 -50.5t-87 -122t-26.5 -150.5q0 -134 72 -230t196 -96z" />
<glyph unicode="&#xf1;" horiz-adv-x="1126" d="M444 1260q-26 0 -45 -11.5t-28.5 -28t-15 -33.5t-6.5 -29l-1 -11h-133q0 5 0.5 14t5 34.5t12 48.5t24.5 51.5t40 49t60 34.5t83 14q48 0 90.5 -17.5t67 -39t54.5 -39t57 -17.5q26 0 45.5 11.5t29 28t14.5 33.5t6 29l1 11h133q0 -5 -0.5 -14t-5 -34.5t-12 -48.5 t-24.5 -51.5t-40 -49t-60 -34.5t-83 -14q-48 0 -90.5 17.5t-67 39t-54.5 39t-57 17.5zM643 1055q216 0 340 -183v-872h-174v799q-63 82 -205 82q-57 0 -103 -20.5t-76 -52.5t-50 -74.5t-28.5 -85t-8.5 -85.5v-563h-174v1024h153l21 -127q96 158 305 158z" />
<glyph unicode="&#xf2;" d="M518 1393l141 -267h-129l-235 267h223zM582 -31q-96 0 -187.5 43t-160 115t-110.5 173.5t-42 211.5q0 111 42 212.5t110.5 173.5t160 114.5t187.5 42.5t187.5 -42.5t160 -114.5t110 -173.5t41.5 -212.5q0 -110 -41.5 -211.5t-110 -173.5t-160 -115t-187.5 -43zM582 143 q126 0 220.5 108.5t94.5 260.5q0 153 -94.5 261t-220.5 108t-221 -108t-95 -261q0 -152 95 -260.5t221 -108.5z" />
<glyph unicode="&#xf3;" d="M633 1126h-129l141 267h223zM582 -31q-96 0 -187.5 43t-160 115t-110.5 173.5t-42 211.5q0 111 42 212.5t110.5 173.5t160 114.5t187.5 42.5t187.5 -42.5t160 -114.5t110 -173.5t41.5 -212.5q0 -110 -41.5 -211.5t-110 -173.5t-160 -115t-187.5 -43zM582 143 q126 0 220.5 108.5t94.5 260.5q0 153 -94.5 261t-220.5 108t-221 -108t-95 -261q0 -152 95 -260.5t221 -108.5z" />
<glyph unicode="&#xf4;" d="M907 1126h-184l-141 166l-142 -166h-184l231 267h189zM582 -31q-96 0 -187.5 43t-160 115t-110.5 173.5t-42 211.5q0 111 42 212.5t110.5 173.5t160 114.5t187.5 42.5t187.5 -42.5t160 -114.5t110 -173.5t41.5 -212.5q0 -110 -41.5 -211.5t-110 -173.5t-160 -115 t-187.5 -43zM582 143q126 0 220.5 108.5t94.5 260.5q0 153 -94.5 261t-220.5 108t-221 -108t-95 -261q0 -152 95 -260.5t221 -108.5z" />
<glyph unicode="&#xf5;" d="M354 1147h-133q0 5 0.5 14t5 34.5t12 48.5t24.5 51.5t40 49t60 34.5t83 14q48 0 90.5 -17.5t67 -39t54.5 -39t57 -17.5q26 0 45.5 11.5t29 28t14.5 33.5t6 29l1 11h133q0 -5 -0.5 -14t-5 -34.5t-12 -48.5t-24.5 -51.5t-40 -49t-60 -34.5t-83 -14q-40 0 -74.5 11.5 t-58.5 28.5t-45.5 33.5t-44.5 28t-45 11.5q-41 0 -65 -28t-28 -56zM582 -31q-96 0 -187.5 43t-160 115t-110.5 173.5t-42 211.5q0 111 42 212.5t110.5 173.5t160 114.5t187.5 42.5t187.5 -42.5t160 -114.5t110 -173.5t41.5 -212.5q0 -110 -41.5 -211.5t-110 -173.5 t-160 -115t-187.5 -43zM582 143q126 0 220.5 108.5t94.5 260.5q0 153 -94.5 261t-220.5 108t-221 -108t-95 -261q0 -152 95 -260.5t221 -108.5z" />
<glyph unicode="&#xf6;" d="M397 1171q-50 0 -83 34t-33 85q0 48 33.5 82.5t82.5 34.5t84 -34.5t35 -82.5q0 -51 -34.5 -85t-84.5 -34zM764 1171q-50 0 -83.5 34t-33.5 85q0 48 34 82.5t83 34.5t84 -34.5t35 -82.5q0 -51 -34.5 -85t-84.5 -34zM582 -31q-96 0 -187.5 43t-160 115t-110.5 173.5 t-42 211.5q0 111 42 212.5t110.5 173.5t160 114.5t187.5 42.5t187.5 -42.5t160 -114.5t110 -173.5t41.5 -212.5q0 -110 -41.5 -211.5t-110 -173.5t-160 -115t-187.5 -43zM582 143q126 0 220.5 108.5t94.5 260.5q0 153 -94.5 261t-220.5 108t-221 -108t-95 -261 q0 -152 95 -260.5t221 -108.5z" />
<glyph unicode="&#xf7;" horiz-adv-x="1249" d="M625 928q-59 0 -98.5 39.5t-39.5 97.5q0 57 40 98t98 41q57 0 98 -41t41 -98q0 -58 -40.5 -97.5t-98.5 -39.5zM1137 737v-133h-1024v133h1024zM625 139q-59 0 -98.5 39.5t-39.5 97.5t40 99t98 41q57 0 98 -41.5t41 -98.5q0 -58 -40.5 -97.5t-98.5 -39.5z" />
<glyph unicode="&#xf8;" d="M1065 979l-102 -121q118 -147 118 -344q0 -110 -41.5 -211.5t-110 -174t-160 -116t-187.5 -43.5q-152 0 -283 101l-94 -111l-105 88l101 121q-119 151 -119 346q0 111 42 212t110.5 172.5t160 114t187.5 42.5q151 0 280 -99l92 111zM260 514q0 -116 55 -209l439 524 q-79 60 -172 60q-129 0 -225.5 -109.5t-96.5 -265.5zM582 137q129 0 225 111t96 266q0 116 -55 209l-440 -524q81 -62 174 -62z" />
<glyph unicode="&#xf9;" horiz-adv-x="1161" d="M559 1126l-235 267h223l141 -267h-129zM1008 1024v-1024h-150l-20 115q-101 -146 -279 -146q-92 0 -170 31.5t-128.5 83.5t-78.5 118t-28 136v686h176v-625q0 -33 5 -64.5t21 -67.5t41.5 -62.5t71 -44t104.5 -17.5q188 0 265 154v727h170z" />
<glyph unicode="&#xfa;" horiz-adv-x="1161" d="M608 1126h-129l142 267h223zM1008 1024v-1024h-150l-20 115q-101 -146 -279 -146q-92 0 -170 31.5t-128.5 83.5t-78.5 118t-28 136v686h176v-625q0 -33 5 -64.5t21 -67.5t41.5 -62.5t71 -44t104.5 -17.5q188 0 265 154v727h170z" />
<glyph unicode="&#xfb;" horiz-adv-x="1161" d="M442 1126h-184l231 267h189l231 -267h-184l-141 166zM1008 1024v-1024h-150l-20 115q-101 -146 -279 -146q-92 0 -170 31.5t-128.5 83.5t-78.5 118t-28 136v686h176v-625q0 -33 5 -64.5t21 -67.5t41.5 -62.5t71 -44t104.5 -17.5q188 0 265 154v727h170z" />
<glyph unicode="&#xfc;" horiz-adv-x="1161" d="M397 1171q-50 0 -83 34t-33 85q0 48 33.5 82.5t82.5 34.5t84 -34.5t35 -82.5q0 -51 -34.5 -85t-84.5 -34zM764 1171q-50 0 -83.5 34t-33.5 85q0 48 34 82.5t83 34.5t84 -34.5t35 -82.5q0 -51 -34.5 -85t-84.5 -34zM1008 1024v-1024h-150l-20 115q-101 -146 -279 -146 q-92 0 -170 31.5t-128.5 83.5t-78.5 118t-28 136v686h176v-625q0 -33 5 -64.5t21 -67.5t41.5 -62.5t71 -44t104.5 -17.5q188 0 265 154v727h170z" />
<glyph unicode="&#xfd;" horiz-adv-x="1009" d="M551 1126h-129l141 267h223zM801 1024h188q-53 -168 -350 -1065q-32 -97 -70.5 -166t-75 -107.5t-82.5 -60.5t-84 -28.5t-89 -6.5h-99v154h47q117 0 176 59.5t109 196.5l-451 1024h197l332 -801z" />
<glyph unicode="&#xfe;" horiz-adv-x="1159" d="M629 1055q130 0 233 -73t159 -196.5t56 -273.5q0 -151 -56 -274.5t-159 -196t-233 -72.5q-180 0 -293 142v-521h-172v1844h172v-529q117 150 293 150zM608 143q128 0 206.5 105t78.5 264q0 158 -78 263.5t-207 105.5q-139 0 -205.5 -91.5t-66.5 -277.5q0 -171 72 -270 t200 -99z" />
<glyph unicode="&#xff;" horiz-adv-x="1009" d="M328 1171q-50 0 -83.5 34t-33.5 85q0 48 34 82.5t83 34.5t83.5 -34.5t34.5 -82.5q0 -51 -34 -85t-84 -34zM694 1171q-50 0 -83 34t-33 85q0 48 33.5 82.5t82.5 34.5t84 -34.5t35 -82.5q0 -51 -34.5 -85t-84.5 -34zM801 1024h188q-53 -168 -350 -1065q-32 -97 -70.5 -166 t-75 -107.5t-82.5 -60.5t-84 -28.5t-89 -6.5h-99v154h47q117 0 176 59.5t109 196.5l-451 1024h197l332 -801z" />
<glyph unicode="&#x152;" horiz-adv-x="2232" d="M2109 174v-174h-901v182q-89 -101 -207.5 -157t-252.5 -56q-180 0 -331 99.5t-238 271.5t-87 377q0 206 87 377.5t237.5 270.5t331.5 99q134 0 252.5 -55.5t207.5 -155.5v181h881v-174h-696v-445h594v-174h-594v-467h716zM748 154q102 0 190 48.5t146 128.5t91 180.5 t33 205.5t-33 205.5t-91 180.5t-146 128.5t-190 48.5t-190 -48.5t-146.5 -128.5t-91.5 -180.5t-33 -205.5t33 -205.5t91.5 -180.5t146.5 -128.5t190 -48.5z" />
<glyph unicode="&#x153;" horiz-adv-x="1863" d="M1628 238l133 -121q-5 -6 -14.5 -16t-42 -35.5t-69.5 -45t-96.5 -35.5t-123.5 -16q-130 0 -243 63t-183 171q-72 -108 -179.5 -171t-227.5 -63q-96 0 -187.5 43t-160 115t-110.5 173.5t-42 211.5q0 111 42 212.5t110.5 173.5t160 114.5t187.5 42.5q120 0 227.5 -63 t179.5 -171q70 108 183 171t243 63q187 0 342 -142v-475h-676q23 -128 114 -214.5t220 -86.5q41 0 78 10.5t60.5 25.5t41.5 29.5t25 25.5zM1415 887q-130 0 -220.5 -87.5t-113.5 -217.5h506v252q-53 53 -172 53zM582 143q126 0 220.5 108.5t94.5 260.5q0 153 -94.5 261 t-220.5 108t-221 -108t-95 -261q0 -152 95 -260.5t221 -108.5z" />
<glyph unicode="&#x178;" horiz-adv-x="1142" d="M387 1571q-50 0 -83.5 34t-33.5 85q0 48 34 82t83 34t84 -34.5t35 -81.5q0 -51 -34.5 -85t-84.5 -34zM754 1571q-50 0 -83.5 34t-33.5 85q0 48 34 82t83 34t83.5 -34t34.5 -82q0 -51 -34 -85t-84 -34zM926 1434h196q-96 -456 -460 -824v-610h-185v614q-362 365 -457 820 h197q33 -176 126 -343.5t228 -308.5q135 143 229 310t126 342z" />
<glyph unicode="&#x2c6;" horiz-adv-x="794" d="M723 1126h-184l-142 166l-141 -166h-184l231 267h189z" />
<glyph unicode="&#x2dc;" horiz-adv-x="866" d="M205 1147h-133q0 5 0.5 14t5 34.5t12 48.5t24.5 51.5t40 49t60 34.5t83 14q40 0 74.5 -11.5t58.5 -28.5t45.5 -33.5t44.5 -28t45 -11.5q26 0 46 11.5t29 28t14.5 33.5t6.5 29l1 11h133q0 -5 -0.5 -14t-5 -34.5t-12.5 -48.5t-25 -51.5t-40 -49t-60 -34.5t-83 -14 q-40 0 -74.5 11.5t-58.5 28.5t-45.5 33.5t-44.5 28t-45 11.5q-26 0 -45 -11.5t-28.5 -28t-15 -33.5t-6.5 -29z" />
<glyph unicode="&#x2000;" horiz-adv-x="906" />
<glyph unicode="&#x2001;" horiz-adv-x="1812" />
<glyph unicode="&#x2002;" horiz-adv-x="906" />
<glyph unicode="&#x2003;" horiz-adv-x="1812" />
<glyph unicode="&#x2004;" horiz-adv-x="604" />
<glyph unicode="&#x2005;" horiz-adv-x="453" />
<glyph unicode="&#x2006;" horiz-adv-x="302" />
<glyph unicode="&#x2007;" horiz-adv-x="302" />
<glyph unicode="&#x2008;" horiz-adv-x="226" />
<glyph unicode="&#x2009;" horiz-adv-x="362" />
<glyph unicode="&#x200a;" horiz-adv-x="100" />
<glyph unicode="&#x2010;" horiz-adv-x="921" d="M829 758v-174h-737v174h737z" />
<glyph unicode="&#x2011;" horiz-adv-x="921" d="M829 758v-174h-737v174h737z" />
<glyph unicode="&#x2012;" horiz-adv-x="921" d="M829 758v-174h-737v174h737z" />
<glyph unicode="&#x2013;" horiz-adv-x="1290" d="M1157 754v-164h-1024v164h1024z" />
<glyph unicode="&#x2014;" horiz-adv-x="2232" d="M2079 754v-164h-1925v164h1925z" />
<glyph unicode="&#x2018;" horiz-adv-x="421" d="M82 1169q0 128 71 201.5t183 73.5v-62q-59 0 -104.5 -38.5t-45.5 -83.5q75 12 114.5 -29.5t39.5 -97.5q0 -51 -38.5 -86t-82.5 -35q-59 0 -97.5 38t-39.5 119z" />
<glyph unicode="&#x2019;" horiz-adv-x="421" d="M340 1286q0 -127 -71 -200.5t-183 -73.5v61q59 0 104.5 39t45.5 84q-75 -12 -114.5 29.5t-39.5 97.5q0 51 38.5 86t82.5 35q59 0 97.5 -38.5t39.5 -119.5z" />
<glyph unicode="&#x201a;" horiz-adv-x="421" d="M340 111q0 -128 -71 -201.5t-183 -73.5v62q59 0 104.5 38.5t45.5 83.5q-75 -12 -114.5 29.5t-39.5 97.5q0 51 38.5 86t82.5 35q59 0 97.5 -38t39.5 -119z" />
<glyph unicode="&#x201c;" horiz-adv-x="749" d="M82 1169q0 128 71 201.5t183 73.5v-62q-59 0 -104.5 -38.5t-45.5 -83.5q75 12 114.5 -29.5t39.5 -97.5q0 -51 -38.5 -86t-82.5 -35q-59 0 -97.5 38t-39.5 119zM410 1169q0 128 71 201.5t183 73.5v-62q-59 0 -104.5 -38.5t-45.5 -83.5q75 12 114.5 -29.5t39.5 -97.5 q0 -51 -38.5 -86t-82.5 -35q-59 0 -97.5 38t-39.5 119z" />
<glyph unicode="&#x201d;" horiz-adv-x="749" d="M340 1286q0 -127 -71 -200.5t-183 -73.5v61q59 0 104.5 39t45.5 84q-75 -12 -114.5 29.5t-39.5 97.5q0 51 38.5 86t82.5 35q59 0 97.5 -38.5t39.5 -119.5zM668 1286q0 -127 -71 -200.5t-183 -73.5v61q59 0 104 39t45 84q-75 -12 -114 29.5t-39 97.5q0 51 38 86t82 35 q59 0 98 -38.5t40 -119.5z" />
<glyph unicode="&#x201e;" horiz-adv-x="749" d="M340 111q0 -128 -71 -201.5t-183 -73.5v62q59 0 104.5 38.5t45.5 83.5q-75 -12 -114.5 29.5t-39.5 97.5q0 51 38.5 86t82.5 35q59 0 97.5 -38t39.5 -119zM668 111q0 -128 -71 -201.5t-183 -73.5v62q59 0 104 38.5t45 83.5q-75 -12 -114 29.5t-39 97.5q0 51 38 86t82 35 q59 0 98 -38t40 -119z" />
<glyph unicode="&#x2022;" horiz-adv-x="1515" d="M758 92q-169 0 -310.5 81.5t-223 223t-81.5 310.5q0 167 81.5 308t223 223.5t310.5 82.5q166 0 307.5 -82.5t224 -224t82.5 -307.5q0 -169 -82.5 -310.5t-223.5 -223t-308 -81.5z" />
<glyph unicode="&#x2026;" horiz-adv-x="1771" d="M322 -20q-58 0 -98 40t-40 99q0 57 40 97t98 40q57 0 98 -40t41 -97q0 -58 -41 -98.5t-98 -40.5zM885 -20q-58 0 -97.5 40t-39.5 99q0 57 39.5 97t97.5 40q57 0 98 -40t41 -97q0 -58 -41 -98.5t-98 -40.5zM1448 -20q-58 0 -97.5 40t-39.5 99q0 57 39.5 97t97.5 40 q57 0 98 -40t41 -97q0 -58 -41 -98.5t-98 -40.5z" />
<glyph unicode="&#x202f;" horiz-adv-x="362" />
<glyph unicode="&#x2039;" horiz-adv-x="593" d="M432 1075l121 -119l-289 -323l289 -324l-121 -119l-371 443z" />
<glyph unicode="&#x203a;" horiz-adv-x="593" d="M162 190l-121 119l289 324l-289 323l121 119l370 -442z" />
<glyph unicode="&#x205f;" horiz-adv-x="453" />
<glyph unicode="&#x20ac;" horiz-adv-x="1312" d="M899 127q52 0 99.5 9.5t78.5 23t54.5 27t34.5 23.5l10 9l86 -133q-6 -5 -17 -13t-48 -28t-76.5 -35.5t-100 -28t-121.5 -12.5q-212 0 -381 140t-231 360h-154v133h127q-4 54 -4 82q0 64 8 113h-131v133h162q68 209 234.5 341t369.5 132q61 0 120.5 -12.5t101.5 -29.5 t75 -34.5t50 -30.5l16 -12l-86 -131q-4 4 -11 10t-33 22t-55.5 28t-77.5 22t-100 10q-144 0 -257 -84t-167 -231h549v-133h-582q-8 -49 -8 -113q0 -28 4 -82h586v-133h-559q51 -159 166.5 -250.5t267.5 -91.5z" />
<glyph unicode="&#x2122;" horiz-adv-x="1558" d="M408 1311v-594h-140v594h-207v123h553v-123h-206zM1436 717h-123v504l-180 -504h-103l-180 504v-504h-123v717h178l176 -500l176 500h179v-717z" />
<glyph unicode="&#x25fc;" horiz-adv-x="1024" d="M0 1024h1024v-1024h-1024v1024z" />
<glyph unicode="&#xfb01;" horiz-adv-x="1089" d="M829 1485q57 0 97.5 -40t40.5 -97q0 -58 -40.5 -99t-97.5 -41q-58 0 -98.5 40.5t-40.5 99.5q0 57 40.5 97t98.5 40zM915 1024v-1024h-174v860h-413v-860h-174v860h-113v164h113v123q0 59 13.5 111.5t42 97.5t79.5 71.5t119 26.5h98v-164h-51q-31 0 -53.5 -7.5t-36 -23 t-21.5 -29.5t-11.5 -38.5t-4 -38t-0.5 -37.5v-92h587z" />
<glyph unicode="&#xfb02;" horiz-adv-x="1216" d="M1094 164v-164h-99q-68 0 -119 26.5t-79.5 71.5t-42 97.5t-13.5 111.5v553h-413v-860h-174v860h-113v164h113v123q0 59 13.5 111.5t42 97.5t79.5 71.5t119 26.5h98v-164h-51q-31 0 -53.5 -7.5t-36 -23t-21.5 -29.5t-11.5 -38.5t-4 -38t-0.5 -37.5v-92h413v440h174v-1126 q0 -24 0.5 -37.5t4 -38t11.5 -38.5t21.5 -29.5t36 -23t53.5 -7.5h52z" />
<glyph unicode="&#xfb03;" horiz-adv-x="1677" d="M1417 1485q57 0 97 -40t40 -97q0 -58 -40 -99t-97 -41q-58 0 -98.5 40.5t-40.5 99.5q0 57 40.5 97t98.5 40zM1503 1024v-1024h-174v860h-414v-860h-174v860h-413v-860h-174v860h-113v164h113v123q0 59 13.5 111.5t42 97.5t79.5 71.5t119 26.5h98v-164h-51 q-31 0 -53.5 -7.5t-36 -23t-21.5 -29.5t-11.5 -38.5t-4 -38t-0.5 -37.5v-92h413v123q0 59 13.5 111.5t42 97.5t79.5 71.5t119 26.5h99v-164h-52q-31 0 -53.5 -7.5t-36 -23t-21.5 -29.5t-11.5 -38.5t-4 -38t-0.5 -37.5v-92h588z" />
<glyph unicode="&#xfb04;" horiz-adv-x="1804" d="M1681 164v-164h-98q-68 0 -119 26.5t-79.5 71.5t-42 97.5t-13.5 111.5v553h-414v-860h-174v860h-413v-860h-174v860h-113v164h113v123q0 59 13.5 111.5t42 97.5t79.5 71.5t119 26.5h98v-164h-51q-31 0 -53.5 -7.5t-36 -23t-21.5 -29.5t-11.5 -38.5t-4 -38t-0.5 -37.5v-92 h413v123q0 59 13.5 111.5t42 97.5t79.5 71.5t119 26.5h99v-164h-52q-31 0 -53.5 -7.5t-36 -23t-21.5 -29.5t-11.5 -38.5t-4 -38t-0.5 -37.5v-92h414v440h174v-1126q0 -24 0.5 -37.5t4 -38t11.5 -38.5t21.5 -29.5t36 -23t53.5 -7.5h51z" />
<glyph horiz-adv-x="1677" d="M1415 1485q57 0 98 -40t41 -97q0 -58 -41 -99t-98 -41q-58 0 -97.5 40.5t-39.5 99.5q0 57 39.5 97t97.5 40zM1503 1024v-1126q0 -59 -13.5 -111.5t-42 -98t-79.5 -72t-119 -26.5h-98v164h51q31 0 53.5 7.5t36 23t21.5 29.5t11.5 38.5t4 38t0.5 37.5v932h-414v-860h-174 v860h-413v-860h-174v860h-113v164h113v123q0 59 13.5 111.5t42 97.5t79.5 71.5t119 26.5h98v-164h-51q-31 0 -53.5 -7.5t-36 -23t-21.5 -29.5t-11.5 -38.5t-4 -38t-0.5 -37.5v-92h413v123q0 59 13.5 111.5t42 97.5t79.5 71.5t119 26.5h99v-164h-52q-31 0 -53.5 -7.5t-36 -23 t-21.5 -29.5t-11.5 -38.5t-4 -38t-0.5 -37.5v-92h588z" />
<glyph horiz-adv-x="1089" d="M827 1485q57 0 98.5 -40t41.5 -97q0 -58 -41.5 -99t-98.5 -41q-58 0 -97.5 40.5t-39.5 99.5q0 57 39.5 97t97.5 40zM915 1024v-1126q0 -60 -13.5 -112t-41.5 -97.5t-79 -72t-119 -26.5h-99v164h51q31 0 53.5 7.5t36 23t21.5 29.5t11.5 38.5t4 38t0.5 37.5v932h-413v-860 h-174v860h-113v164h113v123q0 59 13.5 111.5t42 97.5t79.5 71.5t119 26.5h98v-164h-51q-31 0 -53.5 -7.5t-36 -23t-21.5 -29.5t-11.5 -38.5t-4 -38t-0.5 -37.5v-92h587z" />
</font>
</defs>
</svg>
