<?xml version="1.0" standalone="no"?>
<!DOCTYPE svg PUBLIC "-//W3C//DTD SVG 1.1//EN" "http://www.w3.org/Graphics/SVG/1.1/DTD/svg11.dtd" >
<svg xmlns="http://www.w3.org/2000/svg" xmlns:xlink="http://www.w3.org/1999/xlink" version="1.1">
<metadata></metadata>
<defs>
<font id="fabrikbold" horiz-adv-x="1228" >
<font-face units-per-em="2048" ascent="1638" descent="-410" />
<missing-glyph horiz-adv-x="512" />
<glyph horiz-adv-x="0" />
<glyph horiz-adv-x="682" />
<glyph unicode=" "  horiz-adv-x="512" />
<glyph unicode="&#x09;" horiz-adv-x="512" />
<glyph unicode="&#xa0;" horiz-adv-x="512" />
<glyph unicode="!" horiz-adv-x="675" d="M498 1434h-318l72 -1010h174zM338 -20q-69 0 -116.5 47t-47.5 116q0 68 47.5 116t116.5 48q68 0 116 -48.5t48 -115.5q0 -69 -48 -116t-116 -47z" />
<glyph unicode="&#x22;" horiz-adv-x="831" d="M279 862h-115q-74 305 -90 418q-12 82 31.5 133t115.5 51q71 0 115.5 -51t32.5 -133q-7 -50 -29.5 -154.5t-41.5 -183.5zM668 862h-115q-74 305 -90 418q-12 82 31.5 133t115.5 51q71 0 115.5 -51t32.5 -133q-7 -50 -29.5 -154.5t-41.5 -183.5z" />
<glyph unicode="#" horiz-adv-x="1290" d="M1010 737l-64 -286h180v-185h-219l-57 -266h-215l57 266h-235l-58 -266h-215l58 266h-160v185h199l63 286h-180v185h219l57 266h215l-57 -266h236l57 266h215l-57 -266h159v-185h-198zM793 737h-236l-61 -286h235z" />
<glyph unicode="$" horiz-adv-x="1177" d="M1075 356q0 -150 -102.5 -251t-270.5 -128l3 -151h-216l5 149q-65 10 -122.5 32t-97 49.5t-72.5 59t-52.5 61t-33 53.5t-18.5 38l-6 15l207 110q5 -8 13.5 -20.5t37 -45.5t60 -58t79 -45.5t95.5 -20.5q115 0 170 41t55 114q0 62 -33 108t-106 87l-232 131 q-53 30 -92.5 60.5t-77.5 73.5t-58 100.5t-20 125.5q0 120 84 216.5t220 130.5l-5 155h216l-3 -153q55 -11 103 -35t78.5 -50t52.5 -51t32 -41l9 -16l-203 -106q-3 3 -8 9t-22 20.5t-36 25.5t-48 20t-60 9q-63 0 -103 -34.5t-40 -96.5q0 -52 26 -86t84 -66l232 -131 q145 -79 210.5 -169.5t65.5 -238.5z" />
<glyph unicode="%" horiz-adv-x="1753" d="M1481 1434l-953 -1434h-245l952 1434h246zM420 717q-139 0 -233.5 93t-94.5 234t94.5 234.5t233.5 93.5t233.5 -93.5t94.5 -234.5t-94.5 -234t-233.5 -93zM420 905q60 0 98.5 39.5t38.5 99.5t-38.5 99t-98.5 39t-99.5 -39t-39.5 -99t39.5 -99.5t99.5 -39.5zM1343 61 q-139 0 -233 93t-94 235t94 235t233 93t233.5 -93.5t94.5 -234.5t-94.5 -234.5t-233.5 -93.5zM1343 250q60 0 99 39.5t39 99.5t-39 98.5t-99 38.5t-99.5 -38.5t-39.5 -98.5t39.5 -99.5t99.5 -39.5z" />
<glyph unicode="&#x26;" horiz-adv-x="1337" d="M1108 631l209 -125q-72 -125 -193 -252l193 -254h-283l-80 104q-181 -129 -366 -129q-69 0 -132 14t-107.5 36t-82 48.5t-61.5 53t-41 48.5t-24 36l-7 14v287q31 46 84.5 95.5t91 77.5t131.5 95l-100 131q-44 57 -64.5 121.5t-18 125t29 116.5t72.5 97.5t117 66t157 24.5 q103 0 182 -30t122.5 -77t65 -97.5t21.5 -100.5q0 -234 -260 -430l211 -276q36 42 69.5 87t48.5 69zM641 1247q-23 0 -48.5 -10.5t-47 -32t-31.5 -50t0.5 -70t44.5 -87.5l64 -82q83 68 113 113t30 84q0 56 -36 95.5t-89 39.5zM573 205q114 0 236 90l-231 305 q-127 -94 -185 -151v-160q76 -84 180 -84z" />
<glyph unicode="'" horiz-adv-x="442" d="M279 862h-115q-74 305 -90 418q-12 82 31.5 133t115.5 51q71 0 115.5 -51t32.5 -133q-7 -50 -29.5 -154.5t-41.5 -183.5z" />
<glyph unicode="(" horiz-adv-x="665" d="M666 -225l-134 -154q-9 8 -25 23t-61.5 67t-87 110.5t-92.5 153t-87.5 194.5t-61.5 234t-25 273q0 140 24.5 272.5t63 232.5t85.5 188.5t94 149.5t85.5 105t63.5 65l24 21l134 -154q-7 -6 -19 -18t-47.5 -54t-67 -90t-70.5 -126t-67.5 -161.5t-47.5 -197t-19 -233.5 q0 -115 18.5 -227t48.5 -199t66 -165.5t72 -133.5t66 -95.5t49 -60.5z" />
<glyph unicode=")" horiz-adv-x="665" d="M133 -379l-133 154q7 7 19 20.5t47.5 59.5t67 97t70.5 132t67.5 166t47.5 198t19 228q0 120 -18.5 233t-48.5 198.5t-66 160.5t-72 126.5t-66 89t-49 54.5l-18 18l133 154q9 -7 25 -21t61.5 -64t87 -106.5t92.5 -148.5t87.5 -190t61.5 -231t25 -273q0 -139 -24.5 -272.5 t-63 -235.5t-85.5 -193t-94 -154t-85.5 -109.5t-62.5 -68.5z" />
<glyph unicode="*" horiz-adv-x="911" d="M616 993l158 -196l-180 -131l-137 211l-138 -211l-180 129l160 200l-248 66l68 209l239 -90l-12 254h221l-12 -254l238 90l67 -209z" />
<glyph unicode="+" d="M1126 563h-399v-403h-225v403h-400v215h400v404h225v-404h399v-215z" />
<glyph unicode="," horiz-adv-x="622" d="M500 127q0 -165 -105.5 -259.5t-247.5 -94.5v90q71 0 123 48.5t52 106.5q-74 -17 -136.5 31t-62.5 123q0 72 51.5 124t126.5 52q90 0 143 -57.5t56 -163.5z" />
<glyph unicode="-" horiz-adv-x="942" d="M850 793v-246h-758v246h758z" />
<glyph unicode="." horiz-adv-x="634" d="M317 -41q-78 0 -131 53t-53 131q0 77 53 131t131 54q77 0 131 -54t54 -131q0 -78 -54 -131t-131 -53z" />
<glyph unicode="/" horiz-adv-x="972" d="M973 1495l-727 -1556h-246l727 1556h246z" />
<glyph unicode="0" horiz-adv-x="1187" d="M594 -31q-150 0 -267.5 82.5t-181 224.5t-63.5 318q0 177 64 319t181 224t267 82q151 0 268 -82t180.5 -224t63.5 -319q0 -176 -63.5 -318t-181 -224.5t-267.5 -82.5zM594 205q81 0 137.5 53t82.5 138.5t26 197.5t-26 197.5t-82.5 138.5t-137.5 53t-137.5 -53 t-82.5 -138.5t-26 -197.5t26 -197.5t82.5 -138.5t137.5 -53z" />
<glyph unicode="1" horiz-adv-x="880" d="M860 225v-225h-778v225h276v553h-276v185q37 0 63 1t61 6t58.5 14t49 25.5t40.5 40t25 58.5t10 80h217v-963h254z" />
<glyph unicode="2" horiz-adv-x="1067" d="M1006 225v-225h-922v236l661 458v209q-74 70 -190 70q-52 0 -99.5 -17.5t-78 -42t-53.5 -49t-33 -42.5l-10 -17l-220 125q2 6 6.5 16.5t23.5 40.5t43 57t66.5 60.5t93 57.5t124 40.5t157.5 16.5q63 0 121 -13t99.5 -33.5t77.5 -45t59.5 -49t40 -45t23.5 -33.5l8 -13v-405 l-521 -357h523z" />
<glyph unicode="3" horiz-adv-x="1054" d="M963 963l-318 -295q149 0 248.5 -119t99.5 -305q0 -196 -137.5 -326.5t-335.5 -130.5q-69 0 -133 16.5t-111 42.5t-87 57.5t-66.5 63.5t-45.5 58t-27 43l-9 16l182 139q4 -8 12 -21.5t35.5 -48t57.5 -61t76 -48t94 -21.5q106 0 169.5 64.5t63.5 170.5q0 96 -57.5 159.5 t-147.5 63.5q-45 0 -87 -11.5t-61 -22.5l-20 -11l-129 164l387 363h-493v225h840v-225z" />
<glyph unicode="4" horiz-adv-x="1206" d="M1176 225v-225h-195v-287h-266v287h-654v246l592 942h328v-963h195zM715 225v604l-381 -604h381z" />
<glyph unicode="5" horiz-adv-x="1075" d="M586 770q84 0 160.5 -31.5t136.5 -90t95.5 -149.5t35.5 -202q0 -119 -37.5 -216t-102.5 -161t-152 -98.5t-187 -34.5q-71 0 -135.5 16t-111 41t-86 55.5t-65 61.5t-43.5 56t-26 41l-7 16l201 119q3 -7 10 -19t30.5 -42.5t50.5 -54t70.5 -42.5t90.5 -19q115 0 178.5 69 t63.5 181q0 124 -57.5 198.5t-163.5 74.5q-130 0 -195 -107l-33 -88h-194l61 844h737v-225h-499l-21 -246q84 53 195 53z" />
<glyph unicode="6" horiz-adv-x="1126" d="M922 1141h-129q-89 0 -173 -34.5t-145 -90.5t-98 -130.5t-37 -152.5l5 9q5 8 14.5 22t24.5 31t38.5 34t52.5 31t71.5 22.5t90.5 8.5q85 0 161.5 -30t136 -85t95 -142.5t35.5 -193.5q0 -123 -55.5 -228.5t-167.5 -174t-260 -68.5q-236 0 -368 187.5t-132 513.5 q0 133 52 260t142.5 226.5t226 160.5t290.5 61h129v-237zM586 203q95 0 156 65.5t61 161.5q0 102 -59.5 160.5t-151.5 58.5q-93 0 -153 -63t-60 -158t56.5 -160t150.5 -65z" />
<glyph unicode="7" horiz-adv-x="921" d="M901 1188v-246q-223 -177 -331.5 -394.5t-139.5 -547.5h-266q9 166 45.5 314.5t82 248.5t105 186.5t103 132t88.5 81.5h-568v225h881z" />
<glyph unicode="8" horiz-adv-x="1142" d="M885 791q82 -66 129 -157.5t47 -193.5q0 -103 -42 -192.5t-111 -149.5t-157 -94.5t-180 -34.5q-124 0 -235 57.5t-182.5 167.5t-71.5 246q0 102 47 193.5t129 157.5q-115 103 -115 249q0 153 122.5 258t305.5 105t305.5 -105t122.5 -258q0 -147 -114 -249zM571 891 q69 0 115.5 44t46.5 105t-46.5 104.5t-115.5 43.5t-115 -43.5t-46 -104.5t46 -105t115 -44zM571 205q95 0 164.5 71t69.5 175q0 105 -69 175t-165 70t-164.5 -70t-68.5 -175q0 -104 69 -175t164 -71z" />
<glyph unicode="9" horiz-adv-x="1136" d="M236 47h108q183 0 316 115.5t133 273.5l-5 -8q-4 -7 -13.5 -19.5t-24 -27t-37.5 -29.5t-52 -27.5t-71 -20t-90 -7.5q-85 0 -161.5 30t-136 85t-95 142.5t-35.5 193.5q0 123 55.5 228.5t167.5 174t260 68.5q236 0 368 -187.5t132 -513.5q0 -197 -87.5 -358t-251 -255.5 t-372.5 -94.5h-108v237zM551 985q-95 0 -156 -66.5t-61 -160.5q0 -101 60 -160t151 -59q93 0 153 63t60 158t-56.5 160t-150.5 65z" />
<glyph unicode=":" horiz-adv-x="634" d="M317 676q-78 0 -131 53t-53 131q0 77 53 130.5t131 53.5q77 0 131 -54t54 -130q0 -78 -54 -131t-131 -53zM317 -20q-78 0 -131 53t-53 131q0 77 53 130.5t131 53.5q77 0 131 -54t54 -130q0 -78 -54 -131t-131 -53z" />
<glyph unicode=";" horiz-adv-x="643" d="M319 676q-78 0 -131 53t-53 131q0 77 53 130.5t131 53.5q77 0 131 -54t54 -130q0 -78 -54 -131t-131 -53zM510 127q0 -165 -105 -259.5t-247 -94.5v90q71 0 122.5 48.5t51.5 106.5q-74 -17 -136.5 31t-62.5 123q0 72 51.5 124t126.5 52q90 0 143 -57.5t56 -163.5z" />
<glyph unicode="&#x3c;" horiz-adv-x="1167" d="M72 670l1024 434v-281l-750 -291l750 -290v-281l-1024 434v275z" />
<glyph unicode="=" horiz-adv-x="1269" d="M1147 983v-215h-1024v215h1024zM1147 573v-215h-1024v215h1024z" />
<glyph unicode="&#x3e;" horiz-adv-x="1167" d="M72 -39v283l749 288l-749 291v281l1024 -434v-275z" />
<glyph unicode="?" horiz-adv-x="944" d="M473 1464q176 0 293 -103t117 -255q0 -73 -21.5 -133.5t-54 -100t-73.5 -75t-77 -59t-67.5 -51.5t-42.5 -54v-211h-215v301q21 45 54 81.5t65.5 58t66.5 46t60 46.5t42.5 57.5t16.5 81.5q0 56 -47 95.5t-115 39.5q-39 0 -75.5 -17.5t-59.5 -42t-40.5 -49t-25.5 -42.5 l-8 -17l-205 115q64 135 167.5 211.5t244.5 76.5zM438 -20q-69 0 -116.5 47t-47.5 116q0 68 47.5 116t116.5 48q68 0 116 -48.5t48 -115.5q0 -69 -48 -116t-116 -47z" />
<glyph unicode="@" horiz-adv-x="1710" d="M1251 1053l-84 -586h222q34 98 34 221q0 257 -154.5 414.5t-406.5 157.5q-253 0 -409 -157.5t-156 -414.5q0 -259 155.5 -417t409.5 -158q163 0 289 69l113 -172q-178 -102 -402 -102q-223 0 -401 100t-278.5 278.5t-100.5 401.5q0 166 59 310.5t161.5 246.5t247.5 160.5 t312 58.5q166 0 310.5 -58.5t246.5 -160.5t160.5 -246.5t58.5 -310.5q0 -206 -104 -399h-555l-23 59q-75 -65 -176 -65q-123 0 -224 106t-101 256q0 105 31 193t82.5 143.5t116 86t132.5 30.5q143 0 232 -103l8 58h194zM670 666q0 -82 44.5 -142.5t123.5 -60.5 q68 0 123 61.5t55 182.5q0 38 -8.5 72t-26 64t-49 48t-74.5 18q-81 0 -134.5 -73t-53.5 -170z" />
<glyph unicode="A" horiz-adv-x="1351" d="M932 340h-512l-113 -340h-287l492 1434h328l491 -1434h-287zM852 582l-176 526l-174 -526h350z" />
<glyph unicode="B" horiz-adv-x="1249" d="M913 803q92 -28 151 -86t81 -123.5t22 -144.5q0 -156 -72 -268.5t-198 -180.5h-733v1434h563q160 0 269.5 -101.5t109.5 -257.5q0 -79 -49.5 -154.5t-143.5 -117.5zM430 920h297q40 0 76.5 41.5t36.5 93.5t-36.5 93.5t-76.5 41.5h-297v-270zM430 244h356q58 31 97 88.5 t39 136.5q0 90 -60.5 144.5t-148.5 62.5l-283 2v-434z" />
<glyph unicode="C" horiz-adv-x="1406" d="M1100 492l235 -127q-3 -8 -10 -22.5t-32.5 -55.5t-55.5 -78.5t-81 -83t-107 -78.5t-135.5 -55.5t-165.5 -22.5q-181 0 -334 99.5t-242.5 272t-89.5 376.5q0 154 53 292.5t142 238t212.5 158t258.5 58.5q86 0 164 -22t135 -56.5t105.5 -77t80 -84.5t54 -76.5t32.5 -56.5 l10 -22l-235 -127q-5 11 -14 29t-41.5 63.5t-69 81t-96.5 64t-125 28.5q-102 0 -192.5 -68.5t-144 -182t-53.5 -240.5t53.5 -241t144 -182.5t192.5 -68.5q67 0 128 27.5t100 66.5t68.5 78.5t42.5 66.5z" />
<glyph unicode="D" horiz-adv-x="1372" d="M164 1434h430q143 0 271 -56.5t221.5 -154.5t148.5 -239t55 -302q0 -232 -108 -413t-289 -269h-729v1434zM430 244h369q91 68 153 190.5t62 247.5q0 126 -59 244t-157 191t-204 73h-164v-946z" />
<glyph unicode="E" d="M1106 246v-246h-942v1434h921v-246h-655v-340h553v-242h-553v-360h676z" />
<glyph unicode="F" horiz-adv-x="1167" d="M430 1188v-340h553v-242h-553v-606h-266v1434h942v-246h-676z" />
<glyph unicode="G" horiz-adv-x="1447" d="M690 766h635v-766h-225l-21 123q-57 -73 -144 -113.5t-187 -40.5q-181 0 -334 99.5t-242.5 272t-89.5 376.5q0 154 53 292.5t142 238t212.5 158t258.5 58.5q86 0 164.5 -22t136 -56.5t106.5 -77t81.5 -84.5t55.5 -76.5t33 -56.5l10 -22l-235 -127q-4 11 -12.5 29 t-39.5 63.5t-68 81t-99.5 64t-132.5 28.5q-102 0 -192.5 -68.5t-144 -182t-53.5 -240.5t53.5 -241t144 -182.5t192.5 -68.5q151 0 241 73.5t90 225.5h-389v242z" />
<glyph unicode="H" horiz-adv-x="1433" d="M1270 1434v-1434h-271v604h-565v-604h-270v1434h270v-584h565v584h271z" />
<glyph unicode="I" horiz-adv-x="593" d="M430 1434v-1434h-266v1434h266z" />
<glyph unicode="J" horiz-adv-x="1173" d="M1020 1434v-930q0 -108 -42 -207t-112.5 -171t-169 -114.5t-207.5 -42.5q-137 0 -256 66.5t-192 179.5v379h266v-291q30 -40 90 -64t111 -24q99 0 172.5 91.5t73.5 197.5v684h-426v246h692z" />
<glyph unicode="K" horiz-adv-x="1300" d="M973 0l-346 567q-111 -69 -201 -114v-453h-262v1434h262v-680q242 147 434 372v308h266v-410q-136 -172 -295 -303l449 -721h-307z" />
<glyph unicode="L" horiz-adv-x="1157" d="M1106 246v-246h-942v1434h266v-1188h676z" />
<glyph unicode="M" horiz-adv-x="1689" d="M1526 1434v-1434h-256v817l-285 -817h-280l-285 817v-817h-256v1434h276l402 -1108l387 1108h297z" />
<glyph unicode="N" horiz-adv-x="1433" d="M1270 1434v-1434h-256l-594 946v-946h-256v1434h256l594 -947v947h256z" />
<glyph unicode="O" horiz-adv-x="1495" d="M748 -31q-181 0 -334 99.5t-242.5 272t-89.5 376.5q0 154 53 292.5t142 238t212.5 158t258.5 58.5q136 0 259 -58.5t212 -158t141.5 -238t52.5 -292.5q0 -153 -52.5 -292t-141.5 -238.5t-212 -158.5t-259 -59zM748 225q111 0 201.5 69.5t139 181.5t48.5 241t-48.5 241 t-139 181t-201.5 69t-201.5 -69t-139.5 -181t-49 -241t49 -241t139.5 -181.5t201.5 -69.5z" />
<glyph unicode="P" d="M164 1434h491q140 0 258 -68.5t186 -186.5t68 -257q0 -156 -85.5 -284t-225.5 -187h-426v-451h-266v1434zM430 696h342q51 35 90 101.5t39 126.5q0 95 -77 180.5t-169 85.5h-225v-494z" />
<glyph unicode="Q" horiz-adv-x="1495" d="M1188 154q43 -31 143 -31h43v-246h-84q-266 0 -356 121q-95 -29 -186 -29q-181 0 -334 99.5t-242.5 272t-89.5 376.5q0 154 53 292.5t142 238t212.5 158t258.5 58.5q136 0 259 -58.5t212 -158t141.5 -238t52.5 -292.5q0 -165 -60 -311.5t-165 -251.5zM358 717 q0 -127 53.5 -241t144 -182.5t192.5 -68.5t192.5 68.5t143.5 182.5t53 241t-53 240.5t-143.5 182t-192.5 68.5t-192.5 -68.5t-144 -182t-53.5 -240.5z" />
<glyph unicode="R" horiz-adv-x="1267" d="M653 492h-227v-492h-262v1434h491q140 0 258 -68.5t186 -186.5t68 -257q0 -114 -69.5 -225.5t-184.5 -168.5l273 -528h-287zM426 737h383q46 36 69 81t23 118q0 110 -74 182t-172 72h-229v-453z" />
<glyph unicode="S" horiz-adv-x="1177" d="M983 1253l-229 -120q-92 86 -164 86q-60 0 -98.5 -36.5t-38.5 -80.5q0 -38 22.5 -68t77.5 -61l242 -135q77 -43 130.5 -83t96.5 -91t63.5 -114.5t20.5 -141.5q0 -181 -153.5 -310t-368.5 -129q-94 0 -177 26.5t-137.5 63t-100.5 86t-68.5 84t-39.5 68.5l238 127 q145 -205 322 -205q82 0 144 52t62 132q0 60 -40.5 105.5t-122.5 91.5l-242 135q-47 27 -78 47t-68.5 53t-59.5 67t-37 83t-15 107q0 151 124 261.5t310 110.5q56 0 108 -11.5t89.5 -30t70 -41.5t53.5 -45.5t36 -41t21 -30.5z" />
<glyph unicode="T" horiz-adv-x="1167" d="M1137 1188h-418v-1188h-270v1188h-418v246h1106v-246z" />
<glyph unicode="U" horiz-adv-x="1392" d="M1239 1434v-850q0 -294 -148.5 -454.5t-394.5 -160.5t-394 160.5t-148 454.5v850h270v-850q0 -187 74.5 -274t197.5 -87t198 87t75 274v850h270z" />
<glyph unicode="V" horiz-adv-x="1290" d="M809 0h-328l-461 1434h308l317 -1100l318 1100h307z" />
<glyph unicode="W" horiz-adv-x="1863" d="M1454 0h-307l-215 991l-215 -991h-307l-379 1434h282l252 -1010l203 1010h328l202 -1010l252 1010h283z" />
<glyph unicode="X" horiz-adv-x="1331" d="M973 0l-307 489l-308 -489h-327l473 745l-432 689h317l277 -435l276 435h318l-433 -689l473 -745h-327z" />
<glyph unicode="Y" horiz-adv-x="1208" d="M901 1434h287q-101 -471 -451 -834v-600h-266v600q-350 363 -451 834h267q83 -326 317 -600q209 256 297 600z" />
<glyph unicode="Z" horiz-adv-x="1126" d="M1044 246v-246h-962v256l635 932h-615v246h932v-256l-635 -932h645z" />
<glyph unicode="[" horiz-adv-x="624" d="M389 1434v-1557h225v-205h-450v1966h450v-204h-225z" />
<glyph unicode="\" horiz-adv-x="1024" d="M1024 -61h-256l-768 1556h256z" />
<glyph unicode="]" horiz-adv-x="624" d="M461 1638v-1966h-451v205h226v1557h-226v204h451z" />
<glyph unicode="^" horiz-adv-x="1083" d="M680 1434l373 -697h-267l-243 463l-244 -463h-268l375 697h274z" />
<glyph unicode="_" horiz-adv-x="1064" d="M1044 0v-236h-1024v236h1024z" />
<glyph unicode="`" horiz-adv-x="552" d="M352 1434l150 -308h-236l-215 308h301z" />
<glyph unicode="a" horiz-adv-x="1120" d="M1049 236v-236h-62q-144 0 -237 111q-48 -64 -127.5 -103t-167.5 -39q-109 0 -190 42.5t-161 127.5v340q22 29 60.5 51.5t92.5 38t95.5 23.5t102.5 18q63 10 106.5 23t66.5 24.5t35 27t14.5 26t2.5 26.5q0 46 -48 71.5t-132 25.5q-49 0 -89 -13.5t-63 -33t-38.5 -39 t-21.5 -32.5l-5 -14l-201 115q57 113 156.5 175.5t261.5 62.5q216 0 326 -92t110 -263v-362q0 -43 29.5 -72.5t72.5 -29.5h11zM496 190q81 0 132.5 47t51.5 148v84q-49 -29 -175 -48.5t-169 -45.5v-133q74 -52 160 -52z" />
<glyph unicode="b" horiz-adv-x="1189" d="M670 1055q130 0 233 -72.5t159 -196t56 -274.5q0 -150 -56 -273.5t-159 -196.5t-233 -73q-174 0 -271 133l-24 -102h-232v1464h252v-546q97 137 275 137zM629 215q106 0 169.5 85t63.5 212q0 128 -63.5 212.5t-169.5 84.5t-170 -84.5t-64 -212.5q0 -127 64 -212t170 -85z " />
<glyph unicode="c" horiz-adv-x="1054" d="M774 381l217 -127l-8 -16t-24.5 -40t-42 -57t-60 -59.5t-78.5 -56.5t-98.5 -40t-118.5 -16q-131 0 -243.5 72.5t-179 197.5t-66.5 273q0 149 66.5 274t179 197t243.5 72q61 0 118 -16t99.5 -41.5t79 -56.5t60.5 -61.5t41.5 -56t25.5 -41.5l8 -16l-219 -125q-2 7 -6 18 t-21 40t-38.5 51.5t-61 40.5t-86.5 18q-106 0 -169.5 -84.5t-63.5 -212.5q0 -127 63.5 -212t169.5 -85q46 0 85.5 17t62 41.5t38 49t21.5 41.5z" />
<glyph unicode="d" horiz-adv-x="1183" d="M1040 1464v-1464h-235l-25 102q-97 -133 -270 -133q-130 0 -233.5 73t-159.5 196.5t-56 273.5q0 151 56 274.5t159.5 196t233.5 72.5q177 0 274 -137v546h256zM551 215q106 0 169.5 85t63.5 212q0 128 -63.5 212.5t-169.5 84.5t-170 -84.5t-64 -212.5q0 -127 64 -212 t170 -85z" />
<glyph unicode="e" horiz-adv-x="1069" d="M797 281l180 -164q-5 -6 -15.5 -16t-46.5 -35.5t-75.5 -45t-102 -35.5t-127.5 -16q-146 0 -270 73t-196 198t-72 272q0 148 72 273t196 197.5t270 72.5q208 0 363 -142v-501h-651q31 -89 110 -145t178 -56q37 0 69.5 7t53 17.5t36 21t21.5 17.5zM610 813q-100 0 -180 -58 t-111 -149h420v180q-49 27 -129 27z" />
<glyph unicode="f" horiz-adv-x="690" d="M659 1024v-236h-239v-788h-256v788h-133v236h133v123q0 127 91.5 217t219.5 90h123v-235h-76q-43 0 -72.5 -30t-29.5 -73v-92h239z" />
<glyph unicode="g" horiz-adv-x="1071" d="M999 809h-86q17 -60 17 -115q0 -116 -56 -198.5t-149 -121t-215 -38.5q-66 0 -125 12q-9 -14 -11 -27t5 -24.5t22 -20t41.5 -13.5t61.5 -5h53q66 0 114.5 -3t100 -13t89.5 -28t72.5 -48.5t59.5 -73.5v-371q-67 -80 -185 -120.5t-251 -40.5q-125 0 -235 46.5t-180 134.5 t-70 198q0 35 11.5 67t28 52.5t33 35.5t27.5 22l12 7q-46 41 -50 96t24 104.5t78 86.5q-144 91 -144 284q0 175 116 268t302 93q105 0 190 -31h299v-215zM510 530q72 0 123 49t51 115q0 68 -51 117t-123 49q-70 0 -121 -49t-51 -117q0 -66 51 -115t121 -49zM557 43 q-78 0 -130 3t-65 6l-12 3q-6 -4 -15 -12t-23.5 -38t-14.5 -66q0 -69 67 -119.5t197 -50.5q129 0 191 51v188q-61 35 -195 35z" />
<glyph unicode="h" horiz-adv-x="1159" d="M686 1055q104 0 193.5 -49.5t146.5 -133.5v-872h-256v776q-61 33 -123 33q-101 0 -173.5 -72.5t-72.5 -173.5v-563h-258v1464h258v-559q105 150 285 150z" />
<glyph unicode="i" horiz-adv-x="552" d="M276 1157q-69 0 -116 47.5t-47 116.5q0 68 47 116t116 48q68 0 116 -48.5t48 -115.5q0 -69 -48 -116.5t-116 -47.5zM406 1024h-261v-1024h261v1024z" />
<glyph unicode="j" horiz-adv-x="530" d="M254 1157q-69 0 -116.5 47.5t-47.5 116.5q0 68 47.5 116t116.5 48q68 0 116 -48.5t48 -115.5q0 -69 -48 -116.5t-116 -47.5zM127 1024h256v-1126q0 -127 -91.5 -217.5t-219.5 -90.5h-123v236h76q43 0 72.5 29.5t29.5 72.5v1096z" />
<glyph unicode="k" horiz-adv-x="1067" d="M760 0l-221 408q-74 -33 -144 -50v-358h-252v1464h252v-856q146 51 264 166v250h252v-348q-71 -80 -153 -144l289 -532h-287z" />
<glyph unicode="l" horiz-adv-x="690" d="M578 236v-236h-123q-128 0 -220 90t-92 217v1157h260v-1126q0 -43 30 -72.5t73 -29.5h72z" />
<glyph unicode="m" horiz-adv-x="1638" d="M1198 1055q98 0 180 -50t127 -133v-872h-256v780q-47 29 -100 29q-79 0 -137 -57.5t-58 -137.5h-2v-614h-256v780q-50 29 -102 29q-80 0 -137.5 -57.5t-57.5 -137.5v-614h-256v1024h236l24 -98q90 129 250 129q82 0 155 -38t118 -102q108 140 272 140z" />
<glyph unicode="n" horiz-adv-x="1159" d="M682 1055q104 0 195.5 -50t148.5 -133v-872h-260v776q-61 33 -123 33q-101 0 -173.5 -72.5t-72.5 -173.5v-563h-254v1024h234l26 -111q106 142 279 142z" />
<glyph unicode="o" horiz-adv-x="1163" d="M582 -31q-98 0 -191.5 43t-163.5 115t-112.5 173.5t-42.5 211.5q0 111 42.5 212.5t112.5 173.5t163.5 114.5t191.5 42.5t191.5 -42.5t163.5 -114.5t112.5 -173.5t42.5 -212.5q0 -110 -42.5 -211.5t-112.5 -173.5t-163.5 -115t-191.5 -43zM582 219q108 0 178.5 84.5 t70.5 208.5q0 125 -70.5 209t-178.5 84t-179 -84t-71 -209q0 -124 71 -208.5t179 -84.5z" />
<glyph unicode="p" horiz-adv-x="1189" d="M670 1055q130 0 233 -73t159 -196.5t56 -273.5q0 -151 -56 -274.5t-159 -196t-233 -72.5q-178 0 -275 137v-516h-252v1434h232l24 -102q97 133 271 133zM629 215q106 0 169.5 84.5t63.5 212.5q0 127 -63.5 212t-169.5 85t-170 -85t-64 -212q0 -128 64 -212.5t170 -84.5z " />
<glyph unicode="q" horiz-adv-x="1179" d="M1047 1024v-1434h-252v516q-97 -137 -275 -137q-130 0 -233 72.5t-159 196t-56 274.5q0 150 56 273.5t159 196.5t233 73q174 0 271 -133l24 102h232zM561 215q106 0 170 84.5t64 212.5q0 127 -64 212t-170 85t-169.5 -85t-63.5 -212q0 -128 63.5 -212.5t169.5 -84.5z" />
<glyph unicode="r" horiz-adv-x="780" d="M739 1024v-236h-71q-265 0 -265 -245v-543h-260v1024h240l31 -121q74 121 202 121h123z" />
<glyph unicode="s" horiz-adv-x="909" d="M797 834l-201 -127q-2 5 -5.5 13.5t-17 30.5t-29.5 39t-41.5 30.5t-53.5 13.5q-47 0 -76 -22.5t-29 -57.5q0 -70 80 -101l188 -75q48 -20 84.5 -42.5t71 -58t52.5 -87t18 -116.5q0 -131 -103.5 -218t-269.5 -87q-66 0 -123.5 13t-97.5 34t-73 46.5t-52.5 51t-33.5 46.5 t-19 34l-5 13l224 112q1 -5 4 -13.5t16 -30t29.5 -37.5t46 -29.5t65.5 -13.5q66 0 97.5 24.5t31.5 61.5q0 72 -100 112l-156 62q-122 48 -176.5 127t-54.5 192q0 111 97.5 196t242.5 85q53 0 102.5 -12t85.5 -31.5t67 -43t51.5 -47.5t35 -43.5t20.5 -31.5z" />
<glyph unicode="t" horiz-adv-x="741" d="M420 788v-450q0 -43 29.5 -72.5t72.5 -29.5h76v-236h-123q-128 0 -219.5 90t-91.5 217v481h-133v236h71q34 0 58 24t24 58v205h236v-287h239v-236h-239z" />
<glyph unicode="u" horiz-adv-x="1155" d="M1022 1024v-1024h-236l-20 84q-94 -115 -264 -115q-148 0 -258.5 113.5t-110.5 255.5v686h256v-625q0 -75 49.5 -129.5t124.5 -54.5t123.5 20.5t79.5 79.5v709h256z" />
<glyph unicode="v" horiz-adv-x="1105" d="M696 0h-286l-390 1024h277l256 -739l256 739h276z" />
<glyph unicode="w" horiz-adv-x="1499" d="M1182 0h-267l-165 713l-164 -713h-267l-299 1024h273l176 -674l156 674h249l156 -674l176 674h273z" />
<glyph unicode="x" horiz-adv-x="1046" d="M524 319l-207 -319h-297l357 526l-336 498h297l186 -291l185 291h297l-336 -498l356 -526h-297z" />
<glyph unicode="y" horiz-adv-x="1075" d="M778 1024h277q-53 -168 -350 -1065q-32 -97 -71 -165.5t-77 -108t-87 -61t-91 -28t-100 -6.5h-123v226h71q25 0 45.5 3t48 14t49.5 30t44 54t37 83l-431 1024h277l276 -700z" />
<glyph unicode="z" horiz-adv-x="1003" d="M932 0h-860v242l516 546h-475v236h798v-242l-516 -546h537v-236z" />
<glyph unicode="{" horiz-adv-x="716" d="M481 1300v-419q0 -175 -135 -226q135 -51 135 -225v-420q0 -143 123 -143h103v-195h-175q-123 0 -194.5 88t-71.5 220v419q0 21 -2.5 37.5t-13 38.5t-28 38t-51 30t-79.5 20v185q57 7 94.5 25t53 43.5t21 46.5t5.5 48v420q0 132 71 219.5t195 87.5h175v-194h-103 q-123 0 -123 -144z" />
<glyph unicode="|" horiz-adv-x="552" d="M389 1638v-1966h-225v1966h225z" />
<glyph unicode="}" horiz-adv-x="716" d="M451 1331v-420q0 -27 5.5 -48t21 -46.5t53 -43.5t94.5 -25v-185q-46 -6 -79.5 -20t-51 -30t-28 -38t-13 -38.5t-2.5 -37.5v-419q0 -132 -71.5 -220t-195.5 -88h-174v195h103q123 0 123 143v420q0 174 135 225q-135 51 -135 226v419q0 144 -123 144h-103v194h174 q124 0 195.5 -87.5t71.5 -219.5z" />
<glyph unicode="~" horiz-adv-x="1189" d="M207 528l-156 107q6 8 16 22t44.5 49.5t71.5 62.5t94 49t114 22q62 0 121 -18.5t98.5 -40t90.5 -40t98 -18.5q45 0 91 23t70 46l23 23l156 -106q-6 -8 -16 -22t-44.5 -49.5t-71.5 -62.5t-94 -49t-114 -22q-62 0 -121 18.5t-98.5 40t-90.5 40t-98 18.5q-45 0 -91 -23.5 t-70 -46.5z" />
<glyph unicode="&#xa1;" horiz-adv-x="614" d="M307 1044q69 0 116.5 -47t47.5 -116q0 -68 -47.5 -116t-116.5 -48q-67 0 -115.5 48.5t-48.5 115.5q0 69 48 116t116 47zM147 -410h318l-72 1010h-174z" />
<glyph unicode="&#xa2;" horiz-adv-x="1069" d="M563 385q45 0 85 17t64 41t41.5 48t24.5 41l8 17l199 -117q-4 -9 -12 -24t-38 -55.5t-64.5 -74t-92 -67t-121.5 -47.5l2 -164h-215l2 170q-157 43 -260.5 187t-103.5 329q0 186 103 329.5t261 186.5l-2 170h215l-2 -164q64 -14 121.5 -47.5t94 -70.5t63.5 -72.5t39 -58.5 l12 -23l-194 -111q-3 7 -8.5 17.5t-25.5 38.5t-44 49.5t-65 39t-87 17.5q-105 0 -172 -88t-67 -213q0 -124 67 -212.5t172 -88.5z" />
<glyph unicode="&#xa3;" horiz-adv-x="1181" d="M1141 379v-109q0 -116 -81 -193t-216 -77h-721v215q9 6 24.5 17.5t54.5 48.5t69 75.5t54.5 95t24.5 111.5v23h-227v194h158q-54 122 -54 219q0 56 14.5 110.5t48 108.5t83.5 94.5t127 65.5t172 25q87 0 160 -25t116 -60.5t73.5 -71t42.5 -60.5l11 -25l-196 -106 q-2 5 -7 13.5t-23 29.5t-39.5 37t-58.5 29.5t-79 13.5q-34 0 -67.5 -9.5t-64 -29.5t-49 -56.5t-18.5 -83.5q0 -25 3.5 -47.5t12.5 -48t14.5 -38.5t20.5 -44.5t19 -40.5h383v-194h-330v-23q0 -62 -21 -120t-51 -96t-60.5 -67t-51.5 -42l-21 -13h445q37 0 63.5 26.5t26.5 63.5 v64h215z" />
<glyph unicode="&#xa4;" horiz-adv-x="1212" d="M1096 512q0 -143 -78 -264l123 -119l-152 -152l-119 119q-122 -86 -264 -86t-264 86l-119 -119l-151 152l123 119q-78 121 -78 264q0 138 76 264l-121 117l151 154l117 -119q125 86 266 86t266 -86l117 119l152 -154l-121 -117q76 -126 76 -264zM606 246q99 0 171.5 77.5 t72.5 188.5q0 112 -72 189t-172 77t-172 -77t-72 -189q0 -111 72.5 -188.5t171.5 -77.5z" />
<glyph unicode="&#xa5;" horiz-adv-x="1200" d="M905 1372h254q-67 -329 -276 -612h178v-195h-342v-143h342v-195h-342v-227h-238v227h-342v195h342v143h-342v195h178q-206 284 -276 612h235q29 -149 117.5 -309.5t206.5 -304.5q111 137 193 298.5t112 315.5z" />
<glyph unicode="&#xa6;" horiz-adv-x="552" d="M389 1638v-819h-225v819h225zM389 492v-820h-225v820h225z" />
<glyph unicode="&#xa7;" horiz-adv-x="1210" d="M915 272q81 -63 121.5 -138.5t40.5 -178.5q0 -107 -63.5 -198t-172.5 -144t-237 -53q-84 0 -159 24t-124 57t-90.5 77.5t-62 76t-35.5 62.5l215 114q124 -174 291 -174q70 0 121 46.5t51 107.5q0 57 -31.5 98t-101.5 80l-219 123q-43 24 -71 42t-62 47.5t-54 60t-33.5 75 t-13.5 96.5q0 78 47.5 146t137.5 115q-41 26 -71 50.5t-57.5 60t-42 81.5t-14.5 102q0 136 111.5 236t279.5 100q79 0 150.5 -26t117 -63t79 -74t48.5 -63l15 -26l-207 -108q-3 5 -8.5 14t-23.5 31t-38.5 39t-53 31t-66.5 14q-65 0 -99 -27.5t-34 -68.5q0 -36 16.5 -60.5 t65.5 -52.5l219 -123q93 -52 150.5 -102t92.5 -122.5t35 -166.5q0 -76 -42 -139.5t-118 -98.5zM676 684l-98 55q-82 -33 -82 -121q0 -47 26.5 -89.5t108.5 -88.5l106 -59q74 48 74 125q0 56 -32.5 97.5t-102.5 80.5z" />
<glyph unicode="&#xa8;" horiz-adv-x="806" d="M195 1147q-60 0 -102 41.5t-42 101.5q0 59 42 101.5t102 42.5q58 0 100.5 -42.5t42.5 -101.5q0 -60 -42 -101.5t-101 -41.5zM612 1147q-60 0 -101.5 41.5t-41.5 101.5q0 59 41.5 101.5t101.5 42.5q58 0 101 -43t43 -101q0 -60 -42.5 -101.5t-101.5 -41.5z" />
<glyph unicode="&#xa9;" horiz-adv-x="1658" d="M829 -31q-156 0 -295 57.5t-238 157t-156.5 238t-57.5 295.5q0 156 57.5 294.5t156.5 237.5t238 157t295 58t295 -58t238.5 -157t157 -237.5t57.5 -294.5q0 -209 -98 -380.5t-269.5 -269.5t-380.5 -98zM829 113q165 0 301.5 80.5t214.5 219t78 304.5t-78 304.5 t-214.5 219t-301.5 80.5t-301.5 -80.5t-214 -219t-77.5 -304.5t77.5 -304.5t214 -219t301.5 -80.5zM1038 586l138 -76q-4 -10 -12 -25.5t-38 -56t-66.5 -71t-98.5 -56t-132 -25.5q-161 0 -276 129t-115 312q0 184 114.5 312t276.5 128q69 0 130.5 -24t99 -58.5t65 -68.5 t38.5 -58l12 -24l-142 -72q-3 6 -8 16.5t-24 37.5t-40.5 47.5t-57 37.5t-73.5 17q-92 0 -159.5 -87.5t-67.5 -203.5q0 -115 67.5 -201t159.5 -86q39 0 75.5 16t59.5 39t40.5 46t25.5 39z" />
<glyph unicode="&#xab;" horiz-adv-x="1032" d="M319 633l252 -291l-149 -152l-371 443l371 442l149 -151zM750 633l251 -291l-149 -152l-371 443l371 442l149 -151z" />
<glyph unicode="&#xac;" d="M1116 963v-625h-225v410h-799v215h1024z" />
<glyph unicode="&#xad;" horiz-adv-x="942" d="M850 793v-246h-758v246h758z" />
<glyph unicode="&#xae;" horiz-adv-x="1658" d="M829 -31q-156 0 -295 57.5t-238 157t-156.5 238t-57.5 295.5q0 156 57.5 294.5t156.5 237.5t238 157t295 58t295 -58t238.5 -157t157 -237.5t57.5 -294.5q0 -209 -98 -380.5t-269.5 -269.5t-380.5 -98zM829 113q165 0 301.5 80.5t214.5 219t78 304.5t-78 304.5 t-214.5 219t-301.5 80.5t-301.5 -80.5t-214 -219t-77.5 -304.5t77.5 -304.5t214 -219t301.5 -80.5zM721 596v-281h-152v822h283q123 0 208 -85.5t85 -207.5q0 -65 -39 -129t-105 -97l158 -303h-166l-139 281h-133zM729 737h219q53 43 53 115q0 63 -42.5 105t-98.5 42h-131 v-262z" />
<glyph unicode="&#xaf;" horiz-adv-x="686" d="M635 1434v-195h-584v195h584z" />
<glyph unicode="&#xb0;" horiz-adv-x="737" d="M369 717q-139 0 -233.5 93t-94.5 234t94.5 234.5t233.5 93.5t233 -93t94 -235q0 -141 -94 -234t-233 -93zM369 905q60 0 98.5 39.5t38.5 99.5t-38.5 99t-98.5 39t-100 -39t-40 -99t40 -99.5t100 -39.5z" />
<glyph unicode="&#xb1;" horiz-adv-x="1269" d="M1147 881v-215h-399v-301h-226v301h-399v215h399v301h226v-301h399zM123 256h1024v-215h-1024v215z" />
<glyph unicode="&#xb4;" horiz-adv-x="555" d="M289 1126h-238l150 308h303z" />
<glyph unicode="&#xb6;" horiz-adv-x="1232" d="M1202 1239h-164v-1649h-184v1649h-160v-1649h-184v1010q-88 0 -169.5 27.5t-146.5 79t-104 132t-39 179.5q0 98 39 178.5t104 131.5t146.5 78.5t169.5 27.5h692v-195z" />
<glyph unicode="&#xb7;" horiz-adv-x="604" d="M307 522q-78 0 -131 53.5t-53 131.5q0 77 53 130.5t131 53.5q77 0 131 -54t54 -130q0 -78 -54 -131.5t-131 -53.5z" />
<glyph unicode="&#xb8;" horiz-adv-x="569" d="M385 59l-94 -143q5 1 13 1.5t31.5 -0.5t45 -5.5t48 -15.5t45 -28t31.5 -47t13 -69q0 -82 -69 -137t-164 -55q-48 0 -90 14.5t-67 35.5t-43.5 42.5t-26.5 35.5l-7 15l109 61q23 -41 53 -63.5t57.5 -24.5t51 6.5t37.5 27.5t14 40q0 35 -29 50.5t-63.5 9.5t-51.5 -27 l-127 84l123 192h160z" />
<glyph unicode="&#xba;" horiz-adv-x="1105" d="M553 338q-191 0 -321 127.5t-130 322.5t130 323t321 128q192 0 321.5 -128t129.5 -323t-129.5 -322.5t-321.5 -127.5zM553 573q91 0 149 62.5t58 155.5q0 92 -58 152.5t-149 60.5q-90 0 -148.5 -61t-58.5 -152q0 -93 58.5 -155.5t148.5 -62.5zM983 236v-236h-860v236h860 z" />
<glyph unicode="&#xbb;" horiz-adv-x="1032" d="M551 633l-371 -443l-149 152l252 291l-252 291l149 151zM981 633l-371 -443l-149 152l252 291l-252 291l149 151z" />
<glyph unicode="&#xbf;" horiz-adv-x="882" d="M475 1055q69 0 116.5 -47.5t47.5 -116.5q0 -68 -47.5 -116t-116.5 -48q-67 0 -115.5 48.5t-48.5 115.5q0 69 48 116.5t116 47.5zM440 -430q-176 0 -292.5 103t-116.5 255q0 73 21.5 133.5t54 100t73.5 75t77 59t67.5 51.5t42.5 54v211h215v-301q-21 -45 -54 -81.5 t-65.5 -58t-67 -45.5t-60.5 -46t-42.5 -57.5t-16.5 -81.5q0 -56 47 -96t115 -40q39 0 75.5 17.5t59.5 42t40.5 49t25.5 42.5l8 17l205 -114q-65 -135 -168 -212t-244 -77z" />
<glyph unicode="&#xc0;" horiz-adv-x="1351" d="M590 1577l-277 266h326l211 -266h-260zM932 340h-512l-113 -340h-287l492 1434h328l491 -1434h-287zM852 582l-176 526l-174 -526h350z" />
<glyph unicode="&#xc1;" horiz-adv-x="1351" d="M762 1577h-260l211 266h325zM932 340h-512l-113 -340h-287l492 1434h328l491 -1434h-287zM852 582l-176 526l-174 -526h350z" />
<glyph unicode="&#xc2;" horiz-adv-x="1351" d="M541 1577h-246l264 266h227l263 -266h-246l-131 133zM932 340h-512l-113 -340h-287l492 1434h328l491 -1434h-287zM852 582l-176 526l-174 -526h350z" />
<glyph unicode="&#xc3;" horiz-adv-x="1351" d="M526 1642q-32 0 -58.5 -23t-37.5 -46l-10 -23h-174q1 6 2.5 17.5t9.5 43.5t19 61t33 64.5t49.5 61t70 43t92.5 17.5q55 0 96.5 -14.5t61.5 -32t49 -32t62 -14.5t59.5 23.5t36.5 46.5l10 23h174q-1 -6 -2.5 -17.5t-9.5 -43.5t-19 -61t-33 -64.5t-49.5 -61t-70 -43 t-92.5 -17.5q-55 0 -96.5 14.5t-61.5 31.5t-49 31.5t-62 14.5zM932 340h-512l-113 -340h-287l492 1434h328l491 -1434h-287zM852 582l-176 526l-174 -526h350z" />
<glyph unicode="&#xc4;" horiz-adv-x="1351" d="M467 1556q-60 0 -101.5 42t-41.5 102q0 59 41.5 101t101.5 42q59 0 101 -42.5t42 -100.5q0 -60 -42 -102t-101 -42zM885 1556q-60 0 -102 42t-42 102q0 59 42 101t102 42q59 0 101 -42.5t42 -100.5q0 -60 -42 -102t-101 -42zM932 338h-512l-113 -338h-287l492 1434h328 l491 -1434h-287zM850 584l-174 524l-174 -524h348z" />
<glyph unicode="&#xc5;" horiz-adv-x="1351" d="M932 340h-512l-113 -340h-287l461 1346q-71 74 -71 186q0 116 76 191t190 75t190 -75t76 -191q0 -111 -72 -186l461 -1346h-287zM676 1628q-43 0 -70.5 -26.5t-27.5 -69.5t27.5 -70.5t70.5 -27.5t69.5 27.5t26.5 70.5t-26.5 69.5t-69.5 26.5zM852 582l-176 526l-174 -526 h350z" />
<glyph unicode="&#xc6;" horiz-adv-x="2134" d="M2011 246v-246h-942v340h-522l-209 -340h-318l891 1434h1080v-246h-656v-340h553v-242h-553v-360h676zM1069 582v606l-373 -606h373z" />
<glyph unicode="&#xc7;" horiz-adv-x="1406" d="M1100 492l235 -127q-3 -7 -9 -19.5t-27.5 -48.5t-47 -69.5t-68 -76.5t-90 -76t-113.5 -61t-138 -39l-47 -69q4 1 12 1.5t30.5 0.5t42.5 -3.5t45 -14.5t43 -28.5t30 -48t12 -71.5q0 -83 -70 -143t-164 -60q-48 0 -90 16t-67 38.5t-43 45t-26 38.5l-7 16l112 63 q38 -66 86.5 -85.5t80.5 1.5t32 58q0 35 -26.5 51t-58 10t-48.5 -27l-127 84l78 125q-164 21 -299 124t-213 266.5t-78 353.5q0 154 53 292.5t142 238t212.5 158t258.5 58.5q86 0 164 -22t135 -56.5t105.5 -77t80 -84.5t54 -76.5t32.5 -56.5l10 -22l-235 -127q-5 11 -14 29 t-41.5 63.5t-69 81t-96.5 64t-125 28.5q-102 0 -192.5 -68.5t-144 -182t-53.5 -240.5t53.5 -241t144 -182.5t192.5 -68.5q67 0 128 27.5t100 66.5t68.5 78.5t42.5 66.5z" />
<glyph unicode="&#xc8;" d="M559 1577l-276 266h325l211 -266h-260zM1106 246v-246h-942v1434h921v-246h-655v-340h553v-242h-553v-360h676z" />
<glyph unicode="&#xc9;" d="M731 1577h-260l211 266h326zM1106 246v-246h-942v1434h921v-246h-655v-340h553v-242h-553v-360h676z" />
<glyph unicode="&#xca;" d="M494 1577h-246l264 266h227l262 -266h-245l-131 133zM1106 246v-246h-942v1434h921v-246h-655v-340h553v-242h-553v-360h676z" />
<glyph unicode="&#xcb;" d="M416 1556q-60 0 -102 42t-42 102q0 59 42 101t102 42q58 0 100.5 -42.5t42.5 -100.5q0 -60 -42 -102t-101 -42zM834 1556q-60 0 -102 42t-42 102q0 59 42 101t102 42q58 0 100.5 -42.5t42.5 -100.5q0 -60 -42 -102t-101 -42zM1106 246v-246h-942v1434h921v-246h-655v-340 h553v-242h-553v-360h676z" />
<glyph unicode="&#xcc;" horiz-adv-x="802" d="M428 1843l211 -266h-260l-277 266h326zM629 1434v-1434h-267v1434h267z" />
<glyph unicode="&#xcd;" horiz-adv-x="802" d="M424 1577h-260l211 266h325zM440 1434v-1434h-266v1434h266z" />
<glyph unicode="&#xce;" horiz-adv-x="663" d="M692 1577h-246l-131 133l-131 -133h-245l264 266h227zM449 1434v-1434h-267v1434h267z" />
<glyph unicode="&#xcf;" horiz-adv-x="653" d="M123 1556q-60 0 -101.5 42t-41.5 102q0 59 41.5 101t101.5 42q59 0 101 -42.5t42 -100.5q0 -60 -42 -102t-101 -42zM541 1556q-60 0 -102 42t-42 102q0 59 42 101t102 42q59 0 101 -42.5t42 -100.5q0 -60 -42 -102t-101 -42zM465 1434v-1434h-266v1434h266z" />
<glyph unicode="&#xd0;" horiz-adv-x="1431" d="M223 1434h430q143 0 271 -56.5t222 -154.5t149 -239t55 -302q0 -232 -108.5 -413t-289.5 -269h-729v621h-182v243h182v570zM489 244h369q91 68 153 190.5t62 247.5q0 126 -59 244t-157 191t-204 73h-164v-326h275v-243h-275v-377z" />
<glyph unicode="&#xd1;" horiz-adv-x="1433" d="M612 1642q-32 0 -58.5 -23t-37.5 -46l-10 -23h-174q1 6 2.5 17.5t9.5 43.5t19 61t33 64.5t49.5 61t70 43t92.5 17.5q55 0 96.5 -14.5t61.5 -32t49 -32t62 -14.5t59.5 23.5t36.5 46.5l10 23h174q-1 -6 -2.5 -17.5t-9.5 -43.5t-19 -61t-33 -64.5t-49.5 -61t-70 -43 t-92.5 -17.5q-55 0 -96.5 14.5t-61.5 31.5t-49 31.5t-62 14.5zM1270 1434v-1434h-256l-594 946v-946h-256v1434h256l594 -947v947h256z" />
<glyph unicode="&#xd2;" horiz-adv-x="1495" d="M702 1843l211 -266h-260l-276 266h325zM748 -31q-181 0 -334 99.5t-242.5 272t-89.5 376.5q0 154 53 292.5t142 238t212.5 158t258.5 58.5q136 0 259 -58.5t212 -158t141.5 -238t52.5 -292.5q0 -153 -52.5 -292t-141.5 -238.5t-212 -158.5t-259 -59zM748 225 q111 0 201.5 69.5t139 181.5t48.5 241t-48.5 241t-139 181t-201.5 69t-201.5 -69t-139.5 -181t-49 -241t49 -241t139.5 -181.5t201.5 -69.5z" />
<glyph unicode="&#xd3;" horiz-adv-x="1495" d="M842 1577h-260l211 266h325zM748 -31q-181 0 -334 99.5t-242.5 272t-89.5 376.5q0 154 53 292.5t142 238t212.5 158t258.5 58.5q136 0 259 -58.5t212 -158t141.5 -238t52.5 -292.5q0 -153 -52.5 -292t-141.5 -238.5t-212 -158.5t-259 -59zM748 225q111 0 201.5 69.5 t139 181.5t48.5 241t-48.5 241t-139 181t-201.5 69t-201.5 -69t-139.5 -181t-49 -241t49 -241t139.5 -181.5t201.5 -69.5z" />
<glyph unicode="&#xd4;" horiz-adv-x="1495" d="M1124 1577h-245l-131 133l-132 -133h-245l264 266h227zM748 -31q-181 0 -334 99.5t-242.5 272t-89.5 376.5q0 154 53 292.5t142 238t212.5 158t258.5 58.5q136 0 259 -58.5t212 -158t141.5 -238t52.5 -292.5q0 -153 -52.5 -292t-141.5 -238.5t-212 -158.5t-259 -59z M748 225q111 0 201.5 69.5t139 181.5t48.5 241t-48.5 241t-139 181t-201.5 69t-201.5 -69t-139.5 -181t-49 -241t49 -241t139.5 -181.5t201.5 -69.5z" />
<glyph unicode="&#xd5;" horiz-adv-x="1495" d="M500 1550h-174q1 6 2.5 17.5t9.5 43.5t19 61t33 64.5t49.5 61t70 43t92.5 17.5q55 0 96.5 -14.5t61 -32t48.5 -32t62 -14.5t59.5 23.5t36.5 46.5l11 23h174q-1 -6 -2.5 -17.5t-9.5 -43.5t-19.5 -61t-33.5 -64.5t-49.5 -61t-70 -43t-92.5 -17.5q-55 0 -96.5 14.5t-61 31.5 t-48.5 31.5t-62 14.5q-32 0 -58.5 -23t-37.5 -46zM748 -31q-181 0 -334 99.5t-242.5 272t-89.5 376.5q0 154 53 292.5t142 238t212.5 158t258.5 58.5q136 0 259 -58.5t212 -158t141.5 -238t52.5 -292.5q0 -153 -52.5 -292t-141.5 -238.5t-212 -158.5t-259 -59zM748 225 q111 0 201.5 69.5t139 181.5t48.5 241t-48.5 241t-139 181t-201.5 69t-201.5 -69t-139.5 -181t-49 -241t49 -241t139.5 -181.5t201.5 -69.5z" />
<glyph unicode="&#xd6;" horiz-adv-x="1495" d="M539 1556q-60 0 -102 42t-42 102q0 59 42 101t102 42q59 0 101 -42.5t42 -100.5q0 -60 -42 -102t-101 -42zM956 1556q-60 0 -101.5 42t-41.5 102q0 59 41.5 101t101.5 42q59 0 101.5 -42.5t42.5 -100.5q0 -60 -42.5 -102t-101.5 -42zM748 -31q-181 0 -334 99.5 t-242.5 272t-89.5 376.5q0 154 53 292.5t142 238t212.5 158t258.5 58.5q136 0 259 -58.5t212 -158t141.5 -238t52.5 -292.5q0 -153 -52.5 -292t-141.5 -238.5t-212 -158.5t-259 -59zM748 225q111 0 201.5 69.5t139 181.5t48.5 241t-48.5 241t-139 181t-201.5 69t-201.5 -69 t-139.5 -181t-49 -241t49 -241t139.5 -181.5t201.5 -69.5z" />
<glyph unicode="&#xd7;" horiz-adv-x="1193" d="M762 670l360 -357l-168 -159l-356 352l-358 -354l-168 159l360 359l-360 356l168 160l356 -352l358 354l168 -160z" />
<glyph unicode="&#xd8;" horiz-adv-x="1552" d="M1470 1356l-161 -187q133 -198 133 -452q0 -205 -89 -377t-242 -271.5t-335 -99.5q-217 0 -389 142l-145 -168l-160 135l162 188q-133 198 -133 451q0 154 52.5 292.5t142 238t212.5 158t258 58.5q213 0 387 -137l142 164zM387 717q0 -122 45 -234l559 645 q-96 80 -215 80q-111 0 -201.5 -69t-139 -181t-48.5 -241zM1165 717q0 127 -47 233l-559 -643q98 -82 217 -82q111 0 201.5 69.5t139 181.5t48.5 241z" />
<glyph unicode="&#xd9;" horiz-adv-x="1392" d="M672 1843l211 -266h-260l-277 266h326zM1239 1434v-850q0 -294 -148.5 -454.5t-394.5 -160.5t-394 160.5t-148 454.5v850h270v-850q0 -187 74.5 -274t197.5 -87t198 87t75 274v850h270z" />
<glyph unicode="&#xda;" horiz-adv-x="1392" d="M770 1577h-260l211 266h326zM1239 1434v-850q0 -294 -148.5 -454.5t-394.5 -160.5t-394 160.5t-148 454.5v850h270v-850q0 -187 74.5 -274t197.5 -87t198 87t75 274v850h270z" />
<glyph unicode="&#xdb;" horiz-adv-x="1392" d="M1073 1577h-246l-131 133l-131 -133h-246l265 266h227zM1239 1434v-850q0 -294 -148.5 -454.5t-394.5 -160.5t-394 160.5t-148 454.5v850h270v-850q0 -187 74.5 -274t197.5 -87t198 87t75 274v850h270z" />
<glyph unicode="&#xdc;" horiz-adv-x="1372" d="M477 1556q-60 0 -101.5 42t-41.5 102q0 59 41.5 101t101.5 42q59 0 101.5 -42.5t42.5 -100.5q0 -60 -42.5 -102t-101.5 -42zM895 1556q-60 0 -101.5 42t-41.5 102q0 59 41.5 101t101.5 42q59 0 101 -42.5t42 -100.5q0 -60 -42 -102t-101 -42zM1237 1434v-850 q0 -294 -148.5 -454.5t-394.5 -160.5t-394 160.5t-148 454.5v850h270v-850q0 -187 74.5 -274t197.5 -87t198 87t75 274v850h270z" />
<glyph unicode="&#xdd;" horiz-adv-x="1208" d="M680 1577h-260l211 266h325zM901 1434h287q-101 -471 -451 -834v-600h-266v600q-350 363 -451 834h267q83 -326 317 -600q209 256 297 600z" />
<glyph unicode="&#xde;" horiz-adv-x="1218" d="M430 1219h225q140 0 258 -68.5t186 -186.5t68 -257q0 -156 -85.5 -284t-225.5 -187h-426v-236h-266v1434h266v-215zM430 481h342q51 35 90 101.5t39 126.5q0 95 -77 180.5t-169 85.5h-225v-494z" />
<glyph unicode="&#xdf;" horiz-adv-x="1093" d="M965 1024l-226 -274q293 -74 293 -330q0 -205 -121 -312.5t-327 -107.5h-88v225h88q107 0 160 50.5t53 144.5q0 92 -75.5 141t-207.5 49v213l162 201h-295v-1024h-238v1464h238v-229h584v-211z" />
<glyph unicode="&#xe0;" horiz-adv-x="1120" d="M424 1126l-215 308h303l150 -308h-238zM1049 236v-236h-62q-144 0 -237 111q-48 -64 -127.5 -103t-167.5 -39q-109 0 -190 42.5t-161 127.5v340q22 29 60.5 51.5t92.5 38t95.5 23.5t102.5 18q63 10 106.5 23t66.5 24.5t35 27t14.5 26t2.5 26.5q0 46 -48 71.5t-132 25.5 q-49 0 -89 -13.5t-63 -33t-38.5 -39t-21.5 -32.5l-5 -14l-201 115q57 113 156.5 175.5t261.5 62.5q216 0 326 -92t110 -263v-362q0 -43 29.5 -72.5t72.5 -29.5h11zM496 190q81 0 132.5 47t51.5 148v84q-49 -29 -175 -48.5t-169 -45.5v-133q74 -52 160 -52z" />
<glyph unicode="&#xe1;" horiz-adv-x="1120" d="M616 1126h-235l149 308h301zM1049 236v-236h-62q-144 0 -237 111q-48 -64 -127.5 -103t-167.5 -39q-109 0 -190 42.5t-161 127.5v340q22 29 60.5 51.5t92.5 38t95.5 23.5t102.5 18q63 10 106.5 23t66.5 24.5t35 27t14.5 26t2.5 26.5q0 46 -48 71.5t-132 25.5 q-49 0 -89 -13.5t-63 -33t-38.5 -39t-21.5 -32.5l-5 -14l-201 115q57 113 156.5 175.5t261.5 62.5q216 0 326 -92t110 -263v-362q0 -43 29.5 -72.5t72.5 -29.5h11zM496 190q81 0 132.5 47t51.5 148v84q-49 -29 -175 -48.5t-169 -45.5v-133q74 -52 160 -52z" />
<glyph unicode="&#xe2;" horiz-adv-x="1120" d="M358 1126h-225l252 308h229l252 -308h-225l-141 146zM1049 236v-236h-62q-144 0 -237 111q-48 -64 -127.5 -103t-167.5 -39q-109 0 -190 42.5t-161 127.5v340q22 29 60.5 51.5t92.5 38t95.5 23.5t102.5 18q63 10 106.5 23t66.5 24.5t35 27t14.5 26t2.5 26.5 q0 46 -48 71.5t-132 25.5q-49 0 -89 -13.5t-63 -33t-38.5 -39t-21.5 -32.5l-5 -14l-201 115q57 113 156.5 175.5t261.5 62.5q216 0 326 -92t110 -263v-362q0 -43 29.5 -72.5t72.5 -29.5h11zM496 190q81 0 132.5 47t51.5 148v84q-49 -29 -175 -48.5t-169 -45.5v-133 q74 -52 160 -52z" />
<glyph unicode="&#xe3;" horiz-adv-x="1120" d="M383 1239q-32 0 -53.5 -28.5t-27.5 -56.5l-5 -28h-174q0 6 1 17.5t7 43.5t15.5 61t29 64.5t45 61t67 43t91.5 17.5q45 0 80 -11.5t56.5 -28t40 -33.5t41 -28.5t50.5 -11.5q33 0 54.5 28.5t26.5 56.5l5 28h174q0 -6 -1 -17.5t-7 -43.5t-15.5 -61t-29 -64.5t-45 -61 t-67 -43t-91.5 -17.5q-45 0 -80 11.5t-56.5 28t-40 33.5t-41 28.5t-50.5 11.5zM1049 236v-236h-62q-144 0 -237 111q-48 -64 -127.5 -103t-167.5 -39q-109 0 -190 42.5t-161 127.5v340q22 29 60.5 51.5t92.5 38t95.5 23.5t102.5 18q63 10 106.5 23t66.5 24.5t35 27t14.5 26 t2.5 26.5q0 46 -48 71.5t-132 25.5q-49 0 -89 -13.5t-63 -33t-38.5 -39t-21.5 -32.5l-5 -14l-201 115q57 113 156.5 175.5t261.5 62.5q216 0 326 -92t110 -263v-362q0 -43 29.5 -72.5t72.5 -29.5h11zM496 190q81 0 132.5 47t51.5 148v84q-49 -29 -175 -48.5t-169 -45.5v-133 q74 -52 160 -52z" />
<glyph unicode="&#xe4;" horiz-adv-x="1120" d="M309 1147q-60 0 -101.5 41.5t-41.5 101.5q0 59 41.5 101.5t101.5 42.5q59 0 101.5 -43t42.5 -101q0 -60 -42.5 -101.5t-101.5 -41.5zM727 1147q-60 0 -101.5 41.5t-41.5 101.5q0 59 41.5 101.5t101.5 42.5q58 0 100.5 -42.5t42.5 -101.5q0 -60 -42 -101.5t-101 -41.5z M1049 236v-236h-62q-144 0 -237 111q-48 -64 -127.5 -103t-167.5 -39q-109 0 -190 42.5t-161 127.5v340q22 29 60.5 51.5t92.5 38t95.5 23.5t102.5 18q63 10 106.5 23t66.5 24.5t35 27t14.5 26t2.5 26.5q0 46 -48 71.5t-132 25.5q-49 0 -89 -13.5t-63 -33t-38.5 -39 t-21.5 -32.5l-5 -14l-201 115q57 113 156.5 175.5t261.5 62.5q216 0 326 -92t110 -263v-362q0 -43 29.5 -72.5t72.5 -29.5h11zM496 190q81 0 132.5 47t51.5 148v84q-49 -29 -175 -48.5t-169 -45.5v-133q74 -52 160 -52z" />
<glyph unicode="&#xe5;" horiz-adv-x="1120" d="M526 1128q-91 0 -153 61t-62 154t62 154.5t153 61.5t153 -61.5t62 -154.5t-62 -154t-153 -61zM526 1423q-35 0 -58.5 -22.5t-23.5 -57.5t23.5 -58t58.5 -23t57.5 23t22.5 58t-22.5 57.5t-57.5 22.5zM1049 236v-236h-62q-144 0 -237 111q-48 -64 -127.5 -103t-167.5 -39 q-109 0 -190 42.5t-161 127.5v340q22 29 60.5 51.5t92.5 38t95.5 23.5t102.5 18q63 10 106.5 23t66.5 24.5t35 27t14.5 26t2.5 26.5q0 46 -48 71.5t-132 25.5q-49 0 -89 -13.5t-63 -33t-38.5 -39t-21.5 -32.5l-5 -14l-201 115q57 113 156.5 175.5t261.5 62.5q216 0 326 -92 t110 -263v-362q0 -43 29.5 -72.5t72.5 -29.5h11zM496 190q81 0 132.5 47t51.5 148v84q-49 -29 -175 -48.5t-169 -45.5v-133q74 -52 160 -52z" />
<glyph unicode="&#xe6;" horiz-adv-x="1677" d="M1405 281l180 -164q-5 -6 -15.5 -16t-46 -35.5t-75 -45t-102 -35.5t-127.5 -16q-120 0 -225.5 49.5t-180.5 137.5q-36 -85 -137.5 -136t-220.5 -51q-109 0 -190 42.5t-161 127.5v340q22 29 60.5 51.5t92.5 38t95.5 23.5t102.5 18q63 10 106.5 23t66.5 24.5t35 27t14.5 26 t2.5 26.5q0 46 -48 71.5t-132 25.5q-49 0 -89 -13.5t-63 -33t-38.5 -39t-21.5 -32.5l-5 -14l-201 115q57 113 156.5 175.5t261.5 62.5q258 0 366 -133q149 133 353 133q207 0 362 -142v-501h-651q31 -89 110.5 -145t178.5 -56q58 0 104.5 17.5t64.5 35.5zM1219 813 q-100 0 -180 -58t-111 -149h420v180q-50 27 -129 27zM496 190q81 0 132.5 47t51.5 148v84q-49 -29 -175 -48.5t-169 -45.5v-133q74 -52 160 -52z" />
<glyph unicode="&#xe7;" horiz-adv-x="1054" d="M561 215q46 0 85.5 17t62 41.5t38 49t21.5 41.5l6 17l217 -127q-4 -10 -13 -26.5t-42 -60.5t-71 -80t-102.5 -70t-135.5 -44l-39 -57q5 1 13 1.5t31.5 -0.5t45 -5.5t48 -15.5t45 -28t31.5 -47t13 -69q0 -82 -69 -137t-164 -55q-48 0 -90 14.5t-67 35.5t-43.5 42.5 t-25.5 35.5l-8 15l109 61q23 -41 53 -63.5t57.5 -24.5t51 6.5t37.5 27.5t14 40q0 35 -29 50.5t-63.5 9.5t-51.5 -27l-127 84l72 113q-171 36 -285 185.5t-114 346.5q0 149 66.5 274t179 197t243.5 72q61 0 118 -16t99.5 -41.5t79 -56.5t60.5 -61.5t41.5 -56t25.5 -41.5 l8 -16l-219 -125q-2 7 -6 18t-21 40t-38.5 51.5t-61 40.5t-86.5 18q-106 0 -169.5 -84.5t-63.5 -212.5q0 -127 63.5 -212t169.5 -85z" />
<glyph unicode="&#xe8;" horiz-adv-x="1069" d="M477 1126l-215 308h303l150 -308h-238zM797 281l180 -164q-5 -6 -15.5 -16t-46.5 -35.5t-75.5 -45t-102 -35.5t-127.5 -16q-146 0 -270 73t-196 198t-72 272q0 148 72 273t196 197.5t270 72.5q208 0 363 -142v-501h-651q31 -89 110 -145t178 -56q37 0 69.5 7t53 17.5 t36 21t21.5 17.5zM610 813q-100 0 -180 -58t-111 -149h420v180q-49 27 -129 27z" />
<glyph unicode="&#xe9;" horiz-adv-x="1069" d="M653 1126h-235l149 308h301zM797 281l180 -164q-5 -6 -15.5 -16t-46.5 -35.5t-75.5 -45t-102 -35.5t-127.5 -16q-146 0 -270 73t-196 198t-72 272q0 148 72 273t196 197.5t270 72.5q208 0 363 -142v-501h-651q31 -89 110 -145t178 -56q37 0 69.5 7t53 17.5t36 21 t21.5 17.5zM610 813q-100 0 -180 -58t-111 -149h420v180q-49 27 -129 27z" />
<glyph unicode="&#xea;" horiz-adv-x="1069" d="M434 1126h-225l252 308h229l252 -308h-225l-142 146zM797 281l180 -164q-5 -6 -15.5 -16t-46.5 -35.5t-75.5 -45t-102 -35.5t-127.5 -16q-146 0 -270 73t-196 198t-72 272q0 148 72 273t196 197.5t270 72.5q208 0 363 -142v-501h-651q31 -89 110 -145t178 -56 q37 0 69.5 7t53 17.5t36 21t21.5 17.5zM610 813q-100 0 -180 -58t-111 -149h420v180q-49 27 -129 27z" />
<glyph unicode="&#xeb;" horiz-adv-x="1069" d="M367 1147q-60 0 -102 41.5t-42 101.5q0 59 42 101.5t102 42.5q58 0 100.5 -42.5t42.5 -101.5q0 -60 -42 -101.5t-101 -41.5zM784 1147q-60 0 -101.5 41.5t-41.5 101.5q0 59 41.5 101.5t101.5 42.5q58 0 101 -43t43 -101q0 -60 -42.5 -101.5t-101.5 -41.5zM797 281 l180 -164q-5 -6 -15.5 -16t-46.5 -35.5t-75.5 -45t-102 -35.5t-127.5 -16q-146 0 -270 73t-196 198t-72 272q0 148 72 273t196 197.5t270 72.5q208 0 363 -142v-501h-651q31 -89 110 -145t178 -56q37 0 69.5 7t53 17.5t36 21t21.5 17.5zM610 813q-100 0 -180 -58t-111 -149 h420v180q-49 27 -129 27z" />
<glyph unicode="&#xec;" horiz-adv-x="552" d="M260 1434l150 -308h-236l-215 308h301zM399 1024h-260v-1024h260v1024z" />
<glyph unicode="&#xed;" horiz-adv-x="552" d="M379 1126h-236l150 308h301zM414 1024h-260v-1024h260v1024z" />
<glyph unicode="&#xee;" horiz-adv-x="651" d="M692 1126h-225l-141 146l-142 -146h-225l252 308h229zM457 1024h-260v-1024h260v1024z" />
<glyph unicode="&#xef;" horiz-adv-x="579" d="M102 1147q-60 0 -101.5 41.5t-41.5 101.5q0 59 41.5 101.5t101.5 42.5q58 0 101 -43t43 -101q0 -60 -42.5 -101.5t-101.5 -41.5zM477 1147q-60 0 -101.5 41.5t-41.5 101.5q0 59 41.5 101.5t101.5 42.5q59 0 101.5 -43t42.5 -101q0 -60 -42.5 -101.5t-101.5 -41.5z M420 1024h-260v-1024h260v1024z" />
<glyph unicode="&#xf0;" horiz-adv-x="1087" d="M954 1255l-131 -61q193 -213 193 -582q0 -312 -120 -477.5t-361 -165.5q-131 0 -238 66t-166 178.5t-59 247.5q0 205 130 348t312 143q145 0 240 -82q-14 125 -138 230l-256 -119l-67 145l166 78q-88 46 -180 68l90 192q199 -73 317 -153l197 94zM535 195q75 0 127.5 40 t75 98.5t22.5 127.5q0 110 -63 188t-173 78q-98 0 -157.5 -75.5t-59.5 -190.5q0 -112 64.5 -189t163.5 -77z" />
<glyph unicode="&#xf1;" horiz-adv-x="1159" d="M463 1239q-32 0 -53.5 -28.5t-27.5 -56.5l-5 -28h-174q0 6 1 17.5t7 43.5t15.5 61t29 64.5t45 61t67 43t91.5 17.5q45 0 80 -11.5t56.5 -28t40 -33.5t41 -28.5t50.5 -11.5q33 0 54.5 28.5t26.5 56.5l5 28h174q0 -6 -1 -17.5t-7 -43.5t-15.5 -61t-29 -64.5t-45 -61 t-67 -43t-91.5 -17.5q-45 0 -80 11.5t-56.5 28t-40 33.5t-41 28.5t-50.5 11.5zM682 1055q104 0 195.5 -50t148.5 -133v-872h-260v776q-61 33 -123 33q-101 0 -173.5 -72.5t-72.5 -173.5v-563h-254v1024h234l26 -111q106 142 279 142z" />
<glyph unicode="&#xf2;" horiz-adv-x="1163" d="M565 1434l150 -308h-238l-215 308h303zM582 -31q-98 0 -191.5 43t-163.5 115t-112.5 173.5t-42.5 211.5q0 111 42.5 212.5t112.5 173.5t163.5 114.5t191.5 42.5t191.5 -42.5t163.5 -114.5t112.5 -173.5t42.5 -212.5q0 -110 -42.5 -211.5t-112.5 -173.5t-163.5 -115 t-191.5 -43zM582 215q108 0 181 86.5t73 210.5q0 125 -73 211t-181 86t-181 -86t-73 -211q0 -124 73 -210.5t181 -86.5z" />
<glyph unicode="&#xf3;" horiz-adv-x="1163" d="M684 1126h-235l149 308h301zM582 -31q-98 0 -191.5 43t-163.5 115t-112.5 173.5t-42.5 211.5q0 111 42.5 212.5t112.5 173.5t163.5 114.5t191.5 42.5t191.5 -42.5t163.5 -114.5t112.5 -173.5t42.5 -212.5q0 -110 -42.5 -211.5t-112.5 -173.5t-163.5 -115t-191.5 -43z M582 215q108 0 181 86.5t73 210.5q0 125 -73 211t-181 86t-181 -86t-73 -211q0 -124 73 -210.5t181 -86.5z" />
<glyph unicode="&#xf4;" horiz-adv-x="1163" d="M948 1126h-225l-141 146l-142 -146h-225l252 308h229zM582 -31q-98 0 -191.5 43t-163.5 115t-112.5 173.5t-42.5 211.5q0 111 42.5 212.5t112.5 173.5t163.5 114.5t191.5 42.5t191.5 -42.5t163.5 -114.5t112.5 -173.5t42.5 -212.5q0 -110 -42.5 -211.5t-112.5 -173.5 t-163.5 -115t-191.5 -43zM582 215q108 0 181 86.5t73 210.5q0 125 -73 211t-181 86t-181 -86t-73 -211q0 -124 73 -210.5t181 -86.5z" />
<glyph unicode="&#xf5;" horiz-adv-x="1163" d="M367 1126h-174q0 6 1 17.5t7 43.5t15.5 61t29 64.5t45 61t67 43t91.5 17.5q45 0 80 -11.5t56.5 -28t40 -33.5t41 -28.5t50.5 -11.5q33 0 54.5 28.5t26.5 56.5l5 28h174q0 -6 -1 -17.5t-7 -43.5t-15.5 -61t-29 -64.5t-45 -61t-67 -43t-91.5 -17.5q-45 0 -80 11.5t-56.5 28 t-40 33.5t-41 28.5t-50.5 11.5q-32 0 -53.5 -28.5t-27.5 -56.5zM582 -31q-98 0 -191.5 43t-163.5 115t-112.5 173.5t-42.5 211.5q0 111 42.5 212.5t112.5 173.5t163.5 114.5t191.5 42.5t191.5 -42.5t163.5 -114.5t112.5 -173.5t42.5 -212.5q0 -110 -42.5 -211.5 t-112.5 -173.5t-163.5 -115t-191.5 -43zM582 215q108 0 181 86.5t73 210.5q0 125 -73 211t-181 86t-181 -86t-73 -211q0 -124 73 -210.5t181 -86.5z" />
<glyph unicode="&#xf6;" horiz-adv-x="1163" d="M373 1147q-60 0 -102 41.5t-42 101.5q0 59 42 101.5t102 42.5q58 0 100.5 -42.5t42.5 -101.5q0 -60 -42 -101.5t-101 -41.5zM791 1147q-60 0 -102 41.5t-42 101.5q0 59 42 101.5t102 42.5q58 0 100.5 -42.5t42.5 -101.5q0 -60 -42 -101.5t-101 -41.5zM582 -31 q-98 0 -191.5 43t-163.5 115t-112.5 173.5t-42.5 211.5q0 111 42.5 212.5t112.5 173.5t163.5 114.5t191.5 42.5t191.5 -42.5t163.5 -114.5t112.5 -173.5t42.5 -212.5q0 -110 -42.5 -211.5t-112.5 -173.5t-163.5 -115t-191.5 -43zM582 215q108 0 181 86.5t73 210.5 q0 125 -73 211t-181 86t-181 -86t-73 -211q0 -124 73 -210.5t181 -86.5z" />
<glyph unicode="&#xf7;" d="M614 901q-78 0 -131 53t-53 131q0 77 53 131t131 54q76 0 130.5 -54t54.5 -131q0 -78 -54 -131t-131 -53zM1126 778v-215h-1024v215h1024zM614 72q-78 0 -131 53t-53 131q0 77 53 130.5t131 53.5q77 0 131 -54t54 -130q0 -78 -54 -131t-131 -53z" />
<glyph unicode="&#xf8;" horiz-adv-x="1163" d="M1081 963l-100 -119q111 -147 111 -332q0 -110 -42.5 -211.5t-112.5 -173.5t-163.5 -115t-191.5 -43q-143 0 -267 84l-94 -110l-139 118l100 119q-110 149 -110 332q0 111 42.5 212.5t112.5 173.5t163.5 114.5t191.5 42.5q135 0 264 -82l90 108zM328 512q0 -71 24 -129 l334 401q-48 25 -104 25q-108 0 -181 -86t-73 -211zM582 215q108 0 181 86.5t73 210.5q0 58 -25 131l-338 -401q56 -27 109 -27z" />
<glyph unicode="&#xf9;" horiz-adv-x="1155" d="M498 1126l-215 308h303l149 -308h-237zM1022 1024v-1024h-236l-20 84q-94 -115 -264 -115q-148 0 -258.5 113.5t-110.5 255.5v686h256v-625q0 -75 49.5 -129.5t124.5 -54.5t123.5 20.5t79.5 79.5v709h256z" />
<glyph unicode="&#xfa;" horiz-adv-x="1155" d="M666 1126h-236l150 308h301zM1022 1024v-1024h-236l-20 84q-94 -115 -264 -115q-148 0 -258.5 113.5t-110.5 255.5v686h256v-625q0 -75 49.5 -129.5t124.5 -54.5t123.5 20.5t79.5 79.5v709h256z" />
<glyph unicode="&#xfb;" horiz-adv-x="1155" d="M436 1126h-225l252 308h229l252 -308h-225l-141 146zM1022 1024v-1024h-236l-20 84q-94 -115 -264 -115q-148 0 -258.5 113.5t-110.5 255.5v686h256v-625q0 -75 49.5 -129.5t124.5 -54.5t123.5 20.5t79.5 79.5v709h256z" />
<glyph unicode="&#xfc;" horiz-adv-x="1155" d="M369 1147q-60 0 -102 41.5t-42 101.5q0 59 42 101.5t102 42.5q58 0 100.5 -42.5t42.5 -101.5q0 -60 -42 -101.5t-101 -41.5zM786 1147q-60 0 -101.5 41.5t-41.5 101.5q0 59 41.5 101.5t101.5 42.5q58 0 101 -43t43 -101q0 -60 -42.5 -101.5t-101.5 -41.5zM1022 1024 v-1024h-236l-20 84q-94 -115 -264 -115q-148 0 -258.5 113.5t-110.5 255.5v686h256v-625q0 -75 49.5 -129.5t124.5 -54.5t123.5 20.5t79.5 79.5v709h256z" />
<glyph unicode="&#xfd;" horiz-adv-x="1075" d="M651 1126h-235l149 308h301zM778 1024h277q-53 -168 -350 -1065q-32 -97 -71 -165.5t-77 -108t-87 -61t-91 -28t-100 -6.5h-123v226h71q25 0 45.5 3t48 14t49.5 30t44 54t37 83l-431 1024h277l276 -700z" />
<glyph unicode="&#xfe;" horiz-adv-x="1189" d="M670 1055q130 0 233 -73t159 -196.5t56 -273.5q0 -151 -56 -274.5t-159 -196t-233 -72.5q-178 0 -275 137v-516h-252v1844h252v-516q97 137 275 137zM629 215q106 0 169.5 84.5t63.5 212.5q0 127 -63.5 212t-169.5 85t-170 -85t-64 -212q0 -128 64 -212.5t170 -84.5z" />
<glyph unicode="&#xff;" horiz-adv-x="1075" d="M330 1147q-60 0 -102 41.5t-42 101.5q0 59 42 101.5t102 42.5q58 0 100.5 -42.5t42.5 -101.5q0 -60 -42 -101.5t-101 -41.5zM748 1147q-60 0 -102 41.5t-42 101.5q0 59 42 101.5t102 42.5q58 0 100.5 -42.5t42.5 -101.5q0 -60 -42 -101.5t-101 -41.5zM778 1024h277 q-53 -168 -350 -1065q-32 -97 -71 -165.5t-77 -108t-87 -61t-91 -28t-100 -6.5h-123v226h71q25 0 45.5 3t48 14t49.5 30t44 54t37 83l-431 1024h277l276 -700z" />
<glyph unicode="&#x152;" horiz-adv-x="2201" d="M2079 246v-246h-942v109q-173 -140 -389 -140q-181 0 -334 99.5t-242.5 272t-89.5 376.5q0 154 53 292.5t142 238t212.5 158t258.5 58.5q217 0 389 -139v109h921v-246h-655v-340h553v-242h-553v-360h676zM748 225q111 0 201.5 69.5t139 181.5t48.5 241t-48.5 241 t-139 181t-201.5 69t-201.5 -69t-139.5 -181t-49 -241t49 -241t139.5 -181.5t201.5 -69.5z" />
<glyph unicode="&#x153;" horiz-adv-x="1835" d="M1563 281l180 -164q-5 -6 -15.5 -16t-46.5 -35.5t-75.5 -45t-102 -35.5t-127.5 -16q-121 0 -227.5 51t-181.5 142q-73 -90 -174.5 -141.5t-210.5 -51.5q-98 0 -191.5 43t-163.5 115t-112.5 173.5t-42.5 211.5q0 111 42.5 212.5t112.5 173.5t163.5 114.5t191.5 42.5 q109 0 210.5 -51t174.5 -140q75 89 181.5 140t227.5 51q208 0 363 -142v-501h-652q31 -89 110.5 -145t178.5 -56q37 0 69.5 7t53 17.5t36 21t21.5 17.5zM1376 813q-100 0 -180 -58t-111 -149h420v180q-49 27 -129 27zM582 215q108 0 181 86.5t73 210.5q0 125 -73 211 t-181 86t-181 -86t-73 -211q0 -124 73 -210.5t181 -86.5z" />
<glyph unicode="&#x178;" horiz-adv-x="1208" d="M389 1556q-60 0 -101.5 42t-41.5 102q0 59 41.5 101t101.5 42q59 0 101 -42.5t42 -100.5q0 -60 -42 -102t-101 -42zM807 1556q-60 0 -101.5 42t-41.5 102q0 59 41.5 101t101.5 42q59 0 101 -42.5t42 -100.5q0 -60 -42 -102t-101 -42zM901 1434h287q-101 -471 -451 -834 v-600h-266v600q-350 363 -451 834h267q83 -326 317 -600q209 256 297 600z" />
<glyph unicode="&#x2c6;" horiz-adv-x="835" d="M784 1126h-225l-141 146l-142 -146h-225l252 308h229z" />
<glyph unicode="&#x2dc;" horiz-adv-x="886" d="M225 1126h-174q0 6 1 17.5t7 43.5t15.5 61t29 64.5t45 61t67 43t91.5 17.5q45 0 80 -11.5t56.5 -28t40 -33.5t41 -28.5t50.5 -11.5q33 0 54.5 28.5t26.5 56.5l6 28h174q0 -6 -1 -17.5t-7 -43.5t-15.5 -61t-29 -64.5t-45 -61t-67 -43t-91.5 -17.5q-45 0 -80.5 11.5 t-56.5 28t-39.5 33.5t-41.5 28.5t-51 11.5q-32 0 -53.5 -28.5t-27.5 -56.5z" />
<glyph unicode="&#x2000;" horiz-adv-x="929" />
<glyph unicode="&#x2001;" horiz-adv-x="1858" />
<glyph unicode="&#x2002;" horiz-adv-x="929" />
<glyph unicode="&#x2003;" horiz-adv-x="1858" />
<glyph unicode="&#x2004;" horiz-adv-x="619" />
<glyph unicode="&#x2005;" horiz-adv-x="464" />
<glyph unicode="&#x2006;" horiz-adv-x="309" />
<glyph unicode="&#x2007;" horiz-adv-x="309" />
<glyph unicode="&#x2008;" horiz-adv-x="232" />
<glyph unicode="&#x2009;" horiz-adv-x="371" />
<glyph unicode="&#x200a;" horiz-adv-x="103" />
<glyph unicode="&#x2010;" horiz-adv-x="942" d="M850 793v-246h-758v246h758z" />
<glyph unicode="&#x2011;" horiz-adv-x="942" d="M850 793v-246h-758v246h758z" />
<glyph unicode="&#x2012;" horiz-adv-x="942" d="M850 793v-246h-758v246h758z" />
<glyph unicode="&#x2013;" horiz-adv-x="1269" d="M1147 788v-235h-1024v235h1024z" />
<glyph unicode="&#x2014;" horiz-adv-x="2232" d="M2089 788v-235h-1946v235h1946z" />
<glyph unicode="&#x2018;" horiz-adv-x="491" d="M72 1155q0 78 27 136t74.5 90.5t103 47.5t120.5 15v-84q-71 0 -116 -27t-45 -76q69 15 126.5 -29.5t57.5 -113.5q0 -68 -47.5 -116t-116.5 -48q-84 0 -133.5 53.5t-50.5 151.5z" />
<glyph unicode="&#x2019;" horiz-adv-x="491" d="M420 1239q0 -78 -27.5 -136t-75 -90.5t-103 -47.5t-120.5 -15v84q71 0 116.5 27t45.5 76q-69 -15 -126.5 29.5t-57.5 113.5q0 68 47.5 116t116.5 48q84 0 133.5 -53.5t50.5 -151.5z" />
<glyph unicode="&#x201a;" horiz-adv-x="491" d="M420 123q0 -78 -27.5 -136t-75 -90.5t-103 -47.5t-120.5 -15v84q71 0 116.5 26.5t45.5 75.5q-69 -15 -126.5 30t-57.5 114q0 68 47.5 116t116.5 48q84 0 133.5 -53.5t50.5 -151.5z" />
<glyph unicode="&#x201c;" horiz-adv-x="921" d="M72 1155q0 78 27 136t74.5 90.5t103 47.5t120.5 15v-84q-71 0 -116 -27t-45 -76q69 15 126.5 -29.5t57.5 -113.5q0 -68 -47.5 -116t-116.5 -48q-84 0 -133.5 53.5t-50.5 151.5zM502 1155q0 78 27 136t74.5 90.5t103 47.5t120.5 15v-84q-71 0 -116 -27t-45 -76 q69 15 126.5 -29.5t57.5 -113.5q0 -68 -47.5 -116t-116.5 -48q-84 0 -133.5 53.5t-50.5 151.5z" />
<glyph unicode="&#x201d;" horiz-adv-x="921" d="M420 1239q0 -78 -27.5 -136t-75 -90.5t-103 -47.5t-120.5 -15v84q71 0 116.5 27t45.5 76q-69 -15 -126.5 29.5t-57.5 113.5q0 68 47.5 116t116.5 48q84 0 133.5 -53.5t50.5 -151.5zM850 1239q0 -78 -27.5 -136t-75 -90.5t-103 -47.5t-120.5 -15v84q71 0 116.5 27t45.5 76 q-69 -15 -126.5 29.5t-57.5 113.5q0 68 47.5 116t116.5 48q84 0 133.5 -53.5t50.5 -151.5z" />
<glyph unicode="&#x201e;" horiz-adv-x="921" d="M420 123q0 -78 -27.5 -136t-75 -90.5t-103 -47.5t-120.5 -15v84q71 0 116.5 26.5t45.5 75.5q-69 -15 -126.5 30t-57.5 114q0 68 47.5 116t116.5 48q84 0 133.5 -53.5t50.5 -151.5zM850 123q0 -78 -27.5 -136t-75 -90.5t-103 -47.5t-120.5 -15v84q71 0 116.5 26.5 t45.5 75.5q-69 -15 -126.5 30t-57.5 114q0 68 47.5 116t116.5 48q84 0 133.5 -53.5t50.5 -151.5z" />
<glyph unicode="&#x2022;" horiz-adv-x="1474" d="M737 92q-169 0 -310.5 81.5t-222.5 223t-81 310.5q0 167 81 308t222.5 223.5t310.5 82.5q166 0 308 -82.5t224.5 -224t82.5 -307.5q0 -169 -83 -310.5t-224 -223t-308 -81.5z" />
<glyph unicode="&#x2026;" horiz-adv-x="1904" d="M338 -20q-78 0 -131 53t-53 131q0 77 53 130.5t131 53.5q76 0 130 -54t54 -130q0 -78 -53.5 -131t-130.5 -53zM952 -20q-78 0 -131 53t-53 131q0 77 53 130.5t131 53.5q77 0 131 -54t54 -130q0 -78 -54 -131t-131 -53zM1567 -20q-78 0 -131.5 53t-53.5 131 q0 77 53.5 130.5t131.5 53.5q77 0 130.5 -54t53.5 -130q0 -78 -53.5 -131t-130.5 -53z" />
<glyph unicode="&#x202f;" horiz-adv-x="371" />
<glyph unicode="&#x2039;" horiz-adv-x="602" d="M319 633l252 -291l-149 -152l-371 443l371 442l149 -151z" />
<glyph unicode="&#x203a;" horiz-adv-x="602" d="M551 633l-371 -443l-149 152l252 291l-252 291l149 151z" />
<glyph unicode="&#x205f;" horiz-adv-x="464" />
<glyph unicode="&#x20ac;" horiz-adv-x="1292" d="M899 195q46 0 88 8t68.5 19.5t46.5 23.5t28 20l9 8l123 -188q-5 -5 -15 -13t-44.5 -28t-73 -35.5t-101 -28t-129.5 -12.5q-209 0 -372.5 123.5t-235.5 325.5h-168v194h127q-4 50 -4 72t4 72h-127v194h168q72 203 235.5 328t372.5 125q67 0 128.5 -12.5t102.5 -29.5 t72 -34.5t46 -30.5l14 -12l-123 -188q-3 3 -9 8.5t-27.5 20t-47 25t-68 19.5t-88.5 9q-96 0 -187.5 -62t-150.5 -166h483v-194h-548q-4 -46 -4 -72t4 -72h548v-194h-483q59 -102 150.5 -162.5t187.5 -60.5z" />
<glyph unicode="&#x2122;" horiz-adv-x="1611" d="M436 1290v-573h-176v573h-188v144h553v-144h-189zM1489 717h-160v430l-155 -430h-132l-155 430v-430h-160v717h219l162 -443l162 443h219v-717z" />
<glyph unicode="&#x25fc;" horiz-adv-x="1024" d="M0 1024h1024v-1024h-1024v1024z" />
<glyph unicode="&#xfb01;" horiz-adv-x="1204" d="M928 1137q-69 0 -116.5 47t-47.5 116q0 68 47.5 116t116.5 48q68 0 116 -48t48 -116q0 -69 -48 -116t-116 -47zM1055 1024v-1024h-256v788h-379v-788h-256v788h-133v236h133v123q0 127 90 217t217 90h123v-235h-72q-43 0 -72.5 -30t-29.5 -73v-92h635z" />
<glyph unicode="&#xfb02;" horiz-adv-x="1341" d="M1229 236v-236h-123q-128 0 -217.5 90t-89.5 217v481h-379v-788h-256v788h-133v236h133v123q0 127 90 217t217 90h123v-235h-72q-43 0 -72.5 -30t-29.5 -73v-92h379v440h256v-1126q0 -43 29.5 -72.5t72.5 -29.5h72z" />
<glyph unicode="&#xfb03;" horiz-adv-x="1828" d="M1552 1137q-69 0 -116 47t-47 116q0 68 47 116t116 48q68 0 116 -48t48 -116q0 -69 -48 -116t-116 -47zM1679 1024v-1024h-256v788h-379v-788h-256v788h-368v-788h-256v788h-133v236h133v123q0 127 90 217t217 90h123v-235h-72q-43 0 -72.5 -30t-29.5 -73v-92h368v123 q0 127 90 217t218 90h123v-235h-72q-43 0 -73 -30t-30 -73v-92h635z" />
<glyph unicode="&#xfb04;" horiz-adv-x="1966" d="M1853 236v-236h-122q-128 0 -218 90t-90 217v481h-379v-788h-256v788h-368v-788h-256v788h-133v236h133v123q0 127 90 217t217 90h123v-235h-72q-43 0 -72.5 -30t-29.5 -73v-92h368v123q0 127 90 217t218 90h123v-235h-72q-43 0 -73 -30t-30 -73v-92h379v440h256v-1126 q0 -43 30 -72.5t73 -29.5h71z" />
<glyph horiz-adv-x="1812" d="M1536 1157q-69 0 -116.5 47.5t-47.5 116.5q0 68 47.5 116t116.5 48q68 0 116 -48.5t48 -115.5q0 -69 -48 -116.5t-116 -47.5zM1665 1024v-1126q0 -127 -91.5 -217.5t-219.5 -90.5h-123v236h76q43 0 72.5 29.5t29.5 72.5v860h-365v-788h-256v788h-368v-788h-256v788h-133 v236h133v123q0 127 90 217t217 90h123v-235h-72q-43 0 -72.5 -30t-29.5 -73v-92h368v123q0 127 90 217t218 90h123v-235h-72q-43 0 -73 -30t-30 -73v-92h621z" />
<glyph horiz-adv-x="1187" d="M911 1157q-69 0 -116 47.5t-47 116.5q0 68 47 116t116 48q67 0 115.5 -48.5t48.5 -115.5q0 -69 -48 -116.5t-116 -47.5zM1040 1024v-1126q0 -127 -91.5 -217.5t-219.5 -90.5h-123v236h76q43 0 72.5 29.5t29.5 72.5v860h-364v-788h-256v788h-133v236h133v123q0 127 90 217 t217 90h123v-235h-72q-43 0 -72.5 -30t-29.5 -73v-92h620z" />
</font>
</defs>
</svg>
