<svg xmlns="http://www.w3.org/2000/svg" xmlns:xlink="http://www.w3.org/1999/xlink" width="77" height="28" viewBox="0 0 77 28"><symbol id="a" viewBox="0 -40 90 40"><path fill="#ffffff" d="M30.857-27.95c-4.455 0-6.847 3.625-6.847 6.85 0 3.774 3.01 7.05 7.27 7.05 4.12 0 6.71-3.364 6.71-6.848 0-3.4-2.56-7.052-7.133-7.052zm3.71 2.567c.71.887.883 1.99.883 3.08 0 2.444-1.238 7.103-4.89 7.103-.976 0-1.945-.36-2.654-.943-1.15-.968-1.357-2.19-1.357-3.384 0-2.75 1.444-7.273 5.005-7.273 1.155 0 2.332.525 3.01 1.417zM71.014-8.6H69L70.5-7h4.93l-1.2-1.2c-.143-.143-.23-.332-.23-.55v-17.323c0-.43.31-.778.728-.83l1.655-.198-.895-.89H69.57l1.2 1.19c.144.143.23.332.23.55l.014 17.65zM85.824-26.273c-2.59 0-5.018 1.724-5.874 4.97l9 3.536c-.48 1.69-1.84 3.616-5.376 3.616-2.913 0-6.474-2.166-6.474-6.58 0-3.477 2.34-7.12 6.926-7.12.943 0 2.417.057 3.92 1.11.57.388 1.053.854 1.453 1.367-1.003-.483-2.072-.9-3.576-.9zm-2.8 11.187c1.592 0 3.076-1.326 3.076-2.464 0-.4-.452-.59-1.012-.788l-5.31-2.07c-.824 4.28 2.04 5.322 3.246 5.322zM11.923-28.8c-3.128 0-5.496.854-7.333 2.15C1.392-24.392.1-20.816.1-17.285c0 3.316 1.87 6.49 4.542 8.585 2.08 1.63 4.76 2.5 7.786 2.5 1.666 0 3.124-.198 4.572-.6 2.24-.626 3.317-1.397 4-1.866l-2.99-3v2.016c-1.16.978-2.707 2.25-6.255 2.25-4.708 0-8.305-3.374-8.305-9.09S7.72-27.5 13.605-27.5c2.186 0 3.51.307 4.405.6v5.3H14l1.6 1.6h6.75l-1.115-1.115c-.146-.145-.235-.345-.235-.567v-5.74c-1.444-.397-4.705-1.378-9.077-1.378zM46.857-27.95c-4.455 0-6.847 3.625-6.847 6.85 0 3.774 3.01 7.05 7.27 7.05 4.12 0 6.71-3.364 6.71-6.848 0-3.4-2.56-7.052-7.133-7.052zm3.71 2.567c.71.887.883 1.99.883 3.08 0 2.444-1.238 7.103-4.89 7.103-.975 0-1.945-.36-2.654-.943-1.15-.968-1.357-2.19-1.357-3.384 0-2.75 1.444-7.273 5.005-7.273 1.155 0 2.332.525 3.01 1.417z" /><path opacity=".1" fill="none" d="M90-40H0V0h90z"/><path fill="#ffffff" d="M66.3-27.45l-1.082.85c-.362.3-.818.692-.818 1.42 0 .73.546 1.29.972 1.62 1.307 1.014 2.567 2.097 2.567 4.338 0 1.79-.988 2.92-1.74 3.622h1.565l1.193 1.55h-6.292c-4.36 0-6.598-2.715-6.598-5.725 0-2.328 1.79-4.824 4.98-4.824h.802c-.125-.35-.35-.84-.35-1.3 0-1.016.42-1.436.92-2-1.398-.09-4.012-.427-5.938-1.605-1.838-1.095-2.282-2.63-2.282-3.745 0-2.303 2.063-4.5 6.57-4.5 5.35 0 8.03 2.958 8.03 5.878 0 2.155-1.135 3.27-2.5 4.423zm-7.648 9.137c0 2.21 1.312 3.213 2.688 3.213 2.644 0 4.01-3.45 4.01-5.535 0-2.572-2.067-3.065-2.887-3.065-2.47 0-3.81 3.06-3.81 5.387zM62.3-36.3c-3.326 0-5.45 1.492-5.45 3.7 0 2.203 1.963 2.907 2.65 3.158 1.304.436 2.983.494 3.268.494.307 0 .462 0 .708-.025 2.367-1.692 3.374-2.44 3.374-4.026 0-1.77-1.823-3.3-4.55-3.3z" /></symbol><use xlink:href="#a" width="90" height="40" y="-40" transform="matrix(.841 0 0 -.841 .909 -4.5)" overflow="visible"/></svg>