<svg width="256" height="256" xmlns="http://www.w3.org/2000/svg"><path fill="#86d9ff" d="M65.83 199.972c5.887-10.513 12.405-19.813 19.553-27.911 7.15-8.092 16.505-17.71 28.072-28.854 10.299-9.882 18.391-18.082 24.285-24.6 5.88-6.518 10.769-13.61 14.661-21.288 3.893-7.674 5.838-15.716 5.838-24.13 0-5.253-1.422-9.72-4.258-13.403-2.838-3.676-7.207-5.52-13.088-5.52-7.362 0-13.196 3.105-17.503 9.305-4.314 6.205-7.1 14.037-8.358 23.495L113.455 100H75.291c0-14.087 2.68-27.123 8.042-39.11 5.362-11.982 13.246-21.493 23.657-28.54 10.404-7.043 22.862-10.567 37.372-10.567 15.973 0 28.802 3.84 38.474 11.511 9.668 7.68 14.714 19.396 15.138 35.165 0 14.72-3.262 28.597-9.777 41.633-6.518 13.039-14.19 24.492-23.02 34.373-8.833 9.885-19.869 21.134-33.115 33.746a716.182 716.182 0 0 0-15.614 15.453c-4.938 5.047-8.568 9.36-10.88 12.934H180l-5.046 35.32H52.587l1.258-7.57c2.1-12.404 6.098-23.857 11.985-34.376" style="stroke-width:2.92025"/></svg>